RobotoSlab-Light.ufo
<glyph name="exclam" format="1">
  <advance width="458"/>
  <unicode hex="0021"/>
  <outline>
    <contour>
      <point x="273" y="478" type="line"/>
      <point x="154" y="478" type="line"/>
      <point x="154" y="1456" type="line"/>
      <point x="273" y="1456" type="line"/>
    </contour>
    <contour>
      <point x="285" y="0" type="line"/>
      <point x="143" y="0" type="line"/>
      <point x="143" y="167" type="line"/>
      <point x="285" y="167" type="line"/>
    </contour>
  </outline>
</glyph>
<glyph name="quotedbl" format="1">
  <advance width="711"/>
  <unicode hex="0022"/>
  <outline>
    <contour>
      <point x="270" y="1344" type="line"/>
      <point x="237" y="1083" type="line"/>
      <point x="166" y="1083" type="line"/>
      <point x="168" y="1338" type="line"/>
      <point x="168" y="1560" type="line"/>
      <point x="270" y="1560" type="line"/>
    </contour>
    <contour>
      <point x="510" y="1344" type="line"/>
      <point x="477" y="1083" type="line"/>
      <point x="405" y="1083" type="line"/>
      <point x="408" y="1341" type="line"/>
      <point x="408" y="1560" type="line"/>
      <point x="510" y="1560" type="line"/>
    </contour>
  </outline>
</glyph>
<glyph name="dollar" format="2">
  <advance width="1097"/>
  <unicode hex="0024"/>
  <outline>
    <contour>
      <point x="862" y="359" type="qcurve" smooth="yes"/>
      <point x="862" y="470"/>
      <point x="718" y="610"/>
      <point x="536" y="674" type="qcurve" smooth="yes"/>
      <point x="328" y="740"/>
      <point x="128" y="926"/>
      <point x="128" y="1095" type="qcurve" smooth="yes"/>
      <point x="128" y="1257"/>
      <point x="328" y="1461"/>
      <point x="500" y="1475" type="qcurve"/>
      <point x="500" y="1677" type="line"/>
      <point x="602" y="1677" type="line"/>
      <point x="602" y="1475" type="line"/>
      <point x="777" y="1459"/>
      <point x="970" y="1229"/>
      <point x="968" y="1033" type="qcurve"/>
      <point x="965" y="1028" type="line"/>
      <point x="853" y="1028" type="line"/>
      <point x="853" y="1180"/>
      <point x="692" y="1370"/>
      <point x="549" y="1370" type="qcurve" smooth="yes"/>
      <point x="401" y="1370"/>
      <point x="248" y="1215"/>
      <point x="248" y="1097" type="qcurve" smooth="yes"/>
      <point x="248" y="983"/>
      <point x="384" y="844"/>
      <point x="577" y="780" type="qcurve" smooth="yes"/>
      <point x="783" y="711"/>
      <point x="982" y="528"/>
      <point x="982" y="361" type="qcurve" smooth="yes"/>
      <point x="982" y="195"/>
      <point x="775" y="-4"/>
      <point x="599" y="-18" type="qcurve"/>
      <point x="599" y="-208" type="line"/>
      <point x="497" y="-208" type="line"/>
      <point x="497" y="-19" type="line"/>
      <point x="316" y="-7"/>
      <point x="78" y="201"/>
      <point x="82" y="412" type="qcurve"/>
      <point x="85" y="418" type="line"/>
      <point x="196" y="418" type="line"/>
      <point x="196" y="241"/>
      <point x="399" y="85"/>
      <point x="542" y="85" type="qcurve" smooth="yes"/>
      <point x="689" y="85"/>
      <point x="862" y="240"/>
    </contour>
  </outline>
</glyph>
<glyph name="percent" format="1">
  <advance width="1458"/>
  <unicode hex="0025"/>
  <outline>
    <contour>
      <point x="77" y="1176" type="line" smooth="yes"/>
      <point x="77.0" y="1345.3333333333335"/>
      <point x="191.33333333333337" y="1477.0"/>
      <point x="362" y="1477" type="curve" smooth="yes"/>
      <point x="532.6666666666666" y="1477.0"/>
      <point x="647.0" y="1345.3333333333335"/>
      <point x="647" y="1176" type="curve" smooth="yes"/>
      <point x="647" y="1099" type="line" smooth="yes"/>
      <point x="647.0" y="931.0"/>
      <point x="532.0" y="800.0"/>
      <point x="364" y="800" type="curve" smooth="yes"/>
      <point x="192.0" y="800.0"/>
      <point x="77.0" y="931.0"/>
      <point x="77" y="1099" type="curve" smooth="yes"/>
    </contour>
    <contour>
      <point x="174" y="1099" type="line" smooth="yes"/>
      <point x="174.0" y="981.6666666666665"/>
      <point x="241.33333333333337" y="887.0"/>
      <point x="364" y="887" type="curve" smooth="yes"/>
      <point x="482.6666666666667" y="887.0"/>
      <point x="550.0" y="981.6666666666665"/>
      <point x="550" y="1099" type="curve" smooth="yes"/>
      <point x="550" y="1176" type="line" smooth="yes"/>
      <point x="550.0" y="1293.3333333333335"/>
      <point x="482.0" y="1390.0"/>
      <point x="362" y="1390" type="curve" smooth="yes"/>
      <point x="242.0" y="1390.0"/>
      <point x="174.0" y="1293.3333333333335"/>
      <point x="174" y="1176" type="curve" smooth="yes"/>
    </contour>
    <contour>
      <point x="810" y="357" type="line" smooth="yes"/>
      <point x="810.0" y="525.0"/>
      <point x="924.6666666666667" y="657.0"/>
      <point x="1094" y="657" type="curve" smooth="yes"/>
      <point x="1264.6666666666665" y="657.0"/>
      <point x="1380.0" y="525.0"/>
      <point x="1380" y="357" type="curve" smooth="yes"/>
      <point x="1380" y="279" type="line" smooth="yes"/>
      <point x="1380.0" y="109.66666666666669"/>
      <point x="1264.0" y="-21.0"/>
      <point x="1096" y="-21" type="curve" smooth="yes"/>
      <point x="924.0" y="-21.0"/>
      <point x="810.0" y="109.66666666666669"/>
      <point x="810" y="279" type="curve" smooth="yes"/>
    </contour>
    <contour>
      <point x="906" y="279" type="line" smooth="yes"/>
      <point x="906.0" y="161.66666666666669"/>
      <point x="973.3333333333335" y="66.0"/>
      <point x="1096" y="66" type="curve" smooth="yes"/>
      <point x="1214.6666666666665" y="66.0"/>
      <point x="1283.0" y="160.33333333333337"/>
      <point x="1283" y="279" type="curve" smooth="yes"/>
      <point x="1283" y="357" type="line" smooth="yes"/>
      <point x="1283.0" y="478.3333333333333"/>
      <point x="1215.3333333333335" y="570.0"/>
      <point x="1094" y="570" type="curve" smooth="yes"/>
      <point x="974.0" y="570.0"/>
      <point x="906.0" y="477.0"/>
      <point x="906" y="357" type="curve" smooth="yes"/>
    </contour>
    <contour>
      <point x="440" y="121" type="line"/>
      <point x="366" y="169" type="line"/>
      <point x="1077" y="1307" type="line"/>
      <point x="1151" y="1259" type="line"/>
    </contour>
  </outline>
</glyph>
<glyph name="ampersand" format="1">
  <advance width="1269"/>
  <unicode hex="0026"/>
  <outline>
    <contour>
      <point x="370" y="794" type="line"/>
      <point x="262.0" y="928.6666666666667"/>
      <point x="212.0" y="1031.0"/>
      <point x="212" y="1147" type="curve" smooth="yes"/>
      <point x="212.0" y="1357.6666666666665"/>
      <point x="337.33333333333337" y="1477.0"/>
      <point x="544" y="1477" type="curve" smooth="yes"/>
      <point x="736.0" y="1477.0"/>
      <point x="857.0" y="1356.0"/>
      <point x="857" y="1192" type="curve" smooth="yes"/>
      <point x="857.0" y="1070.6666666666665"/>
      <point x="795.3333333333333" y="993.6666666666667"/>
      <point x="682" y="907" type="curve" smooth="yes"/>
      <point x="524" y="785" type="line"/>
      <point x="935" y="305" type="line"/>
      <point x="1000.3333333333333" y="399.6666666666666"/>
      <point x="1038.0" y="519.0"/>
      <point x="1038" y="651" type="curve"/>
      <point x="1149" y="651" type="line"/>
      <point x="1149.0" y="480.33333333333326"/>
      <point x="1097.6666666666665" y="338.0"/>
      <point x="1007" y="222" type="curve"/>
      <point x="1192" y="5" type="line"/>
      <point x="1190" y="0" type="line"/>
      <point x="1052" y="0" type="line"/>
      <point x="930" y="141" type="line"/>
      <point x="816.6666666666667" y="37.0"/>
      <point x="682.0" y="-21.0"/>
      <point x="526" y="-21" type="curve" smooth="yes"/>
      <point x="247.33333333333337" y="-21.0"/>
      <point x="74.0" y="133.66666666666669"/>
      <point x="74" y="371" type="curve" smooth="yes"/>
      <point x="74.0" y="531.0"/>
      <point x="173.33333333333337" y="650.6666666666667"/>
      <point x="356" y="784" type="curve" smooth="yes"/>
    </contour>
    <contour>
      <point x="526" y="80" type="curve" smooth="yes"/>
      <point x="648.6666666666667" y="80.0"/>
      <point x="769.6666666666667" y="129.66666666666669"/>
      <point x="863" y="219" type="curve"/>
      <point x="449" y="701" type="line"/>
      <point x="442.33333333333337" y="707.6666666666667"/>
      <point x="437.66666666666663" y="711.6666666666667"/>
      <point x="435" y="717" type="curve"/>
      <point x="388" y="681" type="line" smooth="yes"/>
      <point x="234.66666666666669" y="555.6666666666667"/>
      <point x="193.0" y="456.3333333333333"/>
      <point x="193" y="371" type="curve" smooth="yes"/>
      <point x="193.0" y="205.66666666666674"/>
      <point x="310.0" y="80.0"/>
    </contour>
    <contour>
      <point x="332" y="1149" type="curve" smooth="yes"/>
      <point x="332.0" y="1061.0"/>
      <point x="373.66666666666663" y="965.0"/>
      <point x="459" y="861" type="curve"/>
      <point x="636" y="993" type="line" smooth="yes"/>
      <point x="714.6666666666667" y="1053.0"/>
      <point x="744.0" y="1117.3333333333335"/>
      <point x="744" y="1192" type="curve" smooth="yes"/>
      <point x="744.0" y="1297.3333333333335"/>
      <point x="669.3333333333333" y="1375.0"/>
      <point x="544" y="1375" type="curve" smooth="yes"/>
      <point x="408.0" y="1375.0"/>
      <point x="332.0" y="1277.0"/>
    </contour>
  </outline>
</glyph>
<glyph name="parenleft" format="2">
  <advance width="636"/>
  <unicode hex="0028"/>
  <outline>
    <contour>
      <point x="114" y="588" type="line" smooth="yes"/>
      <point x="114" y="951"/>
      <point x="391" y="1527"/>
      <point x="562" y="1624" type="qcurve"/>
      <point x="568" y="1624" type="line"/>
      <point x="594" y="1551" type="line"/>
      <point x="449" y="1448"/>
      <point x="233" y="922"/>
      <point x="233" y="591" type="qcurve" smooth="yes"/>
      <point x="233" y="571" type="line" smooth="yes"/>
      <point x="233" y="240"/>
      <point x="449" y="-286"/>
      <point x="594" y="-393" type="qcurve"/>
      <point x="568" y="-463" type="line"/>
      <point x="562" y="-463" type="line"/>
      <point x="389" y="-363"/>
      <point x="114" y="201"/>
      <point x="114" y="573" type="qcurve" smooth="yes"/>
    </contour>
  </outline>
</glyph>
<glyph name="parenright" format="2">
  <advance width="629"/>
  <unicode hex="0029"/>
  <outline>
    <contour>
      <point x="491" y="573" type="line" smooth="yes"/>
      <point x="491" y="201"/>
      <point x="214" y="-363"/>
      <point x="42" y="-463" type="qcurve"/>
      <point x="36" y="-462" type="line"/>
      <point x="11" y="-393" type="line"/>
      <point x="155" y="-291"/>
      <point x="372" y="239"/>
      <point x="372" y="571" type="qcurve" smooth="yes"/>
      <point x="372" y="591" type="line" smooth="yes"/>
      <point x="372" y="920"/>
      <point x="151" y="1453"/>
      <point x="11" y="1555" type="qcurve"/>
      <point x="36" y="1624" type="line"/>
      <point x="42" y="1625" type="line"/>
      <point x="212" y="1527"/>
      <point x="491" y="951"/>
      <point x="491" y="588" type="qcurve" smooth="yes"/>
    </contour>
  </outline>
</glyph>
<glyph name="comma" format="2">
  <advance width="392"/>
  <unicode hex="002C"/>
  <outline>
    <contour>
      <point x="271" y="48" type="line" smooth="yes"/>
      <point x="271" y="-44"/>
      <point x="196" y="-220"/>
      <point x="131" y="-281" type="qcurve"/>
      <point x="60" y="-229" type="line"/>
      <point x="107" y="-163"/>
      <point x="152" y="-33"/>
      <point x="152" y="46" type="qcurve" smooth="yes"/>
      <point x="152" y="188" type="line"/>
      <point x="271" y="188" type="line"/>
    </contour>
  </outline>
</glyph>
<glyph name="zero" format="2">
  <advance width="1158"/>
  <unicode hex="0030"/>
  <outline>
    <contour>
      <point x="1026" y="565" type="line" smooth="yes"/>
      <point x="1026" y="283"/>
      <point x="787" y="-21"/>
      <point x="574" y="-21" type="qcurve" smooth="yes"/>
      <point x="362" y="-21"/>
      <point x="121" y="284"/>
      <point x="121" y="565" type="qcurve" smooth="yes"/>
      <point x="121" y="890" type="line" smooth="yes"/>
      <point x="121" y="1171"/>
      <point x="360" y="1477"/>
      <point x="572" y="1477" type="qcurve" smooth="yes"/>
      <point x="785" y="1477"/>
      <point x="1026" y="1171"/>
      <point x="1026" y="890" type="qcurve" smooth="yes"/>
    </contour>
    <contour>
      <point x="906" y="910" type="line" smooth="yes"/>
      <point x="906" y="1134"/>
      <point x="735" y="1375"/>
      <point x="572" y="1375" type="qcurve" smooth="yes"/>
      <point x="410" y="1375"/>
      <point x="240" y="1133"/>
      <point x="240" y="910" type="qcurve" smooth="yes"/>
      <point x="240" y="547" type="line" smooth="yes"/>
      <point x="240" y="325"/>
      <point x="413" y="80"/>
      <point x="574" y="80" type="qcurve" smooth="yes"/>
      <point x="736" y="80"/>
      <point x="906" y="324"/>
      <point x="906" y="547" type="qcurve" smooth="yes"/>
    </contour>
  </outline>
</glyph>
<glyph name="two" format="2">
  <advance width="1116"/>
  <unicode hex="0032"/>
  <outline>
    <contour>
      <point x="101" y="0" type="line"/>
      <point x="101" y="92" type="line"/>
      <point x="578" y="633" type="line" smooth="yes"/>
      <point x="711" y="783"/>
      <point x="820" y="983"/>
      <point x="820" y="1075" type="qcurve" smooth="yes"/>
      <point x="820" y="1210"/>
      <point x="666" y="1375"/>
      <point x="527" y="1375" type="qcurve" smooth="yes"/>
      <point x="361" y="1375"/>
      <point x="189" y="1191"/>
      <point x="189" y="1037" type="qcurve"/>
      <point x="78" y="1037" type="line"/>
      <point x="76" y="1043" type="line"/>
      <point x="71" y="1225"/>
      <point x="316" y="1477"/>
      <point x="527" y="1477" type="qcurve" smooth="yes"/>
      <point x="715" y="1477"/>
      <point x="940" y="1261"/>
      <point x="940" y="1079" type="qcurve" smooth="yes"/>
      <point x="940" y="959"/>
      <point x="789" y="712"/>
      <point x="655" y="560" type="qcurve" smooth="yes"/>
      <point x="253" y="106" type="line"/>
      <point x="255" y="101" type="line"/>
      <point x="890" y="101" type="line"/>
      <point x="900" y="306" type="line"/>
      <point x="1006" y="306" type="line"/>
      <point x="1006" y="0" type="line"/>
    </contour>
  </outline>
</glyph>
<glyph name="three" format="2">
  <advance width="1102"/>
  <unicode hex="0033"/>
  <outline>
    <contour>
      <point x="374" y="793" type="line"/>
      <point x="512" y="793" type="line" smooth="yes"/>
      <point x="671" y="793"/>
      <point x="835" y="952"/>
      <point x="835" y="1077" type="qcurve" smooth="yes"/>
      <point x="835" y="1213"/>
      <point x="681" y="1375"/>
      <point x="530" y="1375" type="qcurve" smooth="yes"/>
      <point x="389" y="1375"/>
      <point x="210" y="1210"/>
      <point x="210" y="1075" type="qcurve"/>
      <point x="98" y="1075" type="line"/>
      <point x="96" y="1081" type="line"/>
      <point x="91" y="1251"/>
      <point x="340" y="1477"/>
      <point x="530" y="1477" type="qcurve" smooth="yes"/>
      <point x="724" y="1477"/>
      <point x="955" y="1263"/>
      <point x="955" y="1073" type="qcurve" smooth="yes"/>
      <point x="955" y="970"/>
      <point x="827" y="789"/>
      <point x="711" y="745" type="qcurve"/>
      <point x="847" y="706"/>
      <point x="982" y="521"/>
      <point x="982" y="395" type="qcurve" smooth="yes"/>
      <point x="982" y="201"/>
      <point x="731" y="-21"/>
      <point x="534" y="-21" type="qcurve" smooth="yes"/>
      <point x="343" y="-21"/>
      <point x="70" y="196"/>
      <point x="75" y="389" type="qcurve"/>
      <point x="77" y="395" type="line"/>
      <point x="188" y="395" type="line"/>
      <point x="188" y="256"/>
      <point x="381" y="80"/>
      <point x="534" y="80" type="qcurve" smooth="yes"/>
      <point x="689" y="80"/>
      <point x="863" y="241"/>
      <point x="863" y="391" type="qcurve" smooth="yes"/>
      <point x="863" y="544"/>
      <point x="681" y="691"/>
      <point x="512" y="691" type="qcurve" smooth="yes"/>
      <point x="374" y="691" type="line"/>
    </contour>
  </outline>
</glyph>
<glyph name="four" format="1">
  <advance width="1178"/>
  <unicode hex="0034"/>
  <outline>
    <contour>
      <point x="864" y="469" type="line"/>
      <point x="1092" y="469" type="line"/>
      <point x="1092" y="368" type="line"/>
      <point x="864" y="368" type="line"/>
      <point x="864" y="101" type="line"/>
      <point x="1027" y="88" type="line"/>
      <point x="1027" y="0" type="line"/>
      <point x="582" y="0" type="line"/>
      <point x="582" y="88" type="line"/>
      <point x="745" y="101" type="line"/>
      <point x="745" y="368" type="line"/>
      <point x="63" y="368" type="line"/>
      <point x="63" y="436" type="line"/>
      <point x="733" y="1456" type="line"/>
      <point x="864" y="1456" type="line"/>
    </contour>
    <contour>
      <point x="205" y="469" type="line"/>
      <point x="745" y="469" type="line"/>
      <point x="745" y="1299" type="line"/>
      <point x="739" y="1301" type="line"/>
      <point x="688" y="1192" type="line"/>
    </contour>
  </outline>
</glyph>
<glyph name="five" format="2">
  <advance width="1070"/>
  <unicode hex="0035"/>
  <outline>
    <contour>
      <point x="827" y="1219" type="line"/>
      <point x="815" y="1345" type="line"/>
      <point x="295" y="1345" type="line"/>
      <point x="241" y="826" type="line"/>
      <point x="296" y="876"/>
      <point x="428" y="930"/>
      <point x="541" y="933" type="qcurve" smooth="yes"/>
      <point x="727" y="936"/>
      <point x="955" y="680"/>
      <point x="955" y="464" type="qcurve" smooth="yes"/>
      <point x="955" y="243"/>
      <point x="733" y="-21"/>
      <point x="511" y="-21" type="qcurve" smooth="yes"/>
      <point x="331" y="-21"/>
      <point x="92" y="180"/>
      <point x="97" y="377" type="qcurve"/>
      <point x="99" y="383" type="line"/>
      <point x="206" y="383" type="line"/>
      <point x="206" y="236"/>
      <point x="372" y="80"/>
      <point x="511" y="80" type="qcurve" smooth="yes"/>
      <point x="674" y="80"/>
      <point x="835" y="276"/>
      <point x="835" y="462" type="qcurve" smooth="yes"/>
      <point x="835" y="625"/>
      <point x="674" y="822"/>
      <point x="529" y="822" type="qcurve" smooth="yes"/>
      <point x="389" y="822"/>
      <point x="242" y="733"/>
      <point x="209" y="643" type="qcurve"/>
      <point x="112" y="659" type="line"/>
      <point x="192" y="1456" type="line"/>
      <point x="924" y="1456" type="line"/>
      <point x="924" y="1219" type="line"/>
    </contour>
  </outline>
</glyph>
<glyph name="six" format="2">
  <advance width="1124"/>
  <unicode hex="0036"/>
  <outline>
    <contour>
      <point x="615" y="1477" type="qcurve" smooth="yes"/>
      <point x="690" y="1477"/>
      <point x="836" y="1443"/>
      <point x="893" y="1411" type="qcurve"/>
      <point x="864" y="1315" type="line"/>
      <point x="807" y="1346"/>
      <point x="693" y="1375"/>
      <point x="615" y="1375" type="qcurve" smooth="yes"/>
      <point x="446" y="1375"/>
      <point x="240" y="1109"/>
      <point x="240" y="838" type="qcurve" smooth="yes"/>
      <point x="240" y="789" type="line"/>
      <point x="300" y="867"/>
      <point x="486" y="961"/>
      <point x="599" y="961" type="qcurve" smooth="yes"/>
      <point x="795" y="961"/>
      <point x="1023" y="691"/>
      <point x="1023" y="474" type="qcurve" smooth="yes"/>
      <point x="1023" y="259"/>
      <point x="778" y="-21"/>
      <point x="582" y="-21" type="qcurve" smooth="yes"/>
      <point x="379" y="-21"/>
      <point x="121" y="284"/>
      <point x="121" y="562" type="qcurve" smooth="yes"/>
      <point x="121" y="827" type="line" smooth="yes"/>
      <point x="121" y="1145"/>
      <point x="398" y="1477"/>
    </contour>
    <contour>
      <point x="575" y="863" type="qcurve" smooth="yes"/>
      <point x="454" y="863"/>
      <point x="273" y="737"/>
      <point x="240" y="638" type="qcurve"/>
      <point x="240" y="553" type="line" smooth="yes"/>
      <point x="240" y="326"/>
      <point x="430" y="80"/>
      <point x="582" y="80" type="qcurve" smooth="yes"/>
      <point x="728" y="80"/>
      <point x="903" y="309"/>
      <point x="903" y="474" type="qcurve" smooth="yes"/>
      <point x="903" y="649"/>
      <point x="733" y="863"/>
    </contour>
  </outline>
</glyph>
<glyph name="seven" format="2">
  <advance width="1115"/>
  <unicode hex="0037"/>
  <outline>
    <contour>
      <point x="1031" y="1354" type="line"/>
      <point x="795" y="1075"/>
      <point x="544" y="497"/>
      <point x="502" y="122" type="qcurve" smooth="yes"/>
      <point x="492" y="0" type="line"/>
      <point x="372" y="0" type="line"/>
      <point x="382" y="122" type="line" smooth="yes"/>
      <point x="425" y="493"/>
      <point x="688" y="1092"/>
      <point x="907" y="1354" type="qcurve"/>
      <point x="190" y="1354" type="line"/>
      <point x="182" y="1149" type="line"/>
      <point x="76" y="1149" type="line"/>
      <point x="76" y="1456" type="line"/>
      <point x="1031" y="1456" type="line"/>
    </contour>
  </outline>
</glyph>
<glyph name="eight" format="2">
  <advance width="1127"/>
  <unicode hex="0038"/>
  <outline>
    <contour>
      <point x="987" y="1081" type="qcurve" smooth="yes"/>
      <point x="987" y="963"/>
      <point x="850" y="786"/>
      <point x="735" y="746" type="qcurve"/>
      <point x="867" y="705"/>
      <point x="1028" y="513"/>
      <point x="1028" y="386" type="qcurve" smooth="yes"/>
      <point x="1028" y="190"/>
      <point x="766" y="-21"/>
      <point x="561" y="-21" type="qcurve" smooth="yes"/>
      <point x="351" y="-21"/>
      <point x="92" y="189"/>
      <point x="92" y="386" type="qcurve" smooth="yes"/>
      <point x="92" y="515"/>
      <point x="250" y="706"/>
      <point x="383" y="747" type="qcurve"/>
      <point x="268" y="787"/>
      <point x="133" y="963"/>
      <point x="133" y="1081" type="qcurve" smooth="yes"/>
      <point x="133" y="1269"/>
      <point x="370" y="1477"/>
      <point x="559" y="1477" type="qcurve" smooth="yes"/>
      <point x="746" y="1477"/>
      <point x="987" y="1268"/>
    </contour>
    <contour>
      <point x="909" y="385" type="qcurve" smooth="yes"/>
      <point x="909" y="523"/>
      <point x="708" y="696"/>
      <point x="559" y="696" type="qcurve" smooth="yes"/>
      <point x="407" y="696"/>
      <point x="211" y="523"/>
      <point x="211" y="385" type="qcurve" smooth="yes"/>
      <point x="211" y="242"/>
      <point x="405" y="80"/>
      <point x="561" y="80" type="qcurve" smooth="yes"/>
      <point x="712" y="80"/>
      <point x="909" y="243"/>
    </contour>
    <contour>
      <point x="868" y="1082" type="qcurve" smooth="yes"/>
      <point x="868" y="1208"/>
      <point x="690" y="1375"/>
      <point x="559" y="1375" type="qcurve" smooth="yes"/>
      <point x="424" y="1375"/>
      <point x="252" y="1215"/>
      <point x="252" y="1082" type="qcurve" smooth="yes"/>
      <point x="252" y="953"/>
      <point x="424" y="798"/>
      <point x="561" y="798" type="qcurve" smooth="yes"/>
      <point x="694" y="798"/>
      <point x="868" y="953"/>
    </contour>
  </outline>
</glyph>
<glyph name="nine" format="2">
  <advance width="1138"/>
  <unicode hex="0039"/>
  <outline>
    <contour>
      <point x="505" y="80" type="qcurve" smooth="yes"/>
      <point x="675" y="80"/>
      <point x="867" y="340"/>
      <point x="867" y="611" type="qcurve" smooth="yes"/>
      <point x="867" y="653" type="line"/>
      <point x="813" y="562"/>
      <point x="635" y="463"/>
      <point x="526" y="463" type="qcurve" smooth="yes"/>
      <point x="327" y="463"/>
      <point x="84" y="738"/>
      <point x="84" y="958" type="qcurve" smooth="yes"/>
      <point x="84" y="1179"/>
      <point x="338" y="1477"/>
      <point x="527" y="1477" type="qcurve" smooth="yes"/>
      <point x="740" y="1477"/>
      <point x="991" y="1199"/>
      <point x="991" y="918" type="qcurve" smooth="yes"/>
      <point x="991" y="613" type="line" smooth="yes"/>
      <point x="991" y="294"/>
      <point x="728" y="-21"/>
      <point x="505" y="-21" type="qcurve" smooth="yes"/>
      <point x="428" y="-21"/>
      <point x="270" y="9"/>
      <point x="199" y="40" type="qcurve"/>
      <point x="221" y="140" type="line"/>
      <point x="289" y="108"/>
      <point x="422" y="80"/>
    </contour>
    <contour>
      <point x="526" y="564" type="qcurve" smooth="yes"/>
      <point x="656" y="564"/>
      <point x="830" y="697"/>
      <point x="867" y="795" type="qcurve"/>
      <point x="867" y="927" type="line" smooth="yes"/>
      <point x="867" y="1153"/>
      <point x="688" y="1375"/>
      <point x="532" y="1375" type="qcurve" smooth="yes"/>
      <point x="391" y="1375"/>
      <point x="208" y="1131"/>
      <point x="208" y="958" type="qcurve" smooth="yes"/>
      <point x="208" y="789"/>
      <point x="379" y="564"/>
    </contour>
  </outline>
</glyph>
<glyph name="question" format="2">
  <advance width="925"/>
  <unicode hex="003F"/>
  <outline>
    <contour>
      <point x="361" y="404" type="line"/>
      <point x="362" y="535"/>
      <point x="404" y="638"/>
      <point x="497" y="723" type="qcurve"/>
      <point x="604" y="833"/>
      <point x="704" y="986"/>
      <point x="704" y="1102" type="qcurve" smooth="yes"/>
      <point x="704" y="1230"/>
      <point x="568" y="1370"/>
      <point x="442" y="1370" type="qcurve" smooth="yes"/>
      <point x="324" y="1370"/>
      <point x="180" y="1233"/>
      <point x="179" y="1116" type="qcurve"/>
      <point x="68" y="1116" type="line"/>
      <point x="66" y="1122" type="line"/>
      <point x="63" y="1287"/>
      <point x="276" y="1477"/>
      <point x="442" y="1477" type="qcurve" smooth="yes"/>
      <point x="621" y="1477"/>
      <point x="824" y="1275"/>
      <point x="824" y="1103" type="qcurve" smooth="yes"/>
      <point x="824" y="968"/>
      <point x="691" y="759"/>
      <point x="569" y="645" type="qcurve" smooth="yes"/>
      <point x="507" y="592"/>
      <point x="480" y="500"/>
      <point x="480" y="404" type="qcurve"/>
    </contour>
    <contour>
      <point x="496" y="0" type="line"/>
      <point x="358" y="0" type="line"/>
      <point x="358" y="154" type="line"/>
      <point x="496" y="154" type="line"/>
    </contour>
  </outline>
</glyph>
<glyph name="at" format="2">
  <advance width="1809"/>
  <unicode hex="0040"/>
  <outline>
    <contour>
      <point x="1715" y="513" type="qcurve" smooth="yes"/>
      <point x="1705" y="297"/>
      <point x="1491" y="-21"/>
      <point x="1285" y="-21" type="qcurve" smooth="yes"/>
      <point x="1207" y="-21"/>
      <point x="1101" y="81"/>
      <point x="1085" y="171" type="qcurve"/>
      <point x="1032" y="75"/>
      <point x="877" y="-21"/>
      <point x="774" y="-21" type="qcurve" smooth="yes"/>
      <point x="643" y="-21"/>
      <point x="507" y="218"/>
      <point x="526" y="416" type="qcurve" smooth="yes"/>
      <point x="549" y="670"/>
      <point x="785" y="977"/>
      <point x="953" y="977" type="qcurve" smooth="yes"/>
      <point x="1046" y="977"/>
      <point x="1161" y="923"/>
      <point x="1230" y="869" type="qcurve"/>
      <point x="1228" y="867" type="line"/>
      <point x="1231" y="867" type="line"/>
      <point x="1181" y="293" type="line" smooth="yes"/>
      <point x="1171" y="161"/>
      <point x="1251" y="65"/>
      <point x="1306" y="65" type="qcurve" smooth="yes"/>
      <point x="1448" y="65"/>
      <point x="1613" y="314"/>
      <point x="1623" y="513" type="qcurve" smooth="yes"/>
      <point x="1642" y="902"/>
      <point x="1306" y="1333"/>
      <point x="944" y="1333" type="qcurve" smooth="yes"/>
      <point x="620" y="1333"/>
      <point x="201" y="862"/>
      <point x="184" y="478" type="qcurve" smooth="yes"/>
      <point x="165" y="99"/>
      <point x="530" y="-368"/>
      <point x="867" y="-368" type="qcurve" smooth="yes"/>
      <point x="955" y="-368"/>
      <point x="1135" y="-324"/>
      <point x="1197" y="-289" type="qcurve"/>
      <point x="1228" y="-364" type="line"/>
      <point x="1164" y="-405"/>
      <point x="958" y="-453"/>
      <point x="863" y="-453" type="qcurve" smooth="yes"/>
      <point x="483" y="-453"/>
      <point x="67" y="46"/>
      <point x="86" y="478" type="qcurve" smooth="yes"/>
      <point x="104" y="902"/>
      <point x="573" y="1420"/>
      <point x="948" y="1420" type="qcurve" smooth="yes"/>
      <point x="1339" y="1420"/>
      <point x="1732" y="937"/>
    </contour>
    <contour>
      <point x="636" y="416" type="qcurve" smooth="yes"/>
      <point x="620" y="261"/>
      <point x="704" y="77"/>
      <point x="800" y="77" type="qcurve" smooth="yes"/>
      <point x="886" y="77"/>
      <point x="1026" y="163"/>
      <point x="1079" y="277" type="qcurve"/>
      <point x="1079" y="282"/>
      <point x="1079" y="289"/>
      <point x="1080" y="293" type="qcurve"/>
      <point x="1127" y="836" type="line"/>
      <point x="1095" y="859"/>
      <point x="1016" y="886"/>
      <point x="969" y="886" type="qcurve" smooth="yes"/>
      <point x="835" y="886"/>
      <point x="659" y="648"/>
    </contour>
  </outline>
</glyph>
<glyph name="A" format="2">
  <advance width="1485"/>
  <unicode hex="0041"/>
  <outline>
    <contour>
      <point x="55" y="88" type="line"/>
      <point x="162" y="96" type="line"/>
      <point x="679" y="1456" type="line"/>
      <point x="792" y="1456" type="line"/>
      <point x="1304" y="96" type="line"/>
      <point x="1413" y="88" type="line"/>
      <point x="1413" y="0" type="line"/>
      <point x="1054" y="0" type="line"/>
      <point x="1054" y="88" type="line"/>
      <point x="1181" y="98" type="line"/>
      <point x="1061" y="424" type="line"/>
      <point x="407" y="424" type="line"/>
      <point x="286" y="98" type="line"/>
      <point x="413" y="88" type="line"/>
      <point x="413" y="0" type="line"/>
      <point x="55" y="0" type="line"/>
    </contour>
    <contour>
      <point x="447" y="531" type="line"/>
      <point x="1022" y="531" type="line"/>
      <point x="739" y="1301" type="line"/>
      <point x="733" y="1301" type="line"/>
    </contour>
  </outline>
</glyph>
<glyph name="B" format="2">
  <advance width="1322"/>
  <unicode hex="0042"/>
  <outline>
    <contour>
      <point x="659" y="1456" type="line" smooth="yes"/>
      <point x="886" y="1456"/>
      <point x="1139" y="1265"/>
      <point x="1139" y="1073" type="qcurve" smooth="yes"/>
      <point x="1139" y="961"/>
      <point x="1012" y="795"/>
      <point x="903" y="763" type="qcurve"/>
      <point x="1036" y="739"/>
      <point x="1202" y="537"/>
      <point x="1202" y="405" type="qcurve" smooth="yes"/>
      <point x="1202" y="210"/>
      <point x="949" y="0"/>
      <point x="737" y="0" type="qcurve" smooth="yes"/>
      <point x="71" y="0" type="line"/>
      <point x="71" y="88" type="line"/>
      <point x="234" y="101" type="line"/>
      <point x="234" y="1354" type="line"/>
      <point x="71" y="1367" type="line"/>
      <point x="71" y="1456" type="line"/>
      <point x="234" y="1456" type="line"/>
    </contour>
    <contour>
      <point x="353" y="702" type="line"/>
      <point x="353" y="101" type="line"/>
      <point x="737" y="101" type="line" smooth="yes"/>
      <point x="898" y="101"/>
      <point x="1082" y="260"/>
      <point x="1082" y="403" type="qcurve" smooth="yes"/>
      <point x="1082" y="534"/>
      <point x="915" y="702"/>
      <point x="756" y="702" type="qcurve" smooth="yes"/>
    </contour>
    <contour>
      <point x="353" y="803" type="line"/>
      <point x="688" y="803" type="line" smooth="yes"/>
      <point x="846" y="803"/>
      <point x="1019" y="942"/>
      <point x="1019" y="1077" type="qcurve" smooth="yes"/>
      <point x="1019" y="1215"/>
      <point x="835" y="1354"/>
      <point x="659" y="1354" type="qcurve" smooth="yes"/>
      <point x="353" y="1354" type="line"/>
    </contour>
  </outline>
</glyph>
<glyph name="C" format="2">
  <advance width="1349"/>
  <unicode hex="0043"/>
  <outline>
    <contour>
      <point x="1230" y="1000" type="line"/>
      <point x="1137" y="1000" type="line"/>
      <point x="1120" y="1221" type="line"/>
      <point x="1062" y="1290"/>
      <point x="876" y="1375"/>
      <point x="754" y="1375" type="qcurve" smooth="yes"/>
      <point x="510" y="1375"/>
      <point x="222" y="1020"/>
      <point x="222" y="739" type="qcurve" smooth="yes"/>
      <point x="222" y="718" type="line" smooth="yes"/>
      <point x="222" y="437"/>
      <point x="507" y="80"/>
      <point x="739" y="80" type="qcurve" smooth="yes"/>
      <point x="862" y="80"/>
      <point x="1063" y="166"/>
      <point x="1120" y="234" type="qcurve"/>
      <point x="1137" y="455" type="line"/>
      <point x="1230" y="455" type="line"/>
      <point x="1230" y="199" type="line"/>
      <point x="1162" y="105"/>
      <point x="901" y="-21"/>
      <point x="739" y="-21" type="qcurve" smooth="yes"/>
      <point x="459" y="-21"/>
      <point x="103" y="394"/>
      <point x="103" y="718" type="qcurve" smooth="yes"/>
      <point x="103" y="737" type="line" smooth="yes"/>
      <point x="103" y="1062"/>
      <point x="458" y="1477"/>
      <point x="745" y="1477" type="qcurve" smooth="yes"/>
      <point x="907" y="1477"/>
      <point x="1162" y="1350"/>
      <point x="1230" y="1256" type="qcurve"/>
    </contour>
  </outline>
</glyph>
<glyph name="D" format="2">
  <advance width="1401"/>
  <unicode hex="0044"/>
  <outline>
    <contour>
      <point x="657" y="1456" type="line" smooth="yes"/>
      <point x="924" y="1456"/>
      <point x="1272" y="1100"/>
      <point x="1272" y="821" type="qcurve" smooth="yes"/>
      <point x="1272" y="634" type="line" smooth="yes"/>
      <point x="1272" y="354"/>
      <point x="924" y="0"/>
      <point x="657" y="0" type="qcurve" smooth="yes"/>
      <point x="71" y="0" type="line"/>
      <point x="71" y="88" type="line"/>
      <point x="234" y="101" type="line"/>
      <point x="234" y="1354" type="line"/>
      <point x="71" y="1367" type="line"/>
      <point x="71" y="1456" type="line"/>
      <point x="234" y="1456" type="line"/>
    </contour>
    <contour>
      <point x="353" y="1354" type="line"/>
      <point x="353" y="101" type="line"/>
      <point x="657" y="101" type="line" smooth="yes"/>
      <point x="873" y="101"/>
      <point x="1152" y="403"/>
      <point x="1152" y="634" type="qcurve" smooth="yes"/>
      <point x="1152" y="824" type="line" smooth="yes"/>
      <point x="1152" y="1052"/>
      <point x="872" y="1354"/>
      <point x="657" y="1354" type="qcurve" smooth="yes"/>
    </contour>
  </outline>
</glyph>
<glyph name="E" format="2">
  <advance width="1286"/>
  <unicode hex="0045"/>
  <outline>
    <contour>
      <point x="950" y="705" type="line"/>
      <point x="353" y="705" type="line"/>
      <point x="353" y="101" type="line"/>
      <point x="1041" y="101" type="line"/>
      <point x="1050" y="319" type="line"/>
      <point x="1156" y="319" type="line"/>
      <point x="1156" y="0" type="line"/>
      <point x="71" y="0" type="line"/>
      <point x="71" y="88" type="line"/>
      <point x="234" y="101" type="line"/>
      <point x="234" y="1354" type="line"/>
      <point x="71" y="1367" type="line"/>
      <point x="71" y="1456" type="line"/>
      <point x="234" y="1456" type="line"/>
      <point x="1151" y="1456" type="line"/>
      <point x="1151" y="1136" type="line"/>
      <point x="1045" y="1136" type="line"/>
      <point x="1036" y="1354" type="line"/>
      <point x="353" y="1354" type="line"/>
      <point x="353" y="807" type="line"/>
      <point x="950" y="807" type="line"/>
    </contour>
  </outline>
</glyph>
<glyph name="F" format="1">
  <advance width="1258"/>
  <unicode hex="0046"/>
  <outline>
    <contour>
      <point x="71" y="88" type="line"/>
      <point x="234" y="101" type="line"/>
      <point x="234" y="1354" type="line"/>
      <point x="71" y="1367" type="line"/>
      <point x="71" y="1456" type="line"/>
      <point x="1163" y="1456" type="line"/>
      <point x="1163" y="1136" type="line"/>
      <point x="1057" y="1136" type="line"/>
      <point x="1048" y="1354" type="line"/>
      <point x="353" y="1354" type="line"/>
      <point x="353" y="785" type="line"/>
      <point x="961" y="785" type="line"/>
      <point x="961" y="682" type="line"/>
      <point x="353" y="682" type="line"/>
      <point x="353" y="101" type="line"/>
      <point x="516" y="88" type="line"/>
      <point x="516" y="0" type="line"/>
      <point x="71" y="0" type="line"/>
    </contour>
  </outline>
</glyph>
<glyph name="G" format="1">
  <advance width="1420"/>
  <unicode hex="0047"/>
  <outline>
    <contour>
      <point x="1239" y="160" type="line"/>
      <point x="1169.6666666666665" y="74.66666666666669"/>
      <point x="993.6666666666665" y="-21.0"/>
      <point x="735" y="-21" type="curve" smooth="yes"/>
      <point x="356.3333333333335" y="-21.0"/>
      <point x="95.0" y="279.33333333333337"/>
      <point x="95" y="718" type="curve" smooth="yes"/>
      <point x="95" y="749" type="line" smooth="yes"/>
      <point x="95.0" y="1181.0"/>
      <point x="354.66666666666663" y="1477.0"/>
      <point x="740" y="1477" type="curve" smooth="yes"/>
      <point x="958.6666666666667" y="1477.0"/>
      <point x="1129.6666666666665" y="1399.6666666666665"/>
      <point x="1235" y="1273" type="curve"/>
      <point x="1235" y="1020" type="line"/>
      <point x="1142" y="1020" type="line"/>
      <point x="1121" y="1233" type="line"/>
      <point x="1042.3333333333335" y="1319.6666666666665"/>
      <point x="915.6666666666669" y="1375.0"/>
      <point x="749" y="1375" type="curve" smooth="yes"/>
      <point x="418.3333333333335" y="1375.0"/>
      <point x="215.0" y="1119.0"/>
      <point x="215" y="751" type="curve" smooth="yes"/>
      <point x="215" y="718" type="line" smooth="yes"/>
      <point x="215.0" y="339.3333333333335"/>
      <point x="416.3333333333335" y="80.0"/>
      <point x="735" y="80" type="curve" smooth="yes"/>
      <point x="924.333333333333" y="80.0"/>
      <point x="1065.3333333333335" y="139.99999999999994"/>
      <point x="1120" y="196" type="curve"/>
      <point x="1120" y="549" type="line"/>
      <point x="840" y="554" type="line"/>
      <point x="840" y="651" type="line"/>
      <point x="1239" y="651" type="line"/>
    </contour>
  </outline>
</glyph>
<glyph name="J" format="2">
  <advance width="1158"/>
  <unicode hex="004A"/>
  <outline>
    <contour>
      <point x="1080" y="1456" type="line"/>
      <point x="1080" y="1367" type="line"/>
      <point x="917" y="1354" type="line"/>
      <point x="917" y="413" type="line" smooth="yes"/>
      <point x="917" y="214"/>
      <point x="680" y="-21"/>
      <point x="492" y="-21" type="qcurve" smooth="yes"/>
      <point x="287" y="-21"/>
      <point x="49" y="191"/>
      <point x="54" y="395" type="qcurve"/>
      <point x="56" y="401" type="line"/>
      <point x="168" y="401" type="line"/>
      <point x="168" y="243"/>
      <point x="336" y="80"/>
      <point x="492" y="80" type="qcurve" smooth="yes"/>
      <point x="625" y="80"/>
      <point x="797" y="261"/>
      <point x="797" y="413" type="qcurve" smooth="yes"/>
      <point x="797" y="1354" type="line"/>
      <point x="634" y="1367" type="line"/>
      <point x="634" y="1456" type="line"/>
      <point x="917" y="1456" type="line"/>
    </contour>
  </outline>
</glyph>
<glyph name="K" format="2">
  <advance width="1417"/>
  <unicode hex="004B"/>
  <outline>
    <contour>
      <point x="71" y="88" type="line"/>
      <point x="234" y="101" type="line"/>
      <point x="234" y="1354" type="line"/>
      <point x="71" y="1367" type="line"/>
      <point x="71" y="1456" type="line"/>
      <point x="516" y="1456" type="line"/>
      <point x="516" y="1367" type="line"/>
      <point x="353" y="1354" type="line"/>
      <point x="353" y="786" type="line"/>
      <point x="552" y="786" type="line"/>
      <point x="1042" y="1359" type="line"/>
      <point x="902" y="1367" type="line"/>
      <point x="902" y="1456" type="line"/>
      <point x="1309" y="1456" type="line"/>
      <point x="1309" y="1367" type="line"/>
      <point x="1181" y="1355" type="line"/>
      <point x="660" y="740" type="line"/>
      <point x="1222" y="100" type="line"/>
      <point x="1353" y="88" type="line"/>
      <point x="1353" y="0" type="line"/>
      <point x="938" y="0" type="line"/>
      <point x="938" y="88" type="line"/>
      <point x="1076" y="96" type="line"/>
      <point x="553" y="685" type="line"/>
      <point x="353" y="685" type="line"/>
      <point x="353" y="101" type="line"/>
      <point x="516" y="88" type="line"/>
      <point x="516" y="0" type="line"/>
      <point x="71" y="0" type="line"/>
    </contour>
  </outline>
</glyph>
<glyph name="L" format="2">
  <advance width="1178"/>
  <unicode hex="004C"/>
  <outline>
    <contour>
      <point x="71" y="0" type="line"/>
      <point x="71" y="88" type="line"/>
      <point x="234" y="101" type="line"/>
      <point x="234" y="1354" type="line"/>
      <point x="71" y="1367" type="line"/>
      <point x="71" y="1456" type="line"/>
      <point x="234" y="1456" type="line"/>
      <point x="354" y="1456" type="line"/>
      <point x="517" y="1456" type="line"/>
      <point x="517" y="1367" type="line"/>
      <point x="354" y="1354" type="line"/>
      <point x="354" y="101" type="line"/>
      <point x="959" y="101" type="line"/>
      <point x="968" y="306" type="line"/>
      <point x="1074" y="306" type="line"/>
      <point x="1074" y="0" type="line"/>
    </contour>
  </outline>
</glyph>
<glyph name="M" format="1">
  <advance width="1879"/>
  <unicode hex="004D"/>
  <outline>
    <contour>
      <point x="1541" y="1282" type="line"/>
      <point x="980" y="0" type="line"/>
      <point x="897" y="0" type="line"/>
      <point x="337" y="1276" type="line"/>
      <point x="331" y="1275" type="line"/>
      <point x="340" y="643" type="line"/>
      <point x="340" y="101" type="line"/>
      <point x="505" y="88" type="line"/>
      <point x="505" y="0" type="line"/>
      <point x="60" y="0" type="line"/>
      <point x="60" y="88" type="line"/>
      <point x="223" y="101" type="line"/>
      <point x="223" y="1354" type="line"/>
      <point x="60" y="1367" type="line"/>
      <point x="60" y="1456" type="line"/>
      <point x="223" y="1456" type="line"/>
      <point x="380" y="1456" type="line"/>
      <point x="935" y="174" type="line"/>
      <point x="941" y="174" type="line"/>
      <point x="1498" y="1456" type="line"/>
      <point x="1819" y="1456" type="line"/>
      <point x="1819" y="1367" type="line"/>
      <point x="1656" y="1354" type="line"/>
      <point x="1656" y="101" type="line"/>
      <point x="1819" y="88" type="line"/>
      <point x="1819" y="0" type="line"/>
      <point x="1374" y="0" type="line"/>
      <point x="1374" y="88" type="line"/>
      <point x="1537" y="101" type="line"/>
      <point x="1537" y="643" type="line"/>
      <point x="1547" y="1280" type="line"/>
    </contour>
  </outline>
</glyph>
<glyph name="N" format="2">
  <advance width="1536"/>
  <unicode hex="004E"/>
  <outline>
    <contour>
      <point x="1469" y="1456" type="line"/>
      <point x="1469" y="1367" type="line"/>
      <point x="1306" y="1354" type="line"/>
      <point x="1306" y="0" type="line"/>
      <point x="1187" y="0" type="line"/>
      <point x="360" y="1252" type="line"/>
      <point x="354" y="1251" type="line"/>
      <point x="354" y="101" type="line"/>
      <point x="517" y="88" type="line"/>
      <point x="517" y="0" type="line"/>
      <point x="71" y="0" type="line"/>
      <point x="71" y="88" type="line"/>
      <point x="234" y="101" type="line"/>
      <point x="234" y="1354" type="line"/>
      <point x="71" y="1367" type="line"/>
      <point x="71" y="1456" type="line"/>
      <point x="234" y="1456" type="line"/>
      <point x="354" y="1456" type="line"/>
      <point x="1181" y="206" type="line"/>
      <point x="1187" y="207" type="line"/>
      <point x="1187" y="1354" type="line"/>
      <point x="1024" y="1367" type="line"/>
      <point x="1024" y="1456" type="line"/>
      <point x="1306" y="1456" type="line"/>
    </contour>
  </outline>
</glyph>
<glyph name="O" format="2">
  <advance width="1468"/>
  <unicode hex="004F"/>
  <outline>
    <contour>
      <point x="1357" y="718" type="line" smooth="yes"/>
      <point x="1357" y="390"/>
      <point x="1007" y="-21"/>
      <point x="727" y="-21" type="qcurve" smooth="yes"/>
      <point x="451" y="-21"/>
      <point x="106" y="391"/>
      <point x="106" y="718" type="qcurve" smooth="yes"/>
      <point x="106" y="737" type="line" smooth="yes"/>
      <point x="106" y="1064"/>
      <point x="450" y="1477"/>
      <point x="726" y="1477" type="qcurve" smooth="yes"/>
      <point x="1006" y="1477"/>
      <point x="1357" y="1064"/>
      <point x="1357" y="737" type="qcurve" smooth="yes"/>
    </contour>
    <contour>
      <point x="1237" y="739" type="line" smooth="yes"/>
      <point x="1237" y="1022"/>
      <point x="961" y="1372"/>
      <point x="726" y="1372" type="qcurve" smooth="yes"/>
      <point x="495" y="1372"/>
      <point x="226" y="1022"/>
      <point x="226" y="739" type="qcurve" smooth="yes"/>
      <point x="226" y="718" type="line" smooth="yes"/>
      <point x="226" y="433"/>
      <point x="496" y="83"/>
      <point x="727" y="83" type="qcurve" smooth="yes"/>
      <point x="964" y="83"/>
      <point x="1237" y="432"/>
      <point x="1237" y="718" type="qcurve" smooth="yes"/>
    </contour>
  </outline>
</glyph>
<glyph name="P" format="2">
  <advance width="1276"/>
  <unicode hex="0050"/>
  <outline>
    <contour>
      <point x="685" y="1456" type="line" smooth="yes"/>
      <point x="914" y="1456"/>
      <point x="1165" y="1223"/>
      <point x="1165" y="1031" type="qcurve" smooth="yes"/>
      <point x="1165" y="837"/>
      <point x="914" y="605"/>
      <point x="685" y="605" type="qcurve" smooth="yes"/>
      <point x="353" y="605" type="line"/>
      <point x="353" y="101" type="line"/>
      <point x="516" y="88" type="line"/>
      <point x="516" y="0" type="line"/>
      <point x="71" y="0" type="line"/>
      <point x="71" y="88" type="line"/>
      <point x="234" y="101" type="line"/>
      <point x="234" y="1354" type="line"/>
      <point x="71" y="1367" type="line"/>
      <point x="71" y="1456" type="line"/>
      <point x="234" y="1456" type="line"/>
    </contour>
    <contour>
      <point x="353" y="707" type="line"/>
      <point x="685" y="707" type="line" smooth="yes"/>
      <point x="865" y="707"/>
      <point x="1046" y="890"/>
      <point x="1046" y="1029" type="qcurve" smooth="yes"/>
      <point x="1046" y="1169"/>
      <point x="866" y="1354"/>
      <point x="685" y="1354" type="qcurve" smooth="yes"/>
      <point x="353" y="1354" type="line"/>
    </contour>
  </outline>
</glyph>
<glyph name="Q" format="1">
  <advance width="1463"/>
  <unicode hex="0051"/>
  <outline>
    <contour>
      <point x="1357" y="718" type="line" smooth="yes"/>
      <point x="1357.0" y="434.0"/>
      <point x="1248.0" y="203.0"/>
      <point x="1064" y="79" type="curve"/>
      <point x="1365" y="-136" type="line"/>
      <point x="1282" y="-212" type="line"/>
      <point x="954" y="21" type="line"/>
      <point x="883.3333333333333" y="-7.0"/>
      <point x="807.0" y="-21.0"/>
      <point x="727" y="-21" type="curve" smooth="yes"/>
      <point x="359.0" y="-21.0"/>
      <point x="106.0" y="282.0"/>
      <point x="106" y="718" type="curve" smooth="yes"/>
      <point x="106" y="737" type="line" smooth="yes"/>
      <point x="106.0" y="1173.0"/>
      <point x="358.0" y="1477.0"/>
      <point x="726" y="1477" type="curve" smooth="yes"/>
      <point x="1099.3333333333333" y="1477.0"/>
      <point x="1357.0" y="1173.0"/>
      <point x="1357" y="737" type="curve" smooth="yes"/>
    </contour>
    <contour>
      <point x="1237" y="739" type="line" smooth="yes"/>
      <point x="1237.0" y="1116.3333333333333"/>
      <point x="1039.3333333333333" y="1372.0"/>
      <point x="726" y="1372" type="curve" smooth="yes"/>
      <point x="418.0" y="1372.0"/>
      <point x="226.0" y="1116.3333333333333"/>
      <point x="226" y="739" type="curve" smooth="yes"/>
      <point x="226" y="718" type="line" smooth="yes"/>
      <point x="226.0" y="337.99999999999994"/>
      <point x="419.00000000000006" y="83.0"/>
      <point x="727" y="83" type="curve" smooth="yes"/>
      <point x="1043.0" y="83.0"/>
      <point x="1237.0" y="336.66666666666674"/>
      <point x="1237" y="718" type="curve" smooth="yes"/>
    </contour>
  </outline>
</glyph>
<glyph name="R" format="2">
  <advance width="1374"/>
  <unicode hex="0052"/>
  <outline>
    <contour>
      <point x="676" y="1455" type="line" smooth="yes"/>
      <point x="910" y="1455"/>
      <point x="1161" y="1251"/>
      <point x="1161" y="1058" type="qcurve" smooth="yes"/>
      <point x="1161" y="944"/>
      <point x="1027" y="762"/>
      <point x="905" y="721" type="qcurve"/>
      <point x="1040" y="687"/>
      <point x="1159" y="512"/>
      <point x="1159" y="379" type="qcurve" smooth="yes"/>
      <point x="1159" y="246" type="line" smooth="yes"/>
      <point x="1159" y="169"/>
      <point x="1207" y="95"/>
      <point x="1256" y="92" type="qcurve" smooth="yes"/>
      <point x="1305" y="89" type="line"/>
      <point x="1305" y="0" type="line"/>
      <point x="1229" y="0" type="line" smooth="yes"/>
      <point x="1123" y="0"/>
      <point x="1039" y="144"/>
      <point x="1039" y="248" type="qcurve" smooth="yes"/>
      <point x="1039" y="377" type="line" smooth="yes"/>
      <point x="1039" y="509"/>
      <point x="870" y="664"/>
      <point x="719" y="667" type="qcurve" smooth="yes"/>
      <point x="353" y="667" type="line"/>
      <point x="353" y="101" type="line"/>
      <point x="516" y="87" type="line"/>
      <point x="516" y="0" type="line"/>
      <point x="71" y="0" type="line"/>
      <point x="71" y="87" type="line"/>
      <point x="234" y="101" type="line"/>
      <point x="234" y="1353" type="line"/>
      <point x="71" y="1367" type="line"/>
      <point x="71" y="1455" type="line"/>
    </contour>
    <contour>
      <point x="353" y="769" type="line"/>
      <point x="662" y="769" type="line" smooth="yes"/>
      <point x="859" y="769"/>
      <point x="1041" y="927"/>
      <point x="1041" y="1059" type="qcurve" smooth="yes"/>
      <point x="1041" y="1199"/>
      <point x="859" y="1353"/>
      <point x="676" y="1353" type="qcurve" smooth="yes"/>
      <point x="353" y="1353" type="line"/>
    </contour>
  </outline>
</glyph>
<glyph name="S" format="1">
  <advance width="1220"/>
  <unicode hex="0053"/>
  <outline>
    <contour>
      <point x="1078" y="1042" type="line"/>
      <point x="980" y="1042" type="line"/>
      <point x="963" y="1248" type="line"/>
      <point x="891" y="1330"/>
      <point x="785.6666666666667" y="1375.0"/>
      <point x="619" y="1375" type="curve" smooth="yes"/>
      <point x="379.0" y="1375.0"/>
      <point x="258" y="1258"/>
      <point x="258" y="1103" type="curve" smooth="yes"/>
      <point x="258" y="959"/>
      <point x="345" y="874"/>
      <point x="642" y="799" type="curve" smooth="yes"/>
      <point x="955" y="719"/>
      <point x="1122" y="584"/>
      <point x="1122" y="359" type="curve" smooth="yes"/>
      <point x="1122" y="127"/>
      <point x="911.6666666666666" y="-21.0"/>
      <point x="617" y="-21" type="curve" smooth="yes"/>
      <point x="409.0" y="-21.0"/>
      <point x="272" y="29"/>
      <point x="111" y="143" type="curve"/>
      <point x="111" y="408" type="line"/>
      <point x="209" y="408" type="line"/>
      <point x="226" y="195" type="line"/>
      <point x="344" y="115"/>
      <point x="455.66666666666674" y="80.0"/>
      <point x="617" y="80" type="curve" smooth="yes"/>
      <point x="846.3333333333333" y="80.0"/>
      <point x="1002.0" y="190.33333333333337"/>
      <point x="1002" y="357" type="curve" smooth="yes"/>
      <point x="1002.0" y="515.6666666666667"/>
      <point x="898" y="618"/>
      <point x="603" y="695" type="curve" smooth="yes"/>
      <point x="285" y="778"/>
      <point x="138" y="892"/>
      <point x="138" y="1100" type="curve" smooth="yes"/>
      <point x="138" y="1323"/>
      <point x="324.33333333333337" y="1477.0"/>
      <point x="619" y="1477" type="curve" smooth="yes"/>
      <point x="831.0" y="1477.0"/>
      <point x="982" y="1407"/>
      <point x="1078" y="1291" type="curve"/>
    </contour>
  </outline>
</glyph>
<glyph name="T" format="1">
  <advance width="1280"/>
  <unicode hex="0054"/>
  <outline>
    <contour>
      <point x="1218" y="1456" type="line"/>
      <point x="1218" y="1149" type="line"/>
      <point x="1112" y="1149" type="line"/>
      <point x="1103" y="1354" type="line"/>
      <point x="699" y="1354" type="line"/>
      <point x="699" y="101" type="line"/>
      <point x="862" y="88" type="line"/>
      <point x="862" y="0" type="line"/>
      <point x="416" y="0" type="line"/>
      <point x="416" y="88" type="line"/>
      <point x="579" y="101" type="line"/>
      <point x="579" y="1354" type="line"/>
      <point x="175" y="1354" type="line"/>
      <point x="167" y="1149" type="line"/>
      <point x="60" y="1149" type="line"/>
      <point x="60" y="1456" type="line"/>
    </contour>
  </outline>
</glyph>
<glyph name="U" format="2">
  <advance width="1487"/>
  <unicode hex="0055"/>
  <outline>
    <contour>
      <point x="505" y="1456" type="line"/>
      <point x="505" y="1367" type="line"/>
      <point x="342" y="1354" type="line"/>
      <point x="342" y="469" type="line" smooth="yes"/>
      <point x="342" y="283"/>
      <point x="562" y="80"/>
      <point x="739" y="80" type="qcurve" smooth="yes"/>
      <point x="919" y="80"/>
      <point x="1145" y="282"/>
      <point x="1145" y="469" type="qcurve" smooth="yes"/>
      <point x="1145" y="1354" type="line"/>
      <point x="982" y="1367" type="line"/>
      <point x="982" y="1456" type="line"/>
      <point x="1427" y="1456" type="line"/>
      <point x="1427" y="1367" type="line"/>
      <point x="1264" y="1354" type="line"/>
      <point x="1264" y="469" type="line" smooth="yes"/>
      <point x="1264" y="231"/>
      <point x="973" y="-21"/>
      <point x="739" y="-21" type="qcurve" smooth="yes"/>
      <point x="509" y="-21"/>
      <point x="223" y="232"/>
      <point x="223" y="469" type="qcurve" smooth="yes"/>
      <point x="223" y="1354" type="line"/>
      <point x="60" y="1367" type="line"/>
      <point x="60" y="1456" type="line"/>
      <point x="223" y="1456" type="line"/>
      <point x="342" y="1456" type="line"/>
    </contour>
  </outline>
</glyph>
<glyph name="V" format="2">
  <advance width="1455"/>
  <unicode hex="0056"/>
  <outline>
    <contour>
      <point x="430" y="1367" type="line"/>
      <point x="294" y="1356" type="line"/>
      <point x="696" y="246" type="line"/>
      <point x="725" y="149" type="line"/>
      <point x="731" y="149" type="line"/>
      <point x="760" y="246" type="line"/>
      <point x="1161" y="1356" type="line"/>
      <point x="1025" y="1367" type="line"/>
      <point x="1025" y="1456" type="line"/>
      <point x="1403" y="1456" type="line"/>
      <point x="1403" y="1367" type="line"/>
      <point x="1290" y="1358" type="line"/>
      <point x="784" y="0" type="line"/>
      <point x="671" y="0" type="line"/>
      <point x="164" y="1358" type="line"/>
      <point x="52" y="1367" type="line"/>
      <point x="52" y="1456" type="line"/>
      <point x="430" y="1456" type="line"/>
    </contour>
  </outline>
</glyph>
<glyph name="W" format="1">
  <advance width="1983"/>
  <unicode hex="0057"/>
  <outline>
    <contour>
      <point x="1953" y="1367" type="line"/>
      <point x="1844" y="1359" type="line"/>
      <point x="1495" y="0" type="line"/>
      <point x="1382" y="0" type="line"/>
      <point x="1038" y="1117" type="line"/>
      <point x="994" y="1270" type="line"/>
      <point x="988" y="1270" type="line"/>
      <point x="949" y="1117" type="line"/>
      <point x="601" y="0" type="line"/>
      <point x="488" y="0" type="line"/>
      <point x="139" y="1359" type="line"/>
      <point x="30" y="1367" type="line"/>
      <point x="30" y="1456" type="line"/>
      <point x="410" y="1456" type="line"/>
      <point x="410" y="1367" type="line"/>
      <point x="260" y="1356" type="line"/>
      <point x="493" y="412" type="line"/>
      <point x="545" y="190" type="line"/>
      <point x="551" y="190" type="line"/>
      <point x="606" y="412" type="line"/>
      <point x="936" y="1456" type="line"/>
      <point x="1049" y="1456" type="line"/>
      <point x="1373" y="412" type="line"/>
      <point x="1431" y="187" type="line"/>
      <point x="1437" y="188" type="line"/>
      <point x="1490" y="412" type="line"/>
      <point x="1721" y="1356" type="line"/>
      <point x="1573" y="1367" type="line"/>
      <point x="1573" y="1456" type="line"/>
      <point x="1953" y="1456" type="line"/>
    </contour>
  </outline>
</glyph>
<glyph name="Y" format="1">
  <advance width="1423"/>
  <unicode hex="0059"/>
  <outline>
    <contour>
      <point x="455" y="1367" type="line"/>
      <point x="315" y="1357" type="line"/>
      <point x="709" y="647" type="line"/>
      <point x="1105" y="1357" type="line"/>
      <point x="965" y="1367" type="line"/>
      <point x="965" y="1456" type="line"/>
      <point x="1366" y="1456" type="line"/>
      <point x="1366" y="1367" type="line"/>
      <point x="1242" y="1357" type="line"/>
      <point x="768" y="532" type="line"/>
      <point x="768" y="101" type="line"/>
      <point x="931" y="88" type="line"/>
      <point x="931" y="0" type="line"/>
      <point x="485" y="0" type="line"/>
      <point x="485" y="88" type="line"/>
      <point x="648" y="101" type="line"/>
      <point x="648" y="539" type="line"/>
      <point x="178" y="1357" type="line"/>
      <point x="55" y="1367" type="line"/>
      <point x="55" y="1456" type="line"/>
      <point x="455" y="1456" type="line"/>
    </contour>
  </outline>
</glyph>
<glyph name="asciicircum" format="1">
  <advance width="844"/>
  <unicode hex="005E"/>
  <outline>
    <contour>
      <point x="186" y="729" type="line"/>
      <point x="71" y="729" type="line"/>
      <point x="370" y="1456" type="line"/>
      <point x="459" y="1456" type="line"/>
      <point x="758" y="729" type="line"/>
      <point x="642" y="729" type="line"/>
      <point x="445" y="1213" type="line"/>
      <point x="416" y="1318" type="line"/>
      <point x="410" y="1318" type="line"/>
      <point x="380" y="1213" type="line"/>
    </contour>
  </outline>
</glyph>
<glyph name="grave" format="2">
  <advance width="562"/>
  <unicode hex="0060"/>
  <outline>
    <contour>
      <point x="442" y="1210" type="line"/>
      <point x="325" y="1210" type="line"/>
      <point x="84" y="1471" type="line"/>
      <point x="86" y="1476" type="line"/>
      <point x="240" y="1476" type="line"/>
    </contour>
  </outline>
</glyph>
<glyph name="a" format="1">
  <advance width="1130"/>
  <unicode hex="0061"/>
  <outline>
    <contour>
      <point x="844" y="0" type="line"/>
      <point x="828.0" y="73.33333333333333"/>
      <point x="822.0" y="121.33333333333331"/>
      <point x="822" y="176" type="curve"/>
      <point x="742.0" y="62.666666666666686"/>
      <point x="603.6666666666667" y="-21.0"/>
      <point x="437" y="-21" type="curve" smooth="yes"/>
      <point x="225.0" y="-21.0"/>
      <point x="104.0" y="96.33333333333337"/>
      <point x="104" y="283" type="curve" smooth="yes"/>
      <point x="104.0" y="482.99999999999994"/>
      <point x="288.3333333333333" y="609.0"/>
      <point x="583" y="609" type="curve" smooth="yes"/>
      <point x="822" y="609" type="line"/>
      <point x="822" y="752" type="line" smooth="yes"/>
      <point x="822.0" y="906.6666666666667"/>
      <point x="717.6666666666667" y="1000.0"/>
      <point x="539" y="1000" type="curve" smooth="yes"/>
      <point x="419.0" y="1000.0"/>
      <point x="316.66666666666663" y="965.0"/>
      <point x="250" y="909" type="curve"/>
      <point x="240" y="764" type="line"/>
      <point x="141" y="764" type="line"/>
      <point x="142" y="972" type="line"/>
      <point x="241.99999999999997" y="1049.3333333333333"/>
      <point x="386.66666666666674" y="1102.0"/>
      <point x="544" y="1102" type="curve" smooth="yes"/>
      <point x="782.6666666666667" y="1102.0"/>
      <point x="941.0" y="976.6666666666667"/>
      <point x="941" y="750" type="curve" smooth="yes"/>
      <point x="941" y="218" type="line" smooth="yes"/>
      <point x="941.0" y="174.0"/>
      <point x="942.3333333333333" y="133.66666666666666"/>
      <point x="949" y="95" type="curve"/>
      <point x="1057" y="88" type="line"/>
      <point x="1057" y="0" type="line"/>
    </contour>
    <contour>
      <point x="450" y="85" type="curve" smooth="yes"/>
      <point x="623.3333333333333" y="85.0"/>
      <point x="763.3333333333333" y="173.33333333333337"/>
      <point x="822" y="300" type="curve"/>
      <point x="822" y="517" type="line"/>
      <point x="581" y="517" type="line" smooth="yes"/>
      <point x="363.66666666666674" y="517.0"/>
      <point x="223.0" y="416.33333333333326"/>
      <point x="223" y="279" type="curve" smooth="yes"/>
      <point x="223.0" y="163.0"/>
      <point x="308.66666666666674" y="85.0"/>
    </contour>
  </outline>
</glyph>
<glyph name="b" format="2">
  <advance width="1133"/>
  <unicode hex="0062"/>
  <outline>
    <contour>
      <point x="1027" y="511" type="line" smooth="yes"/>
      <point x="1027" y="268"/>
      <point x="807" y="-21"/>
      <point x="614" y="-21" type="qcurve" smooth="yes"/>
      <point x="495" y="-21"/>
      <point x="323" y="74"/>
      <point x="270" y="163" type="qcurve"/>
      <point x="257" y="0" type="line"/>
      <point x="155" y="0" type="line"/>
      <point x="155" y="1458" type="line"/>
      <point x="-8" y="1471" type="line"/>
      <point x="-8" y="1560" type="line"/>
      <point x="274" y="1560" type="line"/>
      <point x="274" y="912" type="line"/>
      <point x="328" y="1003"/>
      <point x="496" y="1102"/>
      <point x="612" y="1102" type="qcurve" smooth="yes"/>
      <point x="807" y="1102"/>
      <point x="1027" y="791"/>
      <point x="1027" y="532" type="qcurve" smooth="yes"/>
    </contour>
    <contour>
      <point x="906" y="532" type="line" smooth="yes"/>
      <point x="906" y="739"/>
      <point x="746" y="998"/>
      <point x="590" y="998" type="qcurve" smooth="yes"/>
      <point x="464" y="998"/>
      <point x="311" y="874"/>
      <point x="274" y="777" type="qcurve"/>
      <point x="274" y="288" type="line"/>
      <point x="314" y="194"/>
      <point x="473" y="83"/>
      <point x="592" y="83" type="qcurve" smooth="yes"/>
      <point x="748" y="83"/>
      <point x="906" y="315"/>
      <point x="906" y="511" type="qcurve" smooth="yes"/>
    </contour>
  </outline>
</glyph>
<glyph name="c" format="1">
  <advance width="1097"/>
  <unicode hex="0063"/>
  <outline>
    <contour>
      <point x="562" y="80" type="curve" smooth="yes"/>
      <point x="721" y="80"/>
      <point x="843" y="172"/>
      <point x="863" y="331" type="curve"/>
      <point x="969" y="331" type="line"/>
      <point x="971" y="325" type="line"/>
      <point x="946" y="127"/>
      <point x="812" y="-21"/>
      <point x="562" y="-21" type="curve" smooth="yes"/>
      <point x="269" y="-21"/>
      <point x="97.0" y="202.66666666666674"/>
      <point x="97" y="520" type="curve" smooth="yes"/>
      <point x="97" y="562" type="line" smooth="yes"/>
      <point x="97.0" y="876.6666666666664"/>
      <point x="285" y="1102"/>
      <point x="564" y="1102" type="curve" smooth="yes"/>
      <point x="725" y="1102"/>
      <point x="865" y="1034"/>
      <point x="943" y="927" type="curve"/>
      <point x="948" y="691" type="line"/>
      <point x="848" y="691" type="line"/>
      <point x="829" y="887" type="line"/>
      <point x="774" y="950"/>
      <point x="679" y="1000"/>
      <point x="571" y="1000" type="curve" smooth="yes"/>
      <point x="355" y="1000"/>
      <point x="217.0" y="814.0"/>
      <point x="217" y="562" type="curve" smooth="yes"/>
      <point x="217" y="520" type="line" smooth="yes"/>
      <point x="217.0" y="263.99999999999994"/>
      <point x="339" y="80"/>
    </contour>
  </outline>
</glyph>
<glyph name="d" format="1">
  <advance width="1216"/>
  <unicode hex="0064"/>
  <outline>
    <contour>
      <point x="849" y="156" type="line"/>
      <point x="777.0" y="42.666666666666686"/>
      <point x="663.3333333333333" y="-21.0"/>
      <point x="510" y="-21" type="curve" smooth="yes"/>
      <point x="251.33333333333337" y="-21.0"/>
      <point x="97.0" y="188.33333333333337"/>
      <point x="97" y="511" type="curve" smooth="yes"/>
      <point x="97" y="532" type="line" smooth="yes"/>
      <point x="97.0" y="877.3333333333335"/>
      <point x="250.66666666666686" y="1102.0"/>
      <point x="512" y="1102" type="curve" smooth="yes"/>
      <point x="662.6666666666667" y="1102.0"/>
      <point x="772.6666666666667" y="1036.3333333333333"/>
      <point x="846" y="919" type="curve"/>
      <point x="846" y="1458" type="line"/>
      <point x="683" y="1471" type="line"/>
      <point x="683" y="1560" type="line"/>
      <point x="846" y="1560" type="line"/>
      <point x="966" y="1560" type="line"/>
      <point x="966" y="101" type="line"/>
      <point x="1129" y="88" type="line"/>
      <point x="1129" y="0" type="line"/>
      <point x="859" y="0" type="line"/>
    </contour>
    <contour>
      <point x="218" y="511" type="line" smooth="yes"/>
      <point x="218.0" y="249.66666666666669"/>
      <point x="322.33333333333337" y="83.0"/>
      <point x="533" y="83" type="curve" smooth="yes"/>
      <point x="686.3333333333333" y="83.0"/>
      <point x="788.6666666666667" y="156.66666666666669"/>
      <point x="846" y="278" type="curve"/>
      <point x="846" y="790" type="line"/>
      <point x="792.6666666666667" y="912.6666666666667"/>
      <point x="695.0" y="998.0"/>
      <point x="535" y="998" type="curve" smooth="yes"/>
      <point x="324.33333333333337" y="998.0"/>
      <point x="218.0" y="808.0"/>
      <point x="218" y="532" type="curve" smooth="yes"/>
    </contour>
  </outline>
</glyph>
<glyph name="e" format="2">
  <advance width="1102"/>
  <unicode hex="0065"/>
  <outline>
    <contour>
      <point x="574" y="-21" type="qcurve" smooth="yes"/>
      <point x="370" y="-21"/>
      <point x="102" y="278"/>
      <point x="102" y="509" type="qcurve" smooth="yes"/>
      <point x="102" y="564" type="line" smooth="yes"/>
      <point x="102" y="796"/>
      <point x="369" y="1102"/>
      <point x="558" y="1102" type="qcurve" smooth="yes"/>
      <point x="757" y="1102"/>
      <point x="985" y="850"/>
      <point x="985" y="640" type="qcurve" smooth="yes"/>
      <point x="985" y="538" type="line"/>
      <point x="221" y="538" type="line"/>
      <point x="221" y="509" type="line" smooth="yes"/>
      <point x="221" y="327"/>
      <point x="416" y="80"/>
      <point x="574" y="80" type="qcurve" smooth="yes"/>
      <point x="685" y="80"/>
      <point x="843" y="142"/>
      <point x="899" y="200" type="qcurve"/>
      <point x="950" y="118" type="line"/>
      <point x="889" y="54"/>
      <point x="703" y="-21"/>
    </contour>
    <contour>
      <point x="558" y="1000" type="qcurve" smooth="yes"/>
      <point x="426" y="1000"/>
      <point x="245" y="797"/>
      <point x="230" y="644" type="qcurve"/>
      <point x="232" y="639" type="line"/>
      <point x="866" y="639" type="line"/>
      <point x="866" y="669" type="line" smooth="yes"/>
      <point x="866" y="810"/>
      <point x="700" y="1000"/>
    </contour>
  </outline>
</glyph>
<glyph name="f" format="2">
  <advance width="725"/>
  <unicode hex="0066"/>
  <outline>
    <contour>
      <point x="80" y="984" type="line"/>
      <point x="80" y="1082" type="line"/>
      <point x="259" y="1082" type="line"/>
      <point x="259" y="1240" type="line" smooth="yes"/>
      <point x="259" y="1403"/>
      <point x="423" y="1581"/>
      <point x="570" y="1581" type="qcurve" smooth="yes"/>
      <point x="602" y="1581"/>
      <point x="670" y="1571"/>
      <point x="705" y="1562" type="qcurve"/>
      <point x="690" y="1463" type="line"/>
      <point x="666" y="1469"/>
      <point x="616" y="1476"/>
      <point x="582" y="1476" type="qcurve" smooth="yes"/>
      <point x="484" y="1476"/>
      <point x="379" y="1352"/>
      <point x="379" y="1240" type="qcurve" smooth="yes"/>
      <point x="379" y="1082" type="line"/>
      <point x="637" y="1082" type="line"/>
      <point x="637" y="984" type="line"/>
      <point x="379" y="984" type="line"/>
      <point x="379" y="101" type="line"/>
      <point x="542" y="88" type="line"/>
      <point x="542" y="0" type="line"/>
      <point x="96" y="0" type="line"/>
      <point x="96" y="88" type="line"/>
      <point x="259" y="101" type="line"/>
      <point x="259" y="984" type="line"/>
    </contour>
  </outline>
</glyph>
<glyph name="g" format="1">
  <advance width="1148"/>
  <unicode hex="0067"/>
  <outline>
    <contour>
      <point x="102" y="532" type="line" smooth="yes"/>
      <point x="102.0" y="877.3333333333333"/>
      <point x="257.6666666666668" y="1102.0"/>
      <point x="519" y="1102" type="curve" smooth="yes"/>
      <point x="672.3333333333333" y="1102.0"/>
      <point x="784.6666666666667" y="1031.6666666666667"/>
      <point x="858" y="909" type="curve"/>
      <point x="872" y="1082" type="line"/>
      <point x="973" y="1082" type="line"/>
      <point x="973" y="14" type="line" smooth="yes"/>
      <point x="973.0" y="-264.6666666666666"/>
      <point x="814.3333333333333" y="-437.0"/>
      <point x="545" y="-437" type="curve" smooth="yes"/>
      <point x="441.0" y="-437.0"/>
      <point x="312.0" y="-410.0"/>
      <point x="224" y="-366" type="curve"/>
      <point x="256" y="-265" type="line"/>
      <point x="342.66666666666663" y="-306.33333333333337"/>
      <point x="437.66666666666663" y="-330.0"/>
      <point x="543" y="-330" type="curve" smooth="yes"/>
      <point x="748.3333333333333" y="-330.0"/>
      <point x="853.0" y="-202.00000000000006"/>
      <point x="853" y="14" type="curve" smooth="yes"/>
      <point x="853" y="151" type="line"/>
      <point x="779.6666666666667" y="40.33333333333334"/>
      <point x="667.6666666666667" y="-21.0"/>
      <point x="517" y="-21" type="curve" smooth="yes"/>
      <point x="257.0" y="-21.0"/>
      <point x="102.0" y="188.33333333333337"/>
      <point x="102" y="511" type="curve" smooth="yes"/>
    </contour>
    <contour>
      <point x="222" y="511" type="line" smooth="yes"/>
      <point x="222.0" y="251.0"/>
      <point x="328.33333333333337" y="83.0"/>
      <point x="539" y="83" type="curve" smooth="yes"/>
      <point x="695.0" y="83.0"/>
      <point x="797.0" y="158.0"/>
      <point x="853" y="282" type="curve"/>
      <point x="853" y="784" type="line"/>
      <point x="799.6666666666667" y="910.6666666666667"/>
      <point x="703.6666666666667" y="998.0"/>
      <point x="541" y="998" type="curve" smooth="yes"/>
      <point x="330.3333333333334" y="998.0"/>
      <point x="222.0" y="806.6666666666665"/>
      <point x="222" y="532" type="curve" smooth="yes"/>
    </contour>
  </outline>
</glyph>
<glyph name="h" format="2">
  <advance width="1298"/>
  <unicode hex="0068"/>
  <outline>
    <contour>
      <point x="62" y="1471" type="line"/>
      <point x="62" y="1560" type="line"/>
      <point x="344" y="1560" type="line"/>
      <point x="344" y="897" type="line"/>
      <point x="398" y="994"/>
      <point x="578" y="1102"/>
      <point x="698" y="1102" type="qcurve" smooth="yes"/>
      <point x="869" y="1102"/>
      <point x="1052" y="890"/>
      <point x="1052" y="667" type="qcurve" smooth="yes"/>
      <point x="1052" y="101" type="line"/>
      <point x="1215" y="88" type="line"/>
      <point x="1215" y="0" type="line"/>
      <point x="769" y="0" type="line"/>
      <point x="769" y="88" type="line"/>
      <point x="932" y="101" type="line"/>
      <point x="932" y="669" type="line" smooth="yes"/>
      <point x="932" y="845"/>
      <point x="793" y="998"/>
      <point x="671" y="998" type="qcurve" smooth="yes"/>
      <point x="548" y="998"/>
      <point x="383" y="869"/>
      <point x="344" y="762" type="qcurve"/>
      <point x="344" y="101" type="line"/>
      <point x="507" y="88" type="line"/>
      <point x="507" y="0" type="line"/>
      <point x="62" y="0" type="line"/>
      <point x="62" y="88" type="line"/>
      <point x="225" y="101" type="line"/>
      <point x="225" y="1458" type="line"/>
    </contour>
  </outline>
</glyph>
<glyph name="i" format="2">
  <advance width="638"/>
  <unicode hex="0069"/>
  <outline>
    <contour>
      <point x="89" y="88" type="line"/>
      <point x="252" y="101" type="line"/>
      <point x="252" y="980" type="line"/>
      <point x="89" y="993" type="line"/>
      <point x="89" y="1082" type="line"/>
      <point x="371" y="1082" type="line"/>
      <point x="371" y="101" type="line"/>
      <point x="534" y="88" type="line"/>
      <point x="534" y="0" type="line"/>
      <point x="89" y="0" type="line"/>
    </contour>
    <contour>
      <point x="371" y="1392" type="line"/>
      <point x="252" y="1392" type="line"/>
      <point x="252" y="1560" type="line"/>
      <point x="371" y="1560" type="line"/>
    </contour>
  </outline>
</glyph>
<glyph name="j" format="2">
  <advance width="562"/>
  <unicode hex="006A"/>
  <outline>
    <contour>
      <point x="402" y="-89" type="line" smooth="yes"/>
      <point x="402" y="-256"/>
      <point x="242" y="-437"/>
      <point x="99" y="-437" type="qcurve" smooth="yes"/>
      <point x="68" y="-437"/>
      <point x="15" y="-427"/>
      <point x="-13" y="-418" type="qcurve"/>
      <point x="0" y="-317" type="line"/>
      <point x="15" y="-322"/>
      <point x="70" y="-332"/>
      <point x="92" y="-332" type="qcurve" smooth="yes"/>
      <point x="182" y="-332"/>
      <point x="282" y="-209"/>
      <point x="282" y="-89" type="qcurve" smooth="yes"/>
      <point x="282" y="980" type="line"/>
      <point x="119" y="993" type="line"/>
      <point x="119" y="1082" type="line"/>
      <point x="402" y="1082" type="line"/>
    </contour>
    <contour>
      <point x="396" y="1396" type="line"/>
      <point x="276" y="1396" type="line"/>
      <point x="276" y="1560" type="line"/>
      <point x="396" y="1560" type="line"/>
    </contour>
  </outline>
</glyph>
<glyph name="k" format="1">
  <advance width="1194"/>
  <unicode hex="006B"/>
  <outline>
    <contour>
      <point x="62.0" y="1471.0" type="line"/>
      <point x="62.0" y="1560.0" type="line"/>
      <point x="344.0" y="1560.0" type="line"/>
      <point x="344.0" y="630.0" type="line"/>
      <point x="471.0" y="630.0" type="line"/>
      <point x="800.0" y="981.0" type="line"/>
      <point x="798.0" y="986.0" type="line"/>
      <point x="699.0" y="993.0" type="line"/>
      <point x="699.0" y="1082.0" type="line"/>
      <point x="1080.0" y="1082.0" type="line"/>
      <point x="1080.0" y="993.0" type="line"/>
      <point x="954.0" y="981.0" type="line"/>
      <point x="584.0" y="588.0" type="line"/>
      <point x="1005.0" y="99.0" type="line"/>
      <point x="1125.0" y="88.0" type="line"/>
      <point x="1125.0" y="0.0" type="line"/>
      <point x="745.0" y="0.0" type="line"/>
      <point x="745.0" y="88.0" type="line"/>
      <point x="856" y="95" type="line"/>
      <point x="859.0" y="95.0" type="line"/>
      <point x="483.0" y="527.0" type="line"/>
      <point x="344.0" y="527.0" type="line"/>
      <point x="344.0" y="101.0" type="line"/>
      <point x="507.0" y="88.0" type="line"/>
      <point x="507.0" y="0.0" type="line"/>
      <point x="62.0" y="0.0" type="line"/>
      <point x="62.0" y="88.0" type="line"/>
      <point x="225.0" y="101.0" type="line"/>
      <point x="225.0" y="1458.0" type="line"/>
    </contour>
  </outline>
</glyph>
<glyph name="l" format="1">
  <advance width="610"/>
  <unicode hex="006C"/>
  <outline>
    <contour>
      <point x="73" y="1471" type="line"/>
      <point x="73" y="1560" type="line"/>
      <point x="355" y="1560" type="line"/>
      <point x="355" y="101" type="line"/>
      <point x="518" y="88" type="line"/>
      <point x="518" y="0" type="line"/>
      <point x="73" y="0" type="line"/>
      <point x="73" y="88" type="line"/>
      <point x="236" y="101" type="line"/>
      <point x="236" y="1458" type="line"/>
    </contour>
  </outline>
</glyph>
<glyph name="m" format="1">
  <advance width="1959"/>
  <unicode hex="006D"/>
  <outline>
    <contour>
      <point x="71" y="993" type="line"/>
      <point x="71" y="1082" type="line"/>
      <point x="340" y="1082" type="line"/>
      <point x="351" y="903" type="line"/>
      <point x="420.33333333333337" y="1029.6666666666667"/>
      <point x="537.0" y="1102.0"/>
      <point x="697" y="1102" type="curve" smooth="yes"/>
      <point x="862.3333333333334" y="1102.0"/>
      <point x="975.0" y="1022.3333333333331"/>
      <point x="1023" y="857" type="curve"/>
      <point x="1088.3333333333335" y="1009.0000000000001"/>
      <point x="1209.6666666666665" y="1102.0"/>
      <point x="1383" y="1102" type="curve" smooth="yes"/>
      <point x="1613.6666666666665" y="1102.0"/>
      <point x="1745.0" y="952.3333333333335"/>
      <point x="1745" y="631" type="curve" smooth="yes"/>
      <point x="1745" y="102" type="line"/>
      <point x="1908" y="88" type="line"/>
      <point x="1908" y="0" type="line"/>
      <point x="1461" y="0" type="line"/>
      <point x="1461" y="88" type="line"/>
      <point x="1624" y="102" type="line"/>
      <point x="1624" y="633" type="line" smooth="yes"/>
      <point x="1624.0" y="899.6666666666665"/>
      <point x="1525.0" y="998.0"/>
      <point x="1357" y="998" type="curve" smooth="yes"/>
      <point x="1170.3333333333335" y="998.0"/>
      <point x="1072.0" y="866.0"/>
      <point x="1048" y="682" type="curve"/>
      <point x="1048.0" y="671.3333333333333"/>
      <point x="1049.0" y="663.6666666666667"/>
      <point x="1049" y="649" type="curve" smooth="yes"/>
      <point x="1049" y="101" type="line"/>
      <point x="1212" y="88" type="line"/>
      <point x="1212" y="0" type="line"/>
      <point x="766" y="0" type="line"/>
      <point x="766" y="88" type="line"/>
      <point x="929" y="101" type="line"/>
      <point x="929" y="633" type="line" smooth="yes"/>
      <point x="929.0" y="894.3333333333333"/>
      <point x="827.6666666666667" y="998.0"/>
      <point x="661" y="998" type="curve" smooth="yes"/>
      <point x="490.33333333333326" y="998.0"/>
      <point x="394.0" y="905.3333333333333"/>
      <point x="354" y="760" type="curve"/>
      <point x="354" y="101" type="line"/>
      <point x="517" y="88" type="line"/>
      <point x="517" y="0" type="line"/>
      <point x="71" y="0" type="line"/>
      <point x="71" y="88" type="line"/>
      <point x="234" y="101" type="line"/>
      <point x="234" y="980" type="line"/>
    </contour>
  </outline>
</glyph>
<glyph name="n" format="2">
  <advance width="1319"/>
  <unicode hex="006E"/>
  <outline>
    <contour>
      <point x="75" y="88" type="line"/>
      <point x="238" y="101" type="line"/>
      <point x="238" y="980" type="line"/>
      <point x="75" y="993" type="line"/>
      <point x="75" y="1082" type="line"/>
      <point x="344" y="1082" type="line"/>
      <point x="355" y="893" type="line"/>
      <point x="407" y="993"/>
      <point x="584" y="1102"/>
      <point x="705" y="1102" type="qcurve" smooth="yes"/>
      <point x="881" y="1102"/>
      <point x="1065" y="887"/>
      <point x="1065" y="659" type="qcurve" smooth="yes"/>
      <point x="1065" y="101" type="line"/>
      <point x="1228" y="88" type="line"/>
      <point x="1228" y="0" type="line"/>
      <point x="782" y="0" type="line"/>
      <point x="782" y="88" type="line"/>
      <point x="945" y="101" type="line"/>
      <point x="945" y="658" type="line" smooth="yes"/>
      <point x="945" y="844"/>
      <point x="806" y="998"/>
      <point x="678" y="998" type="qcurve" smooth="yes"/>
      <point x="552" y="998"/>
      <point x="393" y="865"/>
      <point x="358" y="755" type="qcurve"/>
      <point x="358" y="101" type="line"/>
      <point x="521" y="88" type="line"/>
      <point x="521" y="0" type="line"/>
      <point x="75" y="0" type="line"/>
    </contour>
  </outline>
</glyph>
<glyph name="o" format="2">
  <advance width="1152"/>
  <unicode hex="006F"/>
  <outline>
    <contour>
      <point x="97" y="557" type="line" smooth="yes"/>
      <point x="97" y="796"/>
      <point x="359" y="1102"/>
      <point x="575" y="1102" type="qcurve" smooth="yes"/>
      <point x="792" y="1102"/>
      <point x="1054" y="796"/>
      <point x="1054" y="557" type="qcurve" smooth="yes"/>
      <point x="1054" y="524" type="line" smooth="yes"/>
      <point x="1054" y="284"/>
      <point x="793" y="-21"/>
      <point x="577" y="-21" type="qcurve" smooth="yes"/>
      <point x="359" y="-21"/>
      <point x="97" y="284"/>
      <point x="97" y="524" type="qcurve" smooth="yes"/>
    </contour>
    <contour>
      <point x="217" y="524" type="line" smooth="yes"/>
      <point x="217" y="336"/>
      <point x="407" y="80"/>
      <point x="577" y="80" type="qcurve" smooth="yes"/>
      <point x="744" y="80"/>
      <point x="934" y="336"/>
      <point x="934" y="524" type="qcurve" smooth="yes"/>
      <point x="934" y="557" type="line" smooth="yes"/>
      <point x="934" y="742"/>
      <point x="743" y="1000"/>
      <point x="575" y="1000" type="qcurve" smooth="yes"/>
      <point x="407" y="1000"/>
      <point x="217" y="742"/>
      <point x="217" y="557" type="qcurve" smooth="yes"/>
    </contour>
  </outline>
</glyph>
<glyph name="p" format="1">
  <advance width="1197"/>
  <unicode hex="0070"/>
  <outline>
    <contour>
      <point x="65" y="993" type="line"/>
      <point x="65" y="1082" type="line"/>
      <point x="328" y="1082" type="line"/>
      <point x="343" y="914" type="line"/>
      <point x="416.33333333333337" y="1034.0"/>
      <point x="530.6666666666667" y="1102.0"/>
      <point x="684" y="1102" type="curve" smooth="yes"/>
      <point x="943.9999999999998" y="1102.0"/>
      <point x="1099.0" y="877.3333333333335"/>
      <point x="1099" y="532" type="curve" smooth="yes"/>
      <point x="1099" y="511" type="line" smooth="yes"/>
      <point x="1099.0" y="186.99999999999983"/>
      <point x="943.3333333333331" y="-21.0"/>
      <point x="686" y="-21" type="curve" smooth="yes"/>
      <point x="534.0" y="-21.0"/>
      <point x="419.0" y="39.33333333333334"/>
      <point x="347" y="146" type="curve"/>
      <point x="347" y="-314" type="line"/>
      <point x="510" y="-327" type="line"/>
      <point x="510" y="-416" type="line"/>
      <point x="65" y="-416" type="line"/>
      <point x="65" y="-327" type="line"/>
      <point x="228" y="-314" type="line"/>
      <point x="228" y="980" type="line"/>
    </contour>
    <contour>
      <point x="979" y="532" type="line" smooth="yes"/>
      <point x="979.0" y="806.6666666666665"/>
      <point x="867.6666666666667" y="998.0"/>
      <point x="657" y="998" type="curve" smooth="yes"/>
      <point x="495.66666666666674" y="998.0"/>
      <point x="397.66666666666663" y="913.6666666666667"/>
      <point x="347" y="791" type="curve"/>
      <point x="347" y="271" type="line"/>
      <point x="401.66666666666663" y="152.33333333333343"/>
      <point x="504.3333333333332" y="80.0"/>
      <point x="659" y="80" type="curve" smooth="yes"/>
      <point x="868.3333333333333" y="80.0"/>
      <point x="979.0" y="250.99999999999994"/>
      <point x="979" y="511" type="curve" smooth="yes"/>
    </contour>
  </outline>
</glyph>
<glyph name="q" format="2">
  <advance width="1144"/>
  <unicode hex="0071"/>
  <outline>
    <contour>
      <point x="97" y="532" type="line" smooth="yes"/>
      <point x="97" y="791"/>
      <point x="316" y="1102"/>
      <point x="512" y="1102" type="qcurve" smooth="yes"/>
      <point x="624" y="1102"/>
      <point x="789" y="1009"/>
      <point x="844" y="922" type="qcurve"/>
      <point x="856" y="1082" type="line"/>
      <point x="961" y="1082" type="line"/>
      <point x="961" y="-314" type="line"/>
      <point x="1124" y="-327" type="line"/>
      <point x="1124" y="-416" type="line"/>
      <point x="678" y="-416" type="line"/>
      <point x="678" y="-327" type="line"/>
      <point x="841" y="-314" type="line"/>
      <point x="841" y="142" type="line"/>
      <point x="786" y="63"/>
      <point x="620" y="-21"/>
      <point x="510" y="-21" type="qcurve" smooth="yes"/>
      <point x="316" y="-21"/>
      <point x="97" y="269"/>
      <point x="97" y="511" type="qcurve" smooth="yes"/>
    </contour>
    <contour>
      <point x="218" y="511" type="line" smooth="yes"/>
      <point x="218" y="315"/>
      <point x="375" y="80"/>
      <point x="533" y="80" type="qcurve" smooth="yes"/>
      <point x="645" y="80"/>
      <point x="798" y="181"/>
      <point x="841" y="269" type="qcurve"/>
      <point x="841" y="797" type="line"/>
      <point x="799" y="886"/>
      <point x="650" y="1000"/>
      <point x="535" y="1000" type="qcurve" smooth="yes"/>
      <point x="377" y="1000"/>
      <point x="218" y="739"/>
      <point x="218" y="532" type="qcurve" smooth="yes"/>
    </contour>
  </outline>
</glyph>
<glyph name="r" format="1">
  <advance width="823"/>
  <unicode hex="0072"/>
  <outline>
    <contour>
      <point x="356" y="1082" type="line"/>
      <point x="371" y="902" type="line"/>
      <point x="371" y="889" type="line"/>
      <point x="432.33333333333337" y="1022.3333333333333"/>
      <point x="539.6666666666667" y="1102.0"/>
      <point x="685" y="1102" type="curve" smooth="yes"/>
      <point x="715.6666666666667" y="1102.0"/>
      <point x="746.3333333333333" y="1096.3333333333335"/>
      <point x="765" y="1091" type="curve"/>
      <point x="749" y="979" type="line"/>
      <point x="660" y="985" type="line"/>
      <point x="509.33333333333326" y="985.0"/>
      <point x="412.33333333333337" y="895.0"/>
      <point x="371" y="747" type="curve"/>
      <point x="371" y="101" type="line"/>
      <point x="534" y="88" type="line"/>
      <point x="534" y="0" type="line"/>
      <point x="89" y="0" type="line"/>
      <point x="89" y="88" type="line"/>
      <point x="252" y="101" type="line"/>
      <point x="252" y="980" type="line"/>
      <point x="89" y="993" type="line"/>
      <point x="89" y="1082" type="line"/>
      <point x="252" y="1082" type="line"/>
    </contour>
  </outline>
</glyph>
<glyph name="s" format="2">
  <advance width="1025"/>
  <unicode hex="0073"/>
  <outline>
    <contour>
      <point x="882" y="748" type="line"/>
      <point x="784" y="748" type="line"/>
      <point x="770" y="901" type="line"/>
      <point x="725" y="948"/>
      <point x="588" y="1000"/>
      <point x="499" y="1000" type="qcurve" smooth="yes"/>
      <point x="368" y="1000"/>
      <point x="237" y="887"/>
      <point x="237" y="811" type="qcurve" smooth="yes"/>
      <point x="237" y="736"/>
      <point x="350" y="638"/>
      <point x="519" y="601" type="qcurve" smooth="yes"/>
      <point x="712" y="558"/>
      <point x="904" y="409"/>
      <point x="904" y="281" type="qcurve" smooth="yes"/>
      <point x="904" y="146"/>
      <point x="685" y="-21"/>
      <point x="505" y="-21" type="qcurve" smooth="yes"/>
      <point x="385" y="-21"/>
      <point x="188" y="46"/>
      <point x="116" y="107" type="qcurve"/>
      <point x="116" y="325" type="line"/>
      <point x="213" y="325" type="line"/>
      <point x="230" y="171" type="line"/>
      <point x="278" y="123"/>
      <point x="425" y="80"/>
      <point x="505" y="80" type="qcurve" smooth="yes"/>
      <point x="635" y="80"/>
      <point x="785" y="194"/>
      <point x="785" y="275" type="qcurve" smooth="yes"/>
      <point x="785" y="351"/>
      <point x="660" y="465"/>
      <point x="497" y="501" type="qcurve" smooth="yes"/>
      <point x="304" y="543"/>
      <point x="117" y="682"/>
      <point x="117" y="807" type="qcurve" smooth="yes"/>
      <point x="117" y="931"/>
      <point x="327" y="1102"/>
      <point x="499" y="1102" type="qcurve" smooth="yes"/>
      <point x="618" y="1102"/>
      <point x="815" y="1029"/>
      <point x="877" y="967" type="qcurve"/>
    </contour>
  </outline>
</glyph>
<glyph name="t" format="1">
  <advance width="733"/>
  <unicode hex="0074"/>
  <outline>
    <contour>
      <point x="372" y="1359" type="line"/>
      <point x="372" y="1082" type="line"/>
      <point x="610" y="1082" type="line"/>
      <point x="610" y="984" type="line"/>
      <point x="372" y="984" type="line"/>
      <point x="372" y="279" type="line" smooth="yes"/>
      <point x="372.0" y="137.66666666666669"/>
      <point x="427.66666666666663" y="84.0"/>
      <point x="513" y="84" type="curve" smooth="yes"/>
      <point x="551.6666666666667" y="84.0"/>
      <point x="585.0" y="87.0"/>
      <point x="633" y="95" type="curve"/>
      <point x="651" y="6" type="line"/>
      <point x="611.0" y="-11.333333333333332"/>
      <point x="549.3333333333333" y="-21.0"/>
      <point x="492" y="-21" type="curve" smooth="yes"/>
      <point x="340.0" y="-21.0"/>
      <point x="251.0" y="71.0"/>
      <point x="251" y="279" type="curve" smooth="yes"/>
      <point x="251" y="984" type="line"/>
      <point x="65" y="984" type="line"/>
      <point x="65" y="1082" type="line"/>
      <point x="251" y="1082" type="line"/>
      <point x="251" y="1359" type="line"/>
    </contour>
  </outline>
</glyph>
<glyph name="u" format="2">
  <advance width="1232"/>
  <unicode hex="0075"/>
  <outline>
    <contour>
      <point x="892" y="178" type="line"/>
      <point x="841" y="83"/>
      <point x="664" y="-21"/>
      <point x="544" y="-21" type="qcurve" smooth="yes"/>
      <point x="373" y="-21"/>
      <point x="180" y="211"/>
      <point x="180" y="455" type="qcurve" smooth="yes"/>
      <point x="180" y="980" type="line"/>
      <point x="46" y="993" type="line"/>
      <point x="46" y="1082" type="line"/>
      <point x="180" y="1082" type="line"/>
      <point x="299" y="1082" type="line"/>
      <point x="299" y="453" type="line" smooth="yes"/>
      <point x="299" y="255"/>
      <point x="434" y="83"/>
      <point x="558" y="83" type="qcurve" smooth="yes"/>
      <point x="694" y="83"/>
      <point x="855" y="203"/>
      <point x="888" y="309" type="qcurve"/>
      <point x="888" y="980" type="line"/>
      <point x="734" y="993" type="line"/>
      <point x="734" y="1082" type="line"/>
      <point x="888" y="1082" type="line"/>
      <point x="1008" y="1082" type="line"/>
      <point x="1008" y="101" type="line"/>
      <point x="1153" y="88" type="line"/>
      <point x="1153" y="0" type="line"/>
      <point x="903" y="0" type="line"/>
    </contour>
  </outline>
</glyph>
<glyph name="w" format="1">
  <advance width="1711"/>
  <unicode hex="0077"/>
  <outline>
    <contour>
      <point x="1673" y="993" type="line"/>
      <point x="1556" y="985" type="line"/>
      <point x="1262" y="0" type="line"/>
      <point x="1153" y="0" type="line"/>
      <point x="917" y="734" type="line"/>
      <point x="865" y="919" type="line"/>
      <point x="859" y="919" type="line"/>
      <point x="809" y="739" type="line"/>
      <point x="570" y="0" type="line"/>
      <point x="462" y="0" type="line"/>
      <point x="161" y="985" type="line"/>
      <point x="46" y="993" type="line"/>
      <point x="46" y="1082" type="line"/>
      <point x="419" y="1082" type="line"/>
      <point x="419" y="993" type="line"/>
      <point x="279" y="982" type="line"/>
      <point x="461" y="351" type="line"/>
      <point x="512" y="169" type="line"/>
      <point x="518" y="169" type="line"/>
      <point x="574" y="351" type="line"/>
      <point x="813" y="1082" type="line"/>
      <point x="915" y="1082" type="line"/>
      <point x="1147" y="352" type="line"/>
      <point x="1203" y="167" type="line"/>
      <point x="1209" y="167" type="line"/>
      <point x="1262" y="351" type="line"/>
      <point x="1438" y="982" type="line"/>
      <point x="1299" y="993" type="line"/>
      <point x="1299" y="1082" type="line"/>
      <point x="1673" y="1082" type="line"/>
    </contour>
  </outline>
</glyph>
<glyph name="y" format="2">
  <advance width="1174"/>
  <unicode hex="0079"/>
  <outline>
    <contour>
      <point x="1135" y="993" type="line"/>
      <point x="1025" y="984" type="line"/>
      <point x="588" y="-173" type="line" smooth="yes"/>
      <point x="546" y="-283"/>
      <point x="412" y="-437"/>
      <point x="283" y="-437" type="qcurve" smooth="yes"/>
      <point x="262" y="-437"/>
      <point x="202" y="-428"/>
      <point x="188" y="-423" type="qcurve"/>
      <point x="202" y="-323" type="line"/>
      <point x="214" y="-325"/>
      <point x="267" y="-330"/>
      <point x="278" y="-330" type="qcurve" smooth="yes"/>
      <point x="357" y="-330"/>
      <point x="449" y="-220"/>
      <point x="484" y="-132" type="qcurve" smooth="yes"/>
      <point x="540" y="13" type="line"/>
      <point x="156" y="984" type="line"/>
      <point x="46" y="993" type="line"/>
      <point x="46" y="1082" type="line"/>
      <point x="418" y="1082" type="line"/>
      <point x="418" y="993" type="line"/>
      <point x="289" y="983" type="line"/>
      <point x="553" y="293" type="line"/>
      <point x="591" y="163" type="line"/>
      <point x="597" y="163" type="line"/>
      <point x="893" y="983" type="line"/>
      <point x="761" y="993" type="line"/>
      <point x="761" y="1082" type="line"/>
      <point x="1135" y="1082" type="line"/>
    </contour>
  </outline>
</glyph>
<glyph name="z" format="1">
  <advance width="1080"/>
  <unicode hex="007A"/>
  <outline>
    <contour>
      <point x="263" y="101" type="line"/>
      <point x="851" y="101" type="line"/>
      <point x="860" y="306" type="line"/>
      <point x="967" y="306" type="line"/>
      <point x="967" y="0" type="line"/>
      <point x="116" y="0" type="line"/>
      <point x="116" y="88" type="line"/>
      <point x="768" y="979" type="line"/>
      <point x="234" y="979" type="line"/>
      <point x="226" y="775" type="line"/>
      <point x="119" y="775" type="line"/>
      <point x="119" y="1082" type="line"/>
      <point x="919" y="1082" type="line"/>
      <point x="919" y="993" type="line"/>
    </contour>
  </outline>
</glyph>
<glyph name="braceleft" format="2">
  <advance width="697"/>
  <unicode hex="007B"/>
  <outline>
    <contour>
      <point x="631" y="-404" type="line"/>
      <point x="448" y="-349"/>
      <point x="294" y="-112"/>
      <point x="294" y="58" type="qcurve" smooth="yes"/>
      <point x="294" y="284" type="line" smooth="yes"/>
      <point x="294" y="406"/>
      <point x="181" y="543"/>
      <point x="63" y="543" type="qcurve"/>
      <point x="63" y="647" type="line"/>
      <point x="181" y="647"/>
      <point x="294" y="782"/>
      <point x="294" y="904" type="qcurve" smooth="yes"/>
      <point x="294" y="1132" type="line" smooth="yes"/>
      <point x="294" y="1303"/>
      <point x="448" y="1542"/>
      <point x="631" y="1597" type="qcurve"/>
      <point x="658" y="1518" type="line"/>
      <point x="530" y="1477"/>
      <point x="413" y="1276"/>
      <point x="413" y="1132" type="qcurve" smooth="yes"/>
      <point x="413" y="904" type="line" smooth="yes"/>
      <point x="413" y="794"/>
      <point x="322" y="632"/>
      <point x="230" y="595" type="qcurve"/>
      <point x="322" y="556"/>
      <point x="413" y="393"/>
      <point x="413" y="284" type="qcurve" smooth="yes"/>
      <point x="413" y="58" type="line" smooth="yes"/>
      <point x="413" y="-85"/>
      <point x="532" y="-282"/>
      <point x="660" y="-324" type="qcurve"/>
    </contour>
  </outline>
</glyph>
<glyph name="braceright" format="2">
  <advance width="696"/>
  <unicode hex="007D"/>
  <outline>
    <contour>
      <point x="27" y="-324" type="line"/>
      <point x="154" y="-282"/>
      <point x="273" y="-84"/>
      <point x="273" y="58" type="qcurve" smooth="yes"/>
      <point x="273" y="284" type="line" smooth="yes"/>
      <point x="273" y="396"/>
      <point x="368" y="558"/>
      <point x="467" y="594" type="qcurve"/>
      <point x="368" y="629"/>
      <point x="273" y="791"/>
      <point x="273" y="904" type="qcurve" smooth="yes"/>
      <point x="273" y="1132" type="line" smooth="yes"/>
      <point x="273" y="1276"/>
      <point x="156" y="1477"/>
      <point x="29" y="1518" type="qcurve"/>
      <point x="55" y="1597" type="line"/>
      <point x="237" y="1542"/>
      <point x="393" y="1303"/>
      <point x="393" y="1132" type="qcurve" smooth="yes"/>
      <point x="393" y="904" type="line" smooth="yes"/>
      <point x="393" y="782"/>
      <point x="505" y="647"/>
      <point x="624" y="647" type="qcurve"/>
      <point x="624" y="543" type="line"/>
      <point x="505" y="543"/>
      <point x="393" y="406"/>
      <point x="393" y="284" type="qcurve" smooth="yes"/>
      <point x="393" y="58" type="line" smooth="yes"/>
      <point x="393" y="-112"/>
      <point x="238" y="-349"/>
      <point x="55" y="-404" type="qcurve"/>
    </contour>
  </outline>
</glyph>
<glyph name="asciitilde" format="2">
  <advance width="1376"/>
  <unicode hex="007E"/>
  <outline>
    <contour>
      <point x="1234" y="740" type="line"/>
      <point x="1234" y="611"/>
      <point x="1072" y="423"/>
      <point x="952" y="423" type="qcurve" smooth="yes"/>
      <point x="864" y="423"/>
      <point x="719" y="494"/>
      <point x="631" y="573" type="qcurve" smooth="yes"/>
      <point x="567" y="626"/>
      <point x="457" y="680"/>
      <point x="401" y="680" type="qcurve" smooth="yes"/>
      <point x="322" y="680"/>
      <point x="217" y="559"/>
      <point x="217" y="459" type="qcurve"/>
      <point x="121" y="474" type="line"/>
      <point x="121" y="605"/>
      <point x="279" y="787"/>
      <point x="401" y="787" type="qcurve" smooth="yes"/>
      <point x="488" y="787"/>
      <point x="636" y="712"/>
      <point x="724" y="637" type="qcurve" smooth="yes"/>
      <point x="788" y="580"/>
      <point x="894" y="529"/>
      <point x="952" y="529" type="qcurve" smooth="yes"/>
      <point x="1028" y="529"/>
      <point x="1137" y="658"/>
      <point x="1137" y="755" type="qcurve"/>
    </contour>
  </outline>
</glyph>
<glyph name="cent" format="2">
  <advance width="1088"/>
  <unicode hex="00A2"/>
  <outline>
    <contour>
      <point x="586" y="80" type="qcurve" smooth="yes"/>
      <point x="705" y="80"/>
      <point x="887" y="216"/>
      <point x="887" y="337" type="qcurve"/>
      <point x="994" y="337" type="line"/>
      <point x="996" y="331" type="line"/>
      <point x="1000" y="196"/>
      <point x="793" y="1"/>
      <point x="646" y="-17" type="qcurve"/>
      <point x="646" y="-245" type="line"/>
      <point x="526" y="-245" type="line"/>
      <point x="526" y="-17" type="line"/>
      <point x="333" y="4"/>
      <point x="124" y="300"/>
      <point x="124" y="520" type="qcurve" smooth="yes"/>
      <point x="124" y="562" type="line" smooth="yes"/>
      <point x="124" y="781"/>
      <point x="333" y="1076"/>
      <point x="526" y="1098" type="qcurve"/>
      <point x="526" y="1318" type="line"/>
      <point x="646" y="1318" type="line"/>
      <point x="646" y="1099" type="line"/>
      <point x="752" y="1087"/>
      <point x="926" y="997"/>
      <point x="983" y="927" type="qcurve"/>
      <point x="988" y="691" type="line"/>
      <point x="886" y="691" type="line"/>
      <point x="867" y="883" type="line"/>
      <point x="819" y="937"/>
      <point x="676" y="1000"/>
      <point x="585" y="1000" type="qcurve" smooth="yes"/>
      <point x="411" y="1000"/>
      <point x="244" y="751"/>
      <point x="244" y="562" type="qcurve" smooth="yes"/>
      <point x="244" y="520" type="line" smooth="yes"/>
      <point x="244" y="328"/>
      <point x="410" y="80"/>
    </contour>
  </outline>
</glyph>
<glyph name="sterling" format="1">
  <advance width="1164"/>
  <unicode hex="00A3"/>
  <outline>
    <contour>
      <point x="132" y="0" type="line"/>
      <point x="132" y="101" type="line"/>
      <point x="142" y="101" type="line"/>
      <point x="235.33333333333331" y="121.0"/>
      <point x="281.0" y="304.66666666666674"/>
      <point x="281" y="466" type="curve" smooth="yes"/>
      <point x="274" y="642" type="line"/>
      <point x="68" y="642" type="line"/>
      <point x="68" y="744" type="line"/>
      <point x="271" y="744" type="line"/>
      <point x="260" y="1040" type="line" smooth="yes"/>
      <point x="260.0" y="1312.0"/>
      <point x="412.66666666666674" y="1477.0"/>
      <point x="650" y="1477" type="curve" smooth="yes"/>
      <point x="898.0" y="1477.0"/>
      <point x="1025.0" y="1328.0"/>
      <point x="1021" y="1096" type="curve"/>
      <point x="1018" y="1090" type="line"/>
      <point x="907" y="1090" type="line"/>
      <point x="907.0" y="1287.3333333333335"/>
      <point x="808.6666666666667" y="1375.0"/>
      <point x="650" y="1375" type="curve" smooth="yes"/>
      <point x="483.33333333333326" y="1375.0"/>
      <point x="379.0" y="1252.0"/>
      <point x="379" y="1040" type="curve" smooth="yes"/>
      <point x="390" y="744" type="line"/>
      <point x="841" y="744" type="line"/>
      <point x="841" y="642" type="line"/>
      <point x="393" y="642" type="line"/>
      <point x="400" y="466" type="line" smooth="yes"/>
      <point x="400.0" y="323.33333333333337"/>
      <point x="364.33333333333337" y="186.33333333333331"/>
      <point x="303" y="101" type="curve"/>
      <point x="957" y="101" type="line"/>
      <point x="967" y="306" type="line"/>
      <point x="1073" y="306" type="line"/>
      <point x="1073" y="0" type="line"/>
    </contour>
  </outline>
</glyph>
<glyph name="currency" format="2">
  <advance width="1461"/>
  <unicode hex="00A4"/>
  <outline>
    <contour>
      <point x="1116" y="133" type="line"/>
      <point x="1035" y="59"/>
      <point x="834" y="-20"/>
      <point x="724" y="-20" type="qcurve" smooth="yes"/>
      <point x="613" y="-20"/>
      <point x="413" y="59"/>
      <point x="334" y="132" type="qcurve"/>
      <point x="179" y="-26" type="line"/>
      <point x="94" y="60" type="line"/>
      <point x="253" y="221" type="line"/>
      <point x="193" y="302"/>
      <point x="129" y="498"/>
      <point x="129" y="608" type="qcurve" smooth="yes"/>
      <point x="129" y="720"/>
      <point x="198" y="924"/>
      <point x="262" y="1006" type="qcurve"/>
      <point x="94" y="1177" type="line"/>
      <point x="179" y="1264" type="line"/>
      <point x="345" y="1094" type="line"/>
      <point x="423" y="1161"/>
      <point x="617" y="1234"/>
      <point x="724" y="1234" type="qcurve" smooth="yes"/>
      <point x="830" y="1234"/>
      <point x="1025" y="1160"/>
      <point x="1104" y="1093" type="qcurve"/>
      <point x="1273" y="1265" type="line"/>
      <point x="1360" y="1177" type="line"/>
      <point x="1189" y="1002" type="line"/>
      <point x="1251" y="920"/>
      <point x="1319" y="719"/>
      <point x="1319" y="608" type="qcurve" smooth="yes"/>
      <point x="1319" y="500"/>
      <point x="1255" y="303"/>
      <point x="1197" y="224" type="qcurve"/>
      <point x="1360" y="60" type="line"/>
      <point x="1273" y="-27" type="line"/>
    </contour>
    <contour>
      <point x="242" y="608" type="qcurve" smooth="yes"/>
      <point x="242" y="393"/>
      <point x="524" y="91"/>
      <point x="724" y="91" type="qcurve" smooth="yes"/>
      <point x="922" y="91"/>
      <point x="1205" y="393"/>
      <point x="1205" y="608" type="qcurve" smooth="yes"/>
      <point x="1205" y="821"/>
      <point x="922" y="1122"/>
      <point x="724" y="1122" type="qcurve" smooth="yes"/>
      <point x="524" y="1122"/>
      <point x="242" y="821"/>
    </contour>
  </outline>
</glyph>
<glyph name="yen" format="1">
  <advance width="1383"/>
  <unicode hex="00A5"/>
  <outline>
    <contour>
      <point x="1327" y="1367" type="line"/>
      <point x="1195" y="1357" type="line"/>
      <point x="800" y="705" type="line"/>
      <point x="1171" y="705" type="line"/>
      <point x="1171" y="618" type="line"/>
      <point x="751" y="618" type="line"/>
      <point x="751" y="412" type="line"/>
      <point x="1171" y="412" type="line"/>
      <point x="1171" y="326" type="line"/>
      <point x="751" y="326" type="line"/>
      <point x="751" y="101" type="line"/>
      <point x="914" y="88" type="line"/>
      <point x="914" y="0" type="line"/>
      <point x="468" y="0" type="line"/>
      <point x="468" y="88" type="line"/>
      <point x="631" y="101" type="line"/>
      <point x="631" y="326" type="line"/>
      <point x="216" y="326" type="line"/>
      <point x="216" y="412" type="line"/>
      <point x="631" y="412" type="line"/>
      <point x="631" y="618" type="line"/>
      <point x="216" y="618" type="line"/>
      <point x="216" y="705" type="line"/>
      <point x="585" y="705" type="line"/>
      <point x="190" y="1357" type="line"/>
      <point x="59" y="1367" type="line"/>
      <point x="59" y="1456" type="line"/>
      <point x="432" y="1456" type="line"/>
      <point x="432" y="1367" type="line"/>
      <point x="326" y="1358" type="line"/>
      <point x="693" y="732" type="line"/>
      <point x="1059" y="1358" type="line"/>
      <point x="953" y="1367" type="line"/>
      <point x="953" y="1456" type="line"/>
      <point x="1327" y="1456" type="line"/>
    </contour>
  </outline>
</glyph>
<glyph name="section" format="2">
  <advance width="1213"/>
  <unicode hex="00A7"/>
  <outline>
    <contour>
      <point x="1100" y="431" type="qcurve" smooth="yes"/>
      <point x="1100" y="333"/>
      <point x="978" y="192"/>
      <point x="868" y="159" type="qcurve"/>
      <point x="962" y="109"/>
      <point x="1056" y="-32"/>
      <point x="1056" y="-139" type="qcurve" smooth="yes"/>
      <point x="1056" y="-305"/>
      <point x="802" y="-495"/>
      <point x="587" y="-495" type="qcurve" smooth="yes"/>
      <point x="375" y="-495"/>
      <point x="85" y="-290"/>
      <point x="90" y="-70" type="qcurve"/>
      <point x="92" y="-64" type="line"/>
      <point x="203" y="-62" type="line"/>
      <point x="203" y="-235"/>
      <point x="429" y="-393"/>
      <point x="587" y="-393" type="qcurve" smooth="yes"/>
      <point x="750" y="-393"/>
      <point x="936" y="-252"/>
      <point x="936" y="-141" type="qcurve" smooth="yes"/>
      <point x="936" y="-35"/>
      <point x="781" y="85"/>
      <point x="566" y="146" type="qcurve" smooth="yes"/>
      <point x="324" y="207"/>
      <point x="90" y="383"/>
      <point x="90" y="551" type="qcurve" smooth="yes"/>
      <point x="90" y="649"/>
      <point x="207" y="791"/>
      <point x="313" y="825" type="qcurve"/>
      <point x="223" y="874"/>
      <point x="135" y="1015"/>
      <point x="135" y="1120" type="qcurve" smooth="yes"/>
      <point x="135" y="1281"/>
      <point x="391" y="1477"/>
      <point x="605" y="1477" type="qcurve" smooth="yes"/>
      <point x="827" y="1477"/>
      <point x="1076" y="1254"/>
      <point x="1072" y="1052" type="qcurve"/>
      <point x="1070" y="1046" type="line"/>
      <point x="958" y="1046" type="line"/>
      <point x="958" y="1187"/>
      <point x="770" y="1375"/>
      <point x="605" y="1375" type="qcurve" smooth="yes"/>
      <point x="432" y="1375"/>
      <point x="254" y="1233"/>
      <point x="254" y="1123" type="qcurve" smooth="yes"/>
      <point x="254" y="1009"/>
      <point x="402" y="891"/>
      <point x="627" y="828" type="qcurve" smooth="yes"/>
      <point x="874" y="763"/>
      <point x="1100" y="596"/>
    </contour>
    <contour>
      <point x="577" y="729" type="qcurve"/>
      <point x="537" y="738"/>
      <point x="466" y="759"/>
      <point x="435" y="771" type="qcurve"/>
      <point x="322" y="757"/>
      <point x="209" y="639"/>
      <point x="209" y="553" type="qcurve" smooth="yes"/>
      <point x="209" y="437"/>
      <point x="367" y="319"/>
      <point x="611" y="251" type="qcurve" smooth="yes"/>
      <point x="645" y="241"/>
      <point x="707" y="223"/>
      <point x="736" y="214" type="qcurve"/>
      <point x="851" y="227"/>
      <point x="981" y="344"/>
      <point x="981" y="428" type="qcurve" smooth="yes"/>
      <point x="981" y="535"/>
      <point x="810" y="661"/>
    </contour>
  </outline>
</glyph>
<glyph name="copyright" format="2">
  <advance width="1595"/>
  <unicode hex="00A9"/>
  <outline>
    <contour>
      <point x="1098" y="596" type="line"/>
      <point x="1100" y="590" type="line"/>
      <point x="1104" y="440"/>
      <point x="939" y="282"/>
      <point x="791" y="282" type="qcurve" smooth="yes"/>
      <point x="640" y="282"/>
      <point x="458" y="495"/>
      <point x="458" y="669" type="qcurve" smooth="yes"/>
      <point x="458" y="788" type="line" smooth="yes"/>
      <point x="458" y="960"/>
      <point x="640" y="1175"/>
      <point x="791" y="1175" type="qcurve" smooth="yes"/>
      <point x="939" y="1175"/>
      <point x="1105" y="1017"/>
      <point x="1101" y="868" type="qcurve"/>
      <point x="1099" y="862" type="line"/>
      <point x="1008" y="862" type="line"/>
      <point x="1008" y="975"/>
      <point x="897" y="1085"/>
      <point x="791" y="1085" type="qcurve" smooth="yes"/>
      <point x="681" y="1085"/>
      <point x="558" y="918"/>
      <point x="558" y="789" type="qcurve" smooth="yes"/>
      <point x="558" y="669" type="line" smooth="yes"/>
      <point x="558" y="537"/>
      <point x="681" y="372"/>
      <point x="791" y="372" type="qcurve" smooth="yes"/>
      <point x="898" y="372"/>
      <point x="1007" y="480"/>
      <point x="1007" y="596" type="qcurve"/>
    </contour>
    <contour>
      <point x="177" y="729" type="qcurve" smooth="yes"/>
      <point x="177" y="450"/>
      <point x="542" y="65"/>
      <point x="802" y="65" type="qcurve" smooth="yes"/>
      <point x="1059" y="65"/>
      <point x="1425" y="450"/>
      <point x="1425" y="729" type="qcurve" smooth="yes"/>
      <point x="1425" y="1006"/>
      <point x="1060" y="1389"/>
      <point x="802" y="1389" type="qcurve" smooth="yes"/>
      <point x="542" y="1389"/>
      <point x="177" y="1006"/>
    </contour>
    <contour>
      <point x="92" y="729" type="qcurve" smooth="yes"/>
      <point x="92" y="1044"/>
      <point x="506" y="1476"/>
      <point x="802" y="1476" type="qcurve" smooth="yes"/>
      <point x="1097" y="1476"/>
      <point x="1511" y="1044"/>
      <point x="1511" y="729" type="qcurve" smooth="yes"/>
      <point x="1511" y="413"/>
      <point x="1096" y="-21"/>
      <point x="802" y="-21" type="qcurve" smooth="yes"/>
      <point x="506" y="-21"/>
      <point x="92" y="413"/>
    </contour>
  </outline>
</glyph>
<glyph name="ordfeminine" format="2">
  <advance width="875"/>
  <unicode hex="00AA"/>
  <outline>
    <contour>
      <point x="620" y="706" type="line"/>
      <point x="611" y="731"/>
      <point x="600" y="786"/>
      <point x="598" y="814" type="qcurve"/>
      <point x="561" y="761"/>
      <point x="438" y="692"/>
      <point x="355" y="692" type="qcurve" smooth="yes"/>
      <point x="236" y="692"/>
      <point x="106" y="814"/>
      <point x="106" y="920" type="qcurve" smooth="yes"/>
      <point x="106" y="1025"/>
      <point x="263" y="1141"/>
      <point x="413" y="1141" type="qcurve" smooth="yes"/>
      <point x="596" y="1141" type="line"/>
      <point x="596" y="1202" type="line" smooth="yes"/>
      <point x="596" y="1287"/>
      <point x="513" y="1380"/>
      <point x="434" y="1380" type="qcurve" smooth="yes"/>
      <point x="342" y="1380"/>
      <point x="242" y="1305"/>
      <point x="242" y="1234" type="qcurve"/>
      <point x="142" y="1243" type="line"/>
      <point x="140" y="1249" type="line"/>
      <point x="135" y="1347"/>
      <point x="300" y="1477"/>
      <point x="434" y="1477" type="qcurve" smooth="yes"/>
      <point x="558" y="1477"/>
      <point x="705" y="1334"/>
      <point x="705" y="1201" type="qcurve" smooth="yes"/>
      <point x="705" y="887" type="line" smooth="yes"/>
      <point x="705" y="837"/>
      <point x="717" y="749"/>
      <point x="731" y="706" type="qcurve"/>
    </contour>
    <contour>
      <point x="374" y="787" type="qcurve" smooth="yes"/>
      <point x="444" y="787"/>
      <point x="576" y="864"/>
      <point x="596" y="911" type="qcurve"/>
      <point x="596" y="1057" type="line"/>
      <point x="414" y="1057" type="line" smooth="yes"/>
      <point x="319" y="1057"/>
      <point x="214" y="980"/>
      <point x="214" y="924" type="qcurve" smooth="yes"/>
      <point x="214" y="858"/>
      <point x="292" y="787"/>
    </contour>
  </outline>
</glyph>
<glyph name="logicalnot" format="1">
  <advance width="1112"/>
  <unicode hex="00AC"/>
  <outline>
    <contour>
      <point x="932" y="386" type="line"/>
      <point x="813" y="386" type="line"/>
      <point x="813" y="670" type="line"/>
      <point x="121" y="670" type="line"/>
      <point x="121" y="776" type="line"/>
      <point x="932" y="776" type="line"/>
    </contour>
  </outline>
</glyph>
<glyph name="registered" format="2">
  <advance width="1595"/>
  <unicode hex="00AE"/>
  <outline>
    <contour>
      <point x="92" y="729" type="qcurve" smooth="yes"/>
      <point x="92" y="1044"/>
      <point x="506" y="1476"/>
      <point x="802" y="1476" type="qcurve" smooth="yes"/>
      <point x="1097" y="1476"/>
      <point x="1511" y="1044"/>
      <point x="1511" y="729" type="qcurve" smooth="yes"/>
      <point x="1511" y="413"/>
      <point x="1096" y="-21"/>
      <point x="802" y="-21" type="qcurve" smooth="yes"/>
      <point x="506" y="-21"/>
      <point x="92" y="413"/>
    </contour>
    <contour>
      <point x="177" y="729" type="qcurve" smooth="yes"/>
      <point x="177" y="450"/>
      <point x="542" y="65"/>
      <point x="802" y="65" type="qcurve" smooth="yes"/>
      <point x="1059" y="65"/>
      <point x="1425" y="450"/>
      <point x="1425" y="729" type="qcurve" smooth="yes"/>
      <point x="1425" y="1006"/>
      <point x="1060" y="1389"/>
      <point x="802" y="1389" type="qcurve" smooth="yes"/>
      <point x="542" y="1389"/>
      <point x="177" y="1006"/>
    </contour>
    <contour>
      <point x="639" y="672" type="line"/>
      <point x="639" y="316" type="line"/>
      <point x="541" y="316" type="line"/>
      <point x="541" y="1166" type="line"/>
      <point x="799" y="1166" type="line" smooth="yes"/>
      <point x="946" y="1166"/>
      <point x="1104" y="1040"/>
      <point x="1104" y="918" type="qcurve" smooth="yes"/>
      <point x="1104" y="850"/>
      <point x="1031" y="752"/>
      <point x="963" y="721" type="qcurve"/>
      <point x="1031" y="696"/>
      <point x="1091" y="590"/>
      <point x="1091" y="515" type="qcurve" smooth="yes"/>
      <point x="1091" y="459" type="line" smooth="yes"/>
      <point x="1091" y="419"/>
      <point x="1099" y="353"/>
      <point x="1108" y="332" type="qcurve"/>
      <point x="1108" y="316" type="line"/>
      <point x="1006" y="316" type="line"/>
      <point x="997" y="337"/>
      <point x="993" y="418"/>
      <point x="993" y="460" type="qcurve" smooth="yes"/>
      <point x="993" y="514" type="line" smooth="yes"/>
      <point x="993" y="598"/>
      <point x="916" y="672"/>
      <point x="827" y="672" type="qcurve" smooth="yes"/>
    </contour>
    <contour>
      <point x="639" y="763" type="line"/>
      <point x="820" y="763" type="line" smooth="yes"/>
      <point x="899" y="763"/>
      <point x="1007" y="844"/>
      <point x="1007" y="916" type="qcurve" smooth="yes"/>
      <point x="1007" y="1001"/>
      <point x="914" y="1075"/>
      <point x="799" y="1075" type="qcurve" smooth="yes"/>
      <point x="639" y="1075" type="line"/>
    </contour>
  </outline>
</glyph>
<glyph name="degree" format="2">
  <advance width="747"/>
  <unicode hex="00B0"/>
  <outline>
    <contour>
      <point x="124" y="1227" type="qcurve" smooth="yes"/>
      <point x="124" y="1329"/>
      <point x="268" y="1477"/>
      <point x="369" y="1477" type="qcurve" smooth="yes"/>
      <point x="467" y="1477"/>
      <point x="610" y="1329"/>
      <point x="610" y="1227" type="qcurve" smooth="yes"/>
      <point x="610" y="1123"/>
      <point x="468" y="980"/>
      <point x="369" y="980" type="qcurve" smooth="yes"/>
      <point x="267" y="980"/>
      <point x="124" y="1123"/>
    </contour>
    <contour>
      <point x="213" y="1227" type="qcurve" smooth="yes"/>
      <point x="213" y="1160"/>
      <point x="303" y="1071"/>
      <point x="369" y="1071" type="qcurve" smooth="yes"/>
      <point x="434" y="1071"/>
      <point x="521" y="1159"/>
      <point x="521" y="1227" type="qcurve" smooth="yes"/>
      <point x="521" y="1295"/>
      <point x="434" y="1386"/>
      <point x="369" y="1386" type="qcurve" smooth="yes"/>
      <point x="303" y="1386"/>
      <point x="213" y="1294"/>
    </contour>
  </outline>
</glyph>
<glyph name="twosuperior" format="2">
  <advance width="816"/>
  <unicode hex="00B2"/>
  <outline>
    <contour>
      <point x="683" y="667" type="line"/>
      <point x="113" y="667" type="line"/>
      <point x="113" y="757" type="line"/>
      <point x="428" y="1039" type="line" smooth="yes"/>
      <point x="505" y="1109"/>
      <point x="559" y="1199"/>
      <point x="559" y="1246" type="qcurve" smooth="yes"/>
      <point x="559" y="1311"/>
      <point x="482" y="1388"/>
      <point x="403" y="1388" type="qcurve" smooth="yes"/>
      <point x="316" y="1388"/>
      <point x="222" y="1304"/>
      <point x="222" y="1238" type="qcurve"/>
      <point x="122" y="1238" type="line"/>
      <point x="120" y="1244" type="line"/>
      <point x="114" y="1341"/>
      <point x="271" y="1479"/>
      <point x="403" y="1479" type="qcurve" smooth="yes"/>
      <point x="527" y="1479"/>
      <point x="669" y="1358"/>
      <point x="669" y="1245" type="qcurve" smooth="yes"/>
      <point x="669" y="1170"/>
      <point x="575" y="1048"/>
      <point x="472" y="951" type="qcurve" smooth="yes"/>
      <point x="257" y="763" type="line"/>
      <point x="260" y="757" type="line"/>
      <point x="683" y="757" type="line"/>
    </contour>
  </outline>
</glyph>
<glyph name="threesuperior" format="2">
  <advance width="837"/>
  <unicode hex="00B3"/>
  <outline>
    <contour>
      <point x="398" y="1119" type="line" smooth="yes"/>
      <point x="486" y="1119"/>
      <point x="570" y="1189"/>
      <point x="570" y="1253" type="qcurve" smooth="yes"/>
      <point x="570" y="1312"/>
      <point x="480" y="1387"/>
      <point x="392" y="1387" type="qcurve" smooth="yes"/>
      <point x="317" y="1387"/>
      <point x="219" y="1316"/>
      <point x="219" y="1258" type="qcurve"/>
      <point x="119" y="1258" type="line"/>
      <point x="117" y="1264" type="line"/>
      <point x="111" y="1358"/>
      <point x="273" y="1478"/>
      <point x="392" y="1478" type="qcurve" smooth="yes"/>
      <point x="525" y="1478"/>
      <point x="679" y="1361"/>
      <point x="679" y="1253" type="qcurve" smooth="yes"/>
      <point x="679" y="1194"/>
      <point x="608" y="1101"/>
      <point x="544" y="1076" type="qcurve"/>
      <point x="617" y="1054"/>
      <point x="693" y="957"/>
      <point x="693" y="886" type="qcurve" smooth="yes"/>
      <point x="693" y="777"/>
      <point x="526" y="655"/>
      <point x="392" y="655" type="qcurve" smooth="yes"/>
      <point x="272" y="655"/>
      <point x="99" y="772"/>
      <point x="104" y="882" type="qcurve"/>
      <point x="106" y="888" type="line"/>
      <point x="207" y="888" type="line"/>
      <point x="207" y="825"/>
      <point x="309" y="745"/>
      <point x="392" y="745" type="qcurve" smooth="yes"/>
      <point x="482" y="745"/>
      <point x="584" y="821"/>
      <point x="584" y="886" type="qcurve" smooth="yes"/>
      <point x="584" y="961"/>
      <point x="491" y="1030"/>
      <point x="398" y="1030" type="qcurve" smooth="yes"/>
      <point x="275" y="1030" type="line"/>
      <point x="275" y="1119" type="line"/>
    </contour>
  </outline>
</glyph>
<glyph name="acute" format="1">
  <advance width="574"/>
  <unicode hex="00B4"/>
  <outline>
    <contour>
      <point x="301" y="1478" type="line"/>
      <point x="448" y="1478" type="line"/>
      <point x="451" y="1472" type="line"/>
      <point x="202" y="1212" type="line"/>
      <point x="95" y="1212" type="line"/>
    </contour>
  </outline>
</glyph>
<glyph name="mu" format="2">
  <advance width="1297"/>
  <unicode hex="00B5"/>
  <outline>
    <contour>
      <point x="347" y="1082" type="line"/>
      <point x="347" y="449" type="line" smooth="yes"/>
      <point x="347" y="242"/>
      <point x="489" y="80"/>
      <point x="610" y="80" type="qcurve" smooth="yes"/>
      <point x="747" y="80"/>
      <point x="897" y="199"/>
      <point x="925" y="310" type="qcurve"/>
      <point x="925" y="980" type="line"/>
      <point x="762" y="993" type="line"/>
      <point x="762" y="1082" type="line"/>
      <point x="1045" y="1082" type="line"/>
      <point x="1045" y="101" type="line"/>
      <point x="1208" y="88" type="line"/>
      <point x="1208" y="0" type="line"/>
      <point x="942" y="0" type="line"/>
      <point x="931" y="155" type="line"/>
      <point x="883" y="70"/>
      <point x="727" y="-21"/>
      <point x="618" y="-21" type="qcurve" smooth="yes"/>
      <point x="530" y="-21"/>
      <point x="392" y="39"/>
      <point x="347" y="105" type="qcurve"/>
      <point x="347" y="-416" type="line"/>
      <point x="229" y="-416" type="line"/>
      <point x="229" y="980" type="line"/>
      <point x="66" y="993" type="line"/>
      <point x="66" y="1082" type="line"/>
      <point x="229" y="1082" type="line"/>
    </contour>
  </outline>
</glyph>
<glyph name="paragraph" format="1">
  <advance width="1065"/>
  <unicode hex="00B6"/>
  <outline>
    <contour>
      <point x="513" y="88" type="line"/>
      <point x="676" y="101" type="line"/>
      <point x="676" y="520" type="line"/>
      <point x="570" y="520" type="line" smooth="yes"/>
      <point x="258.0" y="520.0"/>
      <point x="78.0" y="709.3333333333335"/>
      <point x="78" y="988" type="curve" smooth="yes"/>
      <point x="78.0" y="1264.0"/>
      <point x="259.3333333333333" y="1456.0"/>
      <point x="570" y="1456" type="curve" smooth="yes"/>
      <point x="795" y="1456" type="line"/>
      <point x="795" y="101" type="line"/>
      <point x="958" y="88" type="line"/>
      <point x="958" y="0" type="line"/>
      <point x="513" y="0" type="line"/>
    </contour>
    <contour>
      <point x="958" y="1456" type="line"/>
      <point x="958" y="1367" type="line"/>
      <point x="795" y="1354" type="line"/>
      <point x="795" y="1456" type="line"/>
    </contour>
  </outline>
</glyph>
<glyph name="cedilla" format="2">
  <advance width="470"/>
  <unicode hex="00B8"/>
  <outline>
    <contour>
      <point x="250" y="0" type="line"/>
      <point x="239" y="-64" type="line"/>
      <point x="318" y="-73"/>
      <point x="415" y="-152"/>
      <point x="415" y="-235" type="qcurve" smooth="yes"/>
      <point x="415" y="-326"/>
      <point x="257" y="-435"/>
      <point x="110" y="-435" type="qcurve"/>
      <point x="103" y="-357" type="line"/>
      <point x="192" y="-357"/>
      <point x="315" y="-296"/>
      <point x="315" y="-237" type="qcurve" smooth="yes"/>
      <point x="315" y="-180"/>
      <point x="233" y="-135"/>
      <point x="129" y="-127" type="qcurve"/>
      <point x="157" y="0" type="line"/>
    </contour>
  </outline>
</glyph>
<glyph name="ordmasculine" format="2">
  <advance width="921"/>
  <unicode hex="00BA"/>
  <outline>
    <contour>
      <point x="121" y="1142" type="line" smooth="yes"/>
      <point x="121" y="1290"/>
      <point x="296" y="1477"/>
      <point x="443" y="1477" type="qcurve" smooth="yes"/>
      <point x="592" y="1477"/>
      <point x="767" y="1290"/>
      <point x="767" y="1142" type="qcurve" smooth="yes"/>
      <point x="767" y="1025" type="line" smooth="yes"/>
      <point x="767" y="876"/>
      <point x="592" y="691"/>
      <point x="445" y="691" type="qcurve" smooth="yes"/>
      <point x="296" y="691"/>
      <point x="121" y="876"/>
      <point x="121" y="1025" type="qcurve" smooth="yes"/>
    </contour>
    <contour>
      <point x="229" y="1025" type="line" smooth="yes"/>
      <point x="229" y="918"/>
      <point x="338" y="786"/>
      <point x="445" y="786" type="qcurve" smooth="yes"/>
      <point x="548" y="786"/>
      <point x="659" y="919"/>
      <point x="659" y="1025" type="qcurve" smooth="yes"/>
      <point x="659" y="1142" type="line" smooth="yes"/>
      <point x="659" y="1246"/>
      <point x="547" y="1380"/>
      <point x="443" y="1380" type="qcurve" smooth="yes"/>
      <point x="339" y="1380"/>
      <point x="229" y="1246"/>
      <point x="229" y="1142" type="qcurve" smooth="yes"/>
    </contour>
  </outline>
</glyph>
<glyph name="questiondown" format="2">
  <advance width="862"/>
  <unicode hex="00BF"/>
  <outline>
    <contour>
      <point x="521" y="678" type="line"/>
      <point x="519" y="547"/>
      <point x="476" y="443"/>
      <point x="384" y="359" type="qcurve"/>
      <point x="275" y="246"/>
      <point x="177" y="95"/>
      <point x="177" y="-19" type="qcurve" smooth="yes"/>
      <point x="177" y="-147"/>
      <point x="312" y="-287"/>
      <point x="439" y="-287" type="qcurve" smooth="yes"/>
      <point x="556" y="-287"/>
      <point x="700" y="-150"/>
      <point x="702" y="-33" type="qcurve"/>
      <point x="814" y="-33" type="line"/>
      <point x="816" y="-39" type="line"/>
      <point x="818" y="-204"/>
      <point x="604" y="-394"/>
      <point x="439" y="-394" type="qcurve" smooth="yes"/>
      <point x="259" y="-394"/>
      <point x="58" y="-192"/>
      <point x="58" y="-20" type="qcurve" smooth="yes"/>
      <point x="58" y="114"/>
      <point x="189" y="322"/>
      <point x="312" y="437" type="qcurve" smooth="yes"/>
      <point x="373" y="489"/>
      <point x="401" y="582"/>
      <point x="401" y="678" type="qcurve"/>
    </contour>
    <contour>
      <point x="385" y="1083" type="line"/>
      <point x="524" y="1083" type="line"/>
      <point x="524" y="928" type="line"/>
      <point x="385" y="928" type="line"/>
    </contour>
  </outline>
</glyph>
<glyph name="AE" format="1">
  <advance width="2058"/>
  <unicode hex="00C6"/>
  <outline>
    <contour>
      <point x="51" y="88" type="line"/>
      <point x="181" y="98" type="line"/>
      <point x="1003" y="1456" type="line"/>
      <point x="1867" y="1456" type="line"/>
      <point x="1867" y="1149" type="line"/>
      <point x="1760" y="1149" type="line"/>
      <point x="1751" y="1354" type="line"/>
      <point x="1173" y="1354" type="line"/>
      <point x="1196" y="809" type="line"/>
      <point x="1785" y="809" type="line"/>
      <point x="1785" y="707" type="line"/>
      <point x="1200" y="707" type="line"/>
      <point x="1226" y="101" type="line"/>
      <point x="1813" y="101" type="line"/>
      <point x="1822" y="306" type="line"/>
      <point x="1928" y="306" type="line"/>
      <point x="1928" y="0" type="line"/>
      <point x="948" y="0" type="line"/>
      <point x="948" y="88" type="line"/>
      <point x="1106" y="100" type="line"/>
      <point x="1094" y="389" type="line"/>
      <point x="497" y="389" type="line"/>
      <point x="325" y="96" type="line"/>
      <point x="431" y="88" type="line"/>
      <point x="431" y="0" type="line"/>
      <point x="51" y="0" type="line"/>
    </contour>
    <contour>
      <point x="564" y="502" type="line"/>
      <point x="1090" y="502" type="line"/>
      <point x="1055" y="1341" type="line"/>
      <point x="1049" y="1342" type="line"/>
      <point x="1034" y="1298" type="line"/>
    </contour>
  </outline>
</glyph>
<glyph name="Eth" format="2">
  <advance width="1431"/>
  <unicode hex="00D0"/>
  <outline>
    <contour>
      <point x="687" y="1456" type="line" smooth="yes"/>
      <point x="954" y="1456"/>
      <point x="1302" y="1100"/>
      <point x="1302" y="821" type="qcurve" smooth="yes"/>
      <point x="1302" y="634" type="line" smooth="yes"/>
      <point x="1302" y="354"/>
      <point x="954" y="0"/>
      <point x="687" y="0" type="qcurve" smooth="yes"/>
      <point x="101" y="0" type="line"/>
      <point x="101" y="88" type="line"/>
      <point x="264" y="101" type="line"/>
      <point x="264" y="689" type="line"/>
      <point x="103" y="689" type="line"/>
      <point x="103" y="791" type="line"/>
      <point x="264" y="791" type="line"/>
      <point x="264" y="1354" type="line"/>
      <point x="101" y="1367" type="line"/>
      <point x="101" y="1456" type="line"/>
    </contour>
    <contour>
      <point x="715" y="689" type="line"/>
      <point x="383" y="689" type="line"/>
      <point x="383" y="101" type="line"/>
      <point x="687" y="101" type="line" smooth="yes"/>
      <point x="903" y="101"/>
      <point x="1182" y="403"/>
      <point x="1182" y="634" type="qcurve" smooth="yes"/>
      <point x="1182" y="824" type="line" smooth="yes"/>
      <point x="1182" y="1052"/>
      <point x="902" y="1354"/>
      <point x="687" y="1354" type="qcurve" smooth="yes"/>
      <point x="383" y="1354" type="line"/>
      <point x="383" y="791" type="line"/>
      <point x="715" y="791" type="line"/>
    </contour>
  </outline>
</glyph>
<glyph name="Oslash" format="2">
  <advance width="1408"/>
  <unicode hex="00D8"/>
  <outline>
    <contour>
      <point x="1351" y="718" type="line" smooth="yes"/>
      <point x="1351" y="390"/>
      <point x="1001" y="-21"/>
      <point x="721" y="-21" type="qcurve" smooth="yes"/>
      <point x="623" y="-21"/>
      <point x="449" y="34"/>
      <point x="378" y="87" type="qcurve"/>
      <point x="273" y="-84" type="line"/>
      <point x="169" y="-84" type="line"/>
      <point x="310" y="145" type="line"/>
      <point x="209" y="244"/>
      <point x="100" y="539"/>
      <point x="100" y="718" type="qcurve" smooth="yes"/>
      <point x="100" y="737" type="line" smooth="yes"/>
      <point x="100" y="1064"/>
      <point x="444" y="1477"/>
      <point x="720" y="1477" type="qcurve" smooth="yes"/>
      <point x="816" y="1477"/>
      <point x="991" y="1423"/>
      <point x="1065" y="1372" type="qcurve"/>
      <point x="1147" y="1505" type="line"/>
      <point x="1251" y="1505" type="line"/>
      <point x="1134" y="1314" type="line"/>
      <point x="1237" y="1214"/>
      <point x="1351" y="916"/>
      <point x="1351" y="737" type="qcurve" smooth="yes"/>
    </contour>
    <contour>
      <point x="1231" y="739" type="line" smooth="yes"/>
      <point x="1231" y="887"/>
      <point x="1150" y="1132"/>
      <point x="1077" y="1212" type="qcurve"/>
      <point x="1071" y="1213" type="line"/>
      <point x="434" y="178" type="line"/>
      <point x="493" y="131"/>
      <point x="637" y="83"/>
      <point x="721" y="83" type="qcurve" smooth="yes"/>
      <point x="958" y="83"/>
      <point x="1231" y="432"/>
      <point x="1231" y="718" type="qcurve" smooth="yes"/>
    </contour>
    <contour>
      <point x="220" y="718" type="line" smooth="yes"/>
      <point x="220" y="570"/>
      <point x="296" y="327"/>
      <point x="367" y="248" type="qcurve"/>
      <point x="373" y="247" type="line"/>
      <point x="1008" y="1280" type="line"/>
      <point x="948" y="1324"/>
      <point x="803" y="1372"/>
      <point x="720" y="1372" type="qcurve" smooth="yes"/>
      <point x="489" y="1372"/>
      <point x="220" y="1022"/>
      <point x="220" y="739" type="qcurve" smooth="yes"/>
    </contour>
  </outline>
</glyph>
<glyph name="Thorn" format="2">
  <advance width="1257"/>
  <unicode hex="00DE"/>
  <outline>
    <contour>
      <point x="70" y="1367" type="line"/>
      <point x="70" y="1456" type="line"/>
      <point x="352" y="1456" type="line"/>
      <point x="515" y="1456" type="line"/>
      <point x="515" y="1367" type="line"/>
      <point x="352" y="1354" type="line"/>
      <point x="352" y="1152" type="line"/>
      <point x="676" y="1152" type="line" smooth="yes"/>
      <point x="897" y="1152"/>
      <point x="1145" y="922"/>
      <point x="1145" y="738" type="qcurve" smooth="yes"/>
      <point x="1145" y="553"/>
      <point x="898" y="324"/>
      <point x="676" y="324" type="qcurve" smooth="yes"/>
      <point x="352" y="324" type="line"/>
      <point x="352" y="101" type="line"/>
      <point x="515" y="88" type="line"/>
      <point x="515" y="0" type="line"/>
      <point x="70" y="0" type="line"/>
      <point x="70" y="88" type="line"/>
      <point x="233" y="101" type="line"/>
      <point x="233" y="1354" type="line"/>
    </contour>
    <contour>
      <point x="352" y="1051" type="line"/>
      <point x="352" y="425" type="line"/>
      <point x="676" y="425" type="line" smooth="yes"/>
      <point x="849" y="425"/>
      <point x="1026" y="609"/>
      <point x="1026" y="736" type="qcurve" smooth="yes"/>
      <point x="1026" y="866"/>
      <point x="850" y="1051"/>
      <point x="676" y="1051" type="qcurve" smooth="yes"/>
    </contour>
  </outline>
</glyph>
<glyph name="germandbls" format="2">
  <advance width="1263"/>
  <unicode hex="00DF"/>
  <outline>
    <contour>
      <point x="337" y="0" type="line"/>
      <point x="55" y="0" type="line"/>
      <point x="55" y="88" type="line"/>
      <point x="218" y="101" type="line"/>
      <point x="218" y="1082" type="line" smooth="yes"/>
      <point x="218" y="1286"/>
      <point x="422" y="1512"/>
      <point x="593" y="1512" type="qcurve" smooth="yes"/>
      <point x="733" y="1512"/>
      <point x="917" y="1353"/>
      <point x="917" y="1210" type="qcurve" smooth="yes"/>
      <point x="917" y="1101"/>
      <point x="794" y="888"/>
      <point x="794" y="810" type="qcurve" smooth="yes"/>
      <point x="794" y="724"/>
      <point x="1162" y="440"/>
      <point x="1162" y="295" type="qcurve" smooth="yes"/>
      <point x="1162" y="142"/>
      <point x="943" y="-21"/>
      <point x="786" y="-21" type="qcurve" smooth="yes"/>
      <point x="700" y="-21"/>
      <point x="519" y="26"/>
      <point x="480" y="59" type="qcurve"/>
      <point x="514" y="160" type="line"/>
      <point x="554" y="129"/>
      <point x="703" y="80"/>
      <point x="772" y="80" type="qcurve" smooth="yes"/>
      <point x="897" y="80"/>
      <point x="1042" y="200"/>
      <point x="1042" y="295" type="qcurve" smooth="yes"/>
      <point x="1042" y="394"/>
      <point x="674" y="677"/>
      <point x="674" y="812" type="qcurve" smooth="yes"/>
      <point x="674" y="905"/>
      <point x="800" y="1122"/>
      <point x="800" y="1204" type="qcurve" smooth="yes"/>
      <point x="800" y="1296"/>
      <point x="681" y="1411"/>
      <point x="603" y="1411" type="qcurve" smooth="yes"/>
      <point x="482" y="1411"/>
      <point x="337" y="1240"/>
      <point x="337" y="1082" type="qcurve" smooth="yes"/>
    </contour>
  </outline>
</glyph>
<glyph name="ae" format="2">
  <advance width="1786"/>
  <unicode hex="00E6"/>
  <outline>
    <contour>
      <point x="1285" y="-21" type="qcurve" smooth="yes"/>
      <point x="1147" y="-21"/>
      <point x="941" y="90"/>
      <point x="881" y="192" type="qcurve"/>
      <point x="832" y="105"/>
      <point x="611" y="-21"/>
      <point x="452" y="-21" type="qcurve" smooth="yes"/>
      <point x="282" y="-21"/>
      <point x="97" y="148"/>
      <point x="97" y="293" type="qcurve" smooth="yes"/>
      <point x="97" y="451"/>
      <point x="323" y="632"/>
      <point x="535" y="632" type="qcurve" smooth="yes"/>
      <point x="798" y="632" type="line"/>
      <point x="798" y="720" type="line" smooth="yes"/>
      <point x="798" y="854"/>
      <point x="671" y="1000"/>
      <point x="547" y="1000" type="qcurve" smooth="yes"/>
      <point x="412" y="1000"/>
      <point x="256" y="866"/>
      <point x="256" y="765" type="qcurve"/>
      <point x="146" y="777" type="line"/>
      <point x="144" y="783" type="line"/>
      <point x="139" y="921"/>
      <point x="361" y="1102"/>
      <point x="547" y="1102" type="qcurve" smooth="yes"/>
      <point x="672" y="1102"/>
      <point x="848" y="994"/>
      <point x="889" y="891" type="qcurve"/>
      <point x="950" y="990"/>
      <point x="1140" y="1102"/>
      <point x="1255" y="1102" type="qcurve" smooth="yes"/>
      <point x="1455" y="1102"/>
      <point x="1678" y="854"/>
      <point x="1678" y="638" type="qcurve" smooth="yes"/>
      <point x="1678" y="538" type="line"/>
      <point x="923" y="538" type="line"/>
      <point x="923" y="509" type="line" smooth="yes"/>
      <point x="923" y="318"/>
      <point x="1103" y="80"/>
      <point x="1285" y="80" type="qcurve" smooth="yes"/>
      <point x="1388" y="80"/>
      <point x="1544" y="145"/>
      <point x="1608" y="199" type="qcurve"/>
      <point x="1656" y="112" type="line"/>
      <point x="1596" y="57"/>
      <point x="1419" y="-21"/>
    </contour>
    <contour>
      <point x="469" y="79" type="qcurve" smooth="yes"/>
      <point x="571" y="79"/>
      <point x="762" y="186"/>
      <point x="798" y="248" type="qcurve"/>
      <point x="798" y="536" type="line"/>
      <point x="537" y="536" type="line" smooth="yes"/>
      <point x="382" y="536"/>
      <point x="217" y="394"/>
      <point x="217" y="289" type="qcurve" smooth="yes"/>
      <point x="217" y="192"/>
      <point x="346" y="79"/>
    </contour>
    <contour>
      <point x="1255" y="1000" type="qcurve" smooth="yes"/>
      <point x="1117" y="1000"/>
      <point x="944" y="797"/>
      <point x="931" y="641" type="qcurve"/>
      <point x="933" y="636" type="line"/>
      <point x="1558" y="636" type="line"/>
      <point x="1558" y="667" type="line" smooth="yes"/>
      <point x="1558" y="813"/>
      <point x="1404" y="1000"/>
    </contour>
  </outline>
</glyph>
<glyph name="eth" format="2">
  <advance width="1179"/>
  <unicode hex="00F0"/>
  <outline>
    <contour>
      <point x="807" y="1299" type="line"/>
      <point x="918" y="1178"/>
      <point x="1033" y="841"/>
      <point x="1033" y="623" type="qcurve" smooth="yes"/>
      <point x="1033" y="535" type="line" smooth="yes"/>
      <point x="1033" y="290"/>
      <point x="759" y="-21"/>
      <point x="552" y="-21" type="qcurve" smooth="yes"/>
      <point x="345" y="-21"/>
      <point x="78" y="253"/>
      <point x="78" y="455" type="qcurve" smooth="yes"/>
      <point x="78" y="690"/>
      <point x="338" y="965"/>
      <point x="555" y="965" type="qcurve" smooth="yes"/>
      <point x="659" y="965"/>
      <point x="838" y="885"/>
      <point x="892" y="818" type="qcurve"/>
      <point x="896" y="823" type="line"/>
      <point x="878" y="954"/>
      <point x="778" y="1160"/>
      <point x="702" y="1239" type="qcurve"/>
      <point x="394" y="1063" type="line"/>
      <point x="343" y="1137" type="line"/>
      <point x="631" y="1301" type="line"/>
      <point x="586" y="1334"/>
      <point x="487" y="1390"/>
      <point x="433" y="1413" type="qcurve"/>
      <point x="471" y="1517" type="line"/>
      <point x="548" y="1487"/>
      <point x="682" y="1410"/>
      <point x="739" y="1363" type="qcurve"/>
      <point x="997" y="1511" type="line"/>
      <point x="1048" y="1437" type="line"/>
    </contour>
    <contour>
      <point x="914" y="625" type="line" smooth="yes"/>
      <point x="914" y="634"/>
      <point x="913" y="670"/>
      <point x="913" y="679" type="qcurve"/>
      <point x="876" y="756"/>
      <point x="695" y="861"/>
      <point x="555" y="861" type="qcurve" smooth="yes"/>
      <point x="383" y="861"/>
      <point x="198" y="631"/>
      <point x="198" y="455" type="qcurve" smooth="yes"/>
      <point x="198" y="306"/>
      <point x="392" y="82"/>
      <point x="556" y="82" type="qcurve" smooth="yes"/>
      <point x="715" y="82"/>
      <point x="914" y="337"/>
      <point x="914" y="535" type="qcurve" smooth="yes"/>
    </contour>
  </outline>
</glyph>
<glyph name="oslash" format="1">
  <advance width="1152"/>
  <unicode hex="00F8"/>
  <outline>
    <contour>
      <point x="97" y="557" type="line" smooth="yes"/>
      <point x="97.0" y="875.6666666666665"/>
      <point x="287.0" y="1102.0"/>
      <point x="575" y="1102" type="curve" smooth="yes"/>
      <point x="657.6666666666667" y="1102.0"/>
      <point x="734.0" y="1081.6666666666665"/>
      <point x="802" y="1047" type="curve"/>
      <point x="888" y="1214" type="line"/>
      <point x="981" y="1214" type="line"/>
      <point x="871" y="1000" type="line"/>
      <point x="987.0" y="902.6666666666667"/>
      <point x="1054.0" y="743.6666666666667"/>
      <point x="1054" y="557" type="curve" smooth="yes"/>
      <point x="1054" y="524" type="line" smooth="yes"/>
      <point x="1054.0" y="204.0"/>
      <point x="865.0" y="-21.0"/>
      <point x="577" y="-21" type="curve" smooth="yes"/>
      <point x="499.66666666666674" y="-21.0"/>
      <point x="430.33333333333337" y="-6.666666666666664"/>
      <point x="369" y="24" type="curve"/>
      <point x="285" y="-140" type="line"/>
      <point x="192" y="-140" type="line"/>
      <point x="298" y="67" type="line"/>
      <point x="170.0" y="161.66666666666666"/>
      <point x="97.0" y="326.66666666666674"/>
      <point x="97" y="524" type="curve" smooth="yes"/>
    </contour>
    <contour>
      <point x="217" y="524" type="line" smooth="yes"/>
      <point x="217.0" y="377.33333333333337"/>
      <point x="263.0" y="247.33333333333331"/>
      <point x="347" y="174" type="curve"/>
      <point x="353" y="174" type="line"/>
      <point x="752" y="950" type="line"/>
      <point x="701.3333333333333" y="982.0"/>
      <point x="641.6666666666667" y="1000.0"/>
      <point x="575" y="1000" type="curve" smooth="yes"/>
      <point x="351.0" y="1000.0"/>
      <point x="217.0" y="803.6666666666667"/>
      <point x="217" y="557" type="curve" smooth="yes"/>
    </contour>
    <contour>
      <point x="934" y="557" type="line" smooth="yes"/>
      <point x="934.0" y="690.3333333333333"/>
      <point x="892.3333333333333" y="813.0"/>
      <point x="819" y="889" type="curve"/>
      <point x="814" y="889" type="line"/>
      <point x="417" y="118" type="line"/>
      <point x="462.3333333333333" y="92.66666666666669"/>
      <point x="515.6666666666667" y="80.0"/>
      <point x="577" y="80" type="curve" smooth="yes"/>
      <point x="799.6666666666667" y="80.0"/>
      <point x="934.0" y="273.3333333333333"/>
      <point x="934" y="524" type="curve" smooth="yes"/>
    </contour>
  </outline>
</glyph>
<glyph name="thorn" format="2">
  <advance width="1191"/>
  <unicode hex="00FE"/>
  <outline>
    <contour>
      <point x="47" y="-327" type="line"/>
      <point x="210" y="-314" type="line"/>
      <point x="210" y="1458" type="line"/>
      <point x="47" y="1471" type="line"/>
      <point x="47" y="1560" type="line"/>
      <point x="329" y="1560" type="line"/>
      <point x="329" y="920" type="line"/>
      <point x="383" y="1007"/>
      <point x="552" y="1102"/>
      <point x="666" y="1102" type="qcurve" smooth="yes"/>
      <point x="861" y="1102"/>
      <point x="1081" y="791"/>
      <point x="1081" y="532" type="qcurve" smooth="yes"/>
      <point x="1081" y="511" type="line" smooth="yes"/>
      <point x="1081" y="268"/>
      <point x="861" y="-21"/>
      <point x="668" y="-21" type="qcurve" smooth="yes"/>
      <point x="554" y="-21"/>
      <point x="383" y="66"/>
      <point x="329" y="146" type="qcurve"/>
      <point x="329" y="-314" type="line"/>
      <point x="492" y="-327" type="line"/>
      <point x="492" y="-416" type="line"/>
      <point x="47" y="-416" type="line"/>
    </contour>
    <contour>
      <point x="961" y="532" type="line" smooth="yes"/>
      <point x="961" y="738"/>
      <point x="797" y="998"/>
      <point x="639" y="998" type="qcurve" smooth="yes"/>
      <point x="518" y="998"/>
      <point x="367" y="883"/>
      <point x="329" y="791" type="qcurve"/>
      <point x="329" y="271" type="line"/>
      <point x="370" y="182"/>
      <point x="525" y="80"/>
      <point x="641" y="80" type="qcurve" smooth="yes"/>
      <point x="798" y="80"/>
      <point x="961" y="316"/>
      <point x="961" y="511" type="qcurve" smooth="yes"/>
    </contour>
  </outline>
</glyph>
<glyph name="dcroat" format="2">
  <advance width="1246"/>
  <unicode hex="0111"/>
  <outline>
    <contour>
      <point x="849" y="156" type="line"/>
      <point x="795" y="71"/>
      <point x="625" y="-21"/>
      <point x="510" y="-21" type="qcurve" smooth="yes"/>
      <point x="316" y="-21"/>
      <point x="97" y="269"/>
      <point x="97" y="511" type="qcurve" smooth="yes"/>
      <point x="97" y="532" type="line" smooth="yes"/>
      <point x="97" y="791"/>
      <point x="316" y="1102"/>
      <point x="512" y="1102" type="qcurve" smooth="yes"/>
      <point x="625" y="1102"/>
      <point x="791" y="1007"/>
      <point x="846" y="919" type="qcurve"/>
      <point x="846" y="1209" type="line"/>
      <point x="563" y="1209" type="line"/>
      <point x="563" y="1311" type="line"/>
      <point x="846" y="1311" type="line"/>
      <point x="846" y="1458" type="line"/>
      <point x="683" y="1471" type="line"/>
      <point x="683" y="1560" type="line"/>
      <point x="966" y="1560" type="line"/>
      <point x="966" y="1311" type="line"/>
      <point x="1175" y="1311" type="line"/>
      <point x="1175" y="1209" type="line"/>
      <point x="966" y="1209" type="line"/>
      <point x="966" y="101" type="line"/>
      <point x="1129" y="88" type="line"/>
      <point x="1129" y="0" type="line"/>
      <point x="859" y="0" type="line"/>
    </contour>
    <contour>
      <point x="218" y="511" type="line" smooth="yes"/>
      <point x="218" y="315"/>
      <point x="375" y="83"/>
      <point x="533" y="83" type="qcurve" smooth="yes"/>
      <point x="648" y="83"/>
      <point x="803" y="187"/>
      <point x="846" y="278" type="qcurve"/>
      <point x="846" y="790" type="line"/>
      <point x="806" y="882"/>
      <point x="655" y="998"/>
      <point x="535" y="998" type="qcurve" smooth="yes"/>
      <point x="377" y="998"/>
      <point x="218" y="739"/>
      <point x="218" y="532" type="qcurve" smooth="yes"/>
    </contour>
  </outline>
</glyph>
<glyph name="Hbar" format="1">
  <advance width="1486"/>
  <unicode hex="0126"/>
  <outline>
    <contour>
      <point x="1437" y="1456" type="line"/>
      <point x="1437" y="1367" type="line"/>
      <point x="1274" y="1354" type="line"/>
      <point x="1274" y="1090" type="line"/>
      <point x="1408" y="1090" type="line"/>
      <point x="1408" y="993" type="line"/>
      <point x="1274" y="993" type="line"/>
      <point x="1274" y="101" type="line"/>
      <point x="1437" y="88" type="line"/>
      <point x="1437" y="0" type="line"/>
      <point x="992" y="0" type="line"/>
      <point x="992" y="88" type="line"/>
      <point x="1155" y="101" type="line"/>
      <point x="1155" y="670" type="line"/>
      <point x="327" y="670" type="line"/>
      <point x="327" y="101" type="line"/>
      <point x="490" y="88" type="line"/>
      <point x="490" y="0" type="line"/>
      <point x="45" y="0" type="line"/>
      <point x="45" y="88" type="line"/>
      <point x="208" y="101" type="line"/>
      <point x="208" y="993" type="line"/>
      <point x="49" y="993" type="line"/>
      <point x="49" y="1090" type="line"/>
      <point x="208" y="1090" type="line"/>
      <point x="208" y="1354" type="line"/>
      <point x="45" y="1367" type="line"/>
      <point x="45" y="1456" type="line"/>
      <point x="490" y="1456" type="line"/>
      <point x="490" y="1367" type="line"/>
      <point x="327" y="1354" type="line"/>
      <point x="327" y="1090" type="line"/>
      <point x="1155" y="1090" type="line"/>
      <point x="1155" y="1354" type="line"/>
      <point x="992" y="1367" type="line"/>
      <point x="992" y="1456" type="line"/>
      <point x="1155" y="1456" type="line"/>
      <point x="1274" y="1456" type="line"/>
    </contour>
    <contour>
      <point x="327" y="772" type="line"/>
      <point x="1155" y="772" type="line"/>
      <point x="1155" y="993" type="line"/>
      <point x="327" y="993" type="line"/>
    </contour>
  </outline>
</glyph>
<glyph name="hbar" format="2">
  <advance width="1328"/>
  <unicode hex="0127"/>
  <outline>
    <contour>
      <point x="81" y="1209" type="line"/>
      <point x="81" y="1311" type="line"/>
      <point x="255" y="1311" type="line"/>
      <point x="255" y="1458" type="line"/>
      <point x="92" y="1471" type="line"/>
      <point x="92" y="1560" type="line"/>
      <point x="374" y="1560" type="line"/>
      <point x="374" y="1311" type="line"/>
      <point x="693" y="1311" type="line"/>
      <point x="693" y="1209" type="line"/>
      <point x="374" y="1209" type="line"/>
      <point x="374" y="897" type="line"/>
      <point x="428" y="994"/>
      <point x="608" y="1102"/>
      <point x="728" y="1102" type="qcurve" smooth="yes"/>
      <point x="899" y="1102"/>
      <point x="1082" y="890"/>
      <point x="1082" y="667" type="qcurve" smooth="yes"/>
      <point x="1082" y="101" type="line"/>
      <point x="1245" y="88" type="line"/>
      <point x="1245" y="0" type="line"/>
      <point x="799" y="0" type="line"/>
      <point x="799" y="88" type="line"/>
      <point x="962" y="101" type="line"/>
      <point x="962" y="669" type="line" smooth="yes"/>
      <point x="962" y="845"/>
      <point x="823" y="998"/>
      <point x="701" y="998" type="qcurve" smooth="yes"/>
      <point x="578" y="998"/>
      <point x="413" y="869"/>
      <point x="374" y="762" type="qcurve"/>
      <point x="374" y="101" type="line"/>
      <point x="537" y="88" type="line"/>
      <point x="537" y="0" type="line"/>
      <point x="92" y="0" type="line"/>
      <point x="92" y="88" type="line"/>
      <point x="255" y="101" type="line"/>
      <point x="255" y="1209" type="line"/>
    </contour>
  </outline>
</glyph>
<glyph name="idotless" format="1">
  <advance width="637"/>
  <unicode hex="0131"/>
  <outline>
    <contour>
      <point x="90" y="993" type="line"/>
      <point x="90" y="1082" type="line"/>
      <point x="372" y="1082" type="line"/>
      <point x="372" y="101" type="line"/>
      <point x="535" y="88" type="line"/>
      <point x="535" y="0" type="line"/>
      <point x="90" y="0" type="line"/>
      <point x="90" y="88" type="line"/>
      <point x="253" y="101" type="line"/>
      <point x="253" y="980" type="line"/>
    </contour>
  </outline>
</glyph>
<glyph name="lslash" format="1">
  <advance width="579"/>
  <unicode hex="0142"/>
  <outline>
    <contour>
      <point x="344" y="856" type="line"/>
      <point x="531" y="930" type="line"/>
      <point x="531" y="821" type="line"/>
      <point x="344" y="747" type="line"/>
      <point x="344" y="101" type="line"/>
      <point x="507" y="88" type="line"/>
      <point x="507" y="0" type="line"/>
      <point x="62" y="0" type="line"/>
      <point x="62" y="88" type="line"/>
      <point x="225" y="101" type="line"/>
      <point x="225" y="700" type="line"/>
      <point x="57" y="634" type="line"/>
      <point x="57" y="743" type="line"/>
      <point x="225" y="809" type="line"/>
      <point x="225" y="1458" type="line"/>
      <point x="62" y="1471" type="line"/>
      <point x="62" y="1560" type="line"/>
      <point x="344" y="1560" type="line"/>
    </contour>
  </outline>
</glyph>
<glyph name="Eng" format="2">
  <advance width="1547"/>
  <unicode hex="014A"/>
  <outline>
    <contour>
      <point x="70" y="1367" type="line"/>
      <point x="70" y="1456" type="line"/>
      <point x="352" y="1456" type="line"/>
      <point x="1180" y="211" type="line"/>
      <point x="1186" y="212" type="line"/>
      <point x="1186" y="1354" type="line"/>
      <point x="1023" y="1367" type="line"/>
      <point x="1023" y="1456" type="line"/>
      <point x="1186" y="1456" type="line"/>
      <point x="1306" y="1456" type="line"/>
      <point x="1469" y="1456" type="line"/>
      <point x="1469" y="1367" type="line"/>
      <point x="1306" y="1354" type="line"/>
      <point x="1306" y="-89" type="line" smooth="yes"/>
      <point x="1306" y="-256"/>
      <point x="1145" y="-437"/>
      <point x="1002" y="-437" type="qcurve" smooth="yes"/>
      <point x="971" y="-437"/>
      <point x="919" y="-427"/>
      <point x="890" y="-418" type="qcurve"/>
      <point x="903" y="-319" type="line"/>
      <point x="918" y="-324"/>
      <point x="980" y="-335"/>
      <point x="1002" y="-335" type="qcurve" smooth="yes"/>
      <point x="1089" y="-335"/>
      <point x="1186" y="-206"/>
      <point x="1186" y="-89" type="qcurve" smooth="yes"/>
      <point x="1186" y="0" type="line"/>
      <point x="358" y="1246" type="line"/>
      <point x="352" y="1245" type="line"/>
      <point x="352" y="101" type="line"/>
      <point x="515" y="88" type="line"/>
      <point x="515" y="0" type="line"/>
      <point x="70" y="0" type="line"/>
      <point x="70" y="88" type="line"/>
      <point x="233" y="101" type="line"/>
      <point x="233" y="1354" type="line"/>
    </contour>
  </outline>
</glyph>
<glyph name="eng" format="1">
  <advance width="1242"/>
  <unicode hex="014B"/>
  <outline>
    <contour>
      <point x="90" y="993" type="line"/>
      <point x="90" y="1082" type="line"/>
      <point x="359" y="1082" type="line"/>
      <point x="369" y="897" type="line"/>
      <point x="439.66666666666663" y="1026.3333333333333"/>
      <point x="557.3333333333333" y="1102.0"/>
      <point x="716" y="1102" type="curve" smooth="yes"/>
      <point x="950.6666666666667" y="1102.0"/>
      <point x="1076.0" y="964.3333333333333"/>
      <point x="1076" y="659" type="curve" smooth="yes"/>
      <point x="1076" y="-89" type="line" smooth="yes"/>
      <point x="1076.0" y="-311.6666666666665"/>
      <point x="962.6666666666669" y="-437.0"/>
      <point x="772" y="-437" type="curve" smooth="yes"/>
      <point x="726.6666666666667" y="-437.0"/>
      <point x="691.6666666666667" y="-430.0"/>
      <point x="649" y="-418" type="curve"/>
      <point x="662" y="-315" type="line"/>
      <point x="683.3333333333333" y="-321.66666666666663"/>
      <point x="738.6666666666667" y="-330.0"/>
      <point x="772" y="-330" type="curve" smooth="yes"/>
      <point x="889.3333333333333" y="-330.0"/>
      <point x="956.0" y="-243.66666666666666"/>
      <point x="956" y="-89" type="curve" smooth="yes"/>
      <point x="956" y="658" type="line" smooth="yes"/>
      <point x="956.0" y="906.0"/>
      <point x="859.6666666666667" y="998.0"/>
      <point x="689" y="998" type="curve" smooth="yes"/>
      <point x="522.3333333333333" y="998.0"/>
      <point x="420.0" y="911.3333333333333"/>
      <point x="372" y="774" type="curve"/>
      <point x="372" y="101" type="line"/>
      <point x="535" y="88" type="line"/>
      <point x="535" y="0" type="line"/>
      <point x="90" y="0" type="line"/>
      <point x="90" y="88" type="line"/>
      <point x="253" y="101" type="line"/>
      <point x="253" y="980" type="line"/>
    </contour>
  </outline>
</glyph>
<glyph name="OE" format="1">
  <advance width="1971"/>
  <unicode hex="0152"/>
  <outline>
    <contour>
      <point x="963" y="0" type="line"/>
      <point x="831.0" y="-13.333333333333332"/>
      <point x="749.3333333333333" y="-21.0"/>
      <point x="652" y="-21" type="curve" smooth="yes"/>
      <point x="332.0" y="-21.0"/>
      <point x="114.0" y="222.66666666666674"/>
      <point x="114" y="576" type="curve" smooth="yes"/>
      <point x="114" y="880" type="line" smooth="yes"/>
      <point x="114.0" y="1233.3333333333335"/>
      <point x="331.33333333333337" y="1477.0"/>
      <point x="650" y="1477" type="curve" smooth="yes"/>
      <point x="750.0" y="1477.0"/>
      <point x="849.6666666666667" y="1468.0"/>
      <point x="963" y="1456" type="curve"/>
      <point x="1852" y="1456" type="line"/>
      <point x="1852" y="1136" type="line"/>
      <point x="1746" y="1136" type="line"/>
      <point x="1737" y="1354" type="line"/>
      <point x="1054" y="1354" type="line"/>
      <point x="1054" y="807" type="line"/>
      <point x="1651" y="807" type="line"/>
      <point x="1651" y="705" type="line"/>
      <point x="1054" y="705" type="line"/>
      <point x="1054" y="101" type="line"/>
      <point x="1742" y="101" type="line"/>
      <point x="1751" y="319" type="line"/>
      <point x="1857" y="319" type="line"/>
      <point x="1857" y="0" type="line"/>
    </contour>
    <contour>
      <point x="652" y="81" type="curve" smooth="yes"/>
      <point x="690.6666666666667" y="81.0"/>
      <point x="732.0" y="81.33333333333334"/>
      <point x="772" y="84" type="curve"/>
      <point x="772" y="88" type="line"/>
      <point x="935" y="101" type="line"/>
      <point x="935" y="1354" type="line"/>
      <point x="772" y="1367" type="line"/>
      <point x="772" y="1372" type="line"/>
      <point x="732.0" y="1373.3333333333335"/>
      <point x="690.0" y="1375.0"/>
      <point x="650" y="1375" type="curve" smooth="yes"/>
      <point x="394.0" y="1375.0"/>
      <point x="234.0" y="1187.3333333333335"/>
      <point x="234" y="882" type="curve" smooth="yes"/>
      <point x="234" y="576" type="line" smooth="yes"/>
      <point x="234.0" y="272.0"/>
      <point x="397.33333333333326" y="81.0"/>
    </contour>
  </outline>
</glyph>
<glyph name="oe" format="2">
  <advance width="1916"/>
  <unicode hex="0153"/>
  <outline>
    <contour>
      <point x="104" y="557" type="line" smooth="yes"/>
      <point x="104" y="796"/>
      <point x="365" y="1102"/>
      <point x="581" y="1102" type="qcurve" smooth="yes"/>
      <point x="727" y="1102"/>
      <point x="946" y="957"/>
      <point x="1005" y="830" type="qcurve"/>
      <point x="1064" y="955"/>
      <point x="1278" y="1102"/>
      <point x="1405" y="1102" type="qcurve" smooth="yes"/>
      <point x="1604" y="1102"/>
      <point x="1832" y="850"/>
      <point x="1832" y="640" type="qcurve" smooth="yes"/>
      <point x="1832" y="538" type="line"/>
      <point x="1068" y="538" type="line"/>
      <point x="1068" y="509" type="line" smooth="yes"/>
      <point x="1068" y="326"/>
      <point x="1262" y="80"/>
      <point x="1420" y="80" type="qcurve" smooth="yes"/>
      <point x="1532" y="80"/>
      <point x="1690" y="142"/>
      <point x="1746" y="200" type="qcurve"/>
      <point x="1797" y="118" type="line"/>
      <point x="1736" y="54"/>
      <point x="1549" y="-21"/>
      <point x="1420" y="-21" type="qcurve" smooth="yes"/>
      <point x="1282" y="-21"/>
      <point x="1062" y="123"/>
      <point x="1003" y="248" type="qcurve"/>
      <point x="945" y="122"/>
      <point x="727" y="-21"/>
      <point x="583" y="-21" type="qcurve" smooth="yes"/>
      <point x="366" y="-21"/>
      <point x="104" y="284"/>
      <point x="104" y="524" type="qcurve" smooth="yes"/>
    </contour>
    <contour>
      <point x="223" y="524" type="line" smooth="yes"/>
      <point x="223" y="336"/>
      <point x="413" y="80"/>
      <point x="583" y="80" type="qcurve" smooth="yes"/>
      <point x="750" y="80"/>
      <point x="941" y="336"/>
      <point x="941" y="524" type="qcurve" smooth="yes"/>
      <point x="941" y="557" type="line" smooth="yes"/>
      <point x="941" y="742"/>
      <point x="749" y="1000"/>
      <point x="581" y="1000" type="qcurve" smooth="yes"/>
      <point x="413" y="1000"/>
      <point x="223" y="742"/>
      <point x="223" y="557" type="qcurve" smooth="yes"/>
    </contour>
    <contour>
      <point x="1405" y="1000" type="qcurve" smooth="yes"/>
      <point x="1273" y="1000"/>
      <point x="1092" y="797"/>
      <point x="1077" y="644" type="qcurve"/>
      <point x="1079" y="639" type="line"/>
      <point x="1713" y="639" type="line"/>
      <point x="1713" y="669" type="line" smooth="yes"/>
      <point x="1713" y="810"/>
      <point x="1547" y="1000"/>
    </contour>
  </outline>
</glyph>
<glyph name="tbar" format="2">
  <advance width="733"/>
  <unicode hex="0167"/>
  <outline>
    <contour>
      <point x="372" y="1359" type="line"/>
      <point x="372" y="1082" type="line"/>
      <point x="610" y="1082" type="line"/>
      <point x="610" y="984" type="line"/>
      <point x="372" y="984" type="line"/>
      <point x="372" y="719" type="line"/>
      <point x="657" y="719" type="line"/>
      <point x="657" y="617" type="line"/>
      <point x="372" y="617" type="line"/>
      <point x="372" y="279" type="line" smooth="yes"/>
      <point x="372" y="173"/>
      <point x="449" y="84"/>
      <point x="513" y="84" type="qcurve" smooth="yes"/>
      <point x="542" y="84"/>
      <point x="597" y="89"/>
      <point x="633" y="95" type="qcurve"/>
      <point x="651" y="6" type="line"/>
      <point x="621" y="-7"/>
      <point x="535" y="-21"/>
      <point x="492" y="-21" type="qcurve" smooth="yes"/>
      <point x="378" y="-21"/>
      <point x="251" y="123"/>
      <point x="251" y="279" type="qcurve" smooth="yes"/>
      <point x="251" y="617" type="line"/>
      <point x="45" y="617" type="line"/>
      <point x="45" y="719" type="line"/>
      <point x="251" y="719" type="line"/>
      <point x="251" y="984" type="line"/>
      <point x="65" y="984" type="line"/>
      <point x="65" y="1082" type="line"/>
      <point x="251" y="1082" type="line"/>
      <point x="251" y="1359" type="line"/>
    </contour>
  </outline>
</glyph>
<glyph name="longs" format="2">
  <advance width="715"/>
  <unicode hex="017F"/>
  <outline>
    <contour>
      <point x="220" y="1240" type="line"/>
      <point x="220" y="1403"/>
      <point x="383" y="1581"/>
      <point x="530" y="1581" type="qcurve" smooth="yes"/>
      <point x="563" y="1581"/>
      <point x="631" y="1571"/>
      <point x="665" y="1562" type="qcurve"/>
      <point x="650" y="1466" type="line"/>
      <point x="625" y="1472"/>
      <point x="577" y="1479"/>
      <point x="545" y="1479" type="qcurve" smooth="yes"/>
      <point x="447" y="1479"/>
      <point x="339" y="1352"/>
      <point x="339" y="1240" type="qcurve" smooth="yes"/>
      <point x="339" y="101" type="line"/>
      <point x="502" y="88" type="line"/>
      <point x="502" y="0" type="line"/>
      <point x="57" y="0" type="line"/>
      <point x="57" y="88" type="line"/>
      <point x="220" y="101" type="line"/>
      <point x="220" y="1240" type="line"/>
    </contour>
  </outline>
</glyph>
<glyph name="florin" format="2">
  <advance width="774"/>
  <unicode hex="0192"/>
  <outline>
    <contour>
      <point x="657" y="984" type="line"/>
      <point x="412" y="984" type="line"/>
      <point x="412" y="-89" type="line" smooth="yes"/>
      <point x="412" y="-256"/>
      <point x="252" y="-437"/>
      <point x="109" y="-437" type="qcurve" smooth="yes"/>
      <point x="78" y="-437"/>
      <point x="25" y="-427"/>
      <point x="-3" y="-418" type="qcurve"/>
      <point x="10" y="-319" type="line"/>
      <point x="25" y="-325"/>
      <point x="87" y="-335"/>
      <point x="109" y="-335" type="qcurve" smooth="yes"/>
      <point x="196" y="-335"/>
      <point x="292" y="-205"/>
      <point x="292" y="-89" type="qcurve" smooth="yes"/>
      <point x="292" y="984" type="line"/>
      <point x="113" y="984" type="line"/>
      <point x="113" y="1082" type="line"/>
      <point x="292" y="1082" type="line"/>
      <point x="292" y="1240" type="line" smooth="yes"/>
      <point x="292" y="1403"/>
      <point x="456" y="1581"/>
      <point x="603" y="1581" type="qcurve" smooth="yes"/>
      <point x="635" y="1581"/>
      <point x="703" y="1571"/>
      <point x="738" y="1562" type="qcurve"/>
      <point x="723" y="1463" type="line"/>
      <point x="699" y="1469"/>
      <point x="649" y="1476"/>
      <point x="615" y="1476" type="qcurve" smooth="yes"/>
      <point x="517" y="1476"/>
      <point x="412" y="1352"/>
      <point x="412" y="1240" type="qcurve" smooth="yes"/>
      <point x="412" y="1082" type="line"/>
      <point x="657" y="1082" type="line"/>
    </contour>
  </outline>
</glyph>
<glyph name="Ohorn" format="2">
  <advance width="1468"/>
  <unicode hex="01A0"/>
  <outline>
    <contour>
      <point x="1349" y="718" type="line" smooth="yes"/>
      <point x="1349" y="390"/>
      <point x="999" y="-21"/>
      <point x="719" y="-21" type="qcurve" smooth="yes"/>
      <point x="443" y="-21"/>
      <point x="98" y="391"/>
      <point x="98" y="718" type="qcurve" smooth="yes"/>
      <point x="98" y="737" type="line" smooth="yes"/>
      <point x="98" y="1064"/>
      <point x="442" y="1477"/>
      <point x="718" y="1477" type="qcurve" smooth="yes"/>
      <point x="853" y="1477"/>
      <point x="1081" y="1374"/>
      <point x="1165" y="1279" type="qcurve"/>
      <point x="1276" y="1288"/>
      <point x="1366" y="1430"/>
      <point x="1366" y="1566" type="qcurve"/>
      <point x="1477" y="1566" type="line"/>
      <point x="1477" y="1406"/>
      <point x="1355" y="1219"/>
      <point x="1229" y="1194" type="qcurve"/>
      <point x="1287" y="1100"/>
      <point x="1349" y="869"/>
      <point x="1349" y="737" type="qcurve" smooth="yes"/>
    </contour>
    <contour>
      <point x="1229" y="739" type="line" smooth="yes"/>
      <point x="1229" y="1022"/>
      <point x="953" y="1372"/>
      <point x="718" y="1372" type="qcurve" smooth="yes"/>
      <point x="487" y="1372"/>
      <point x="218" y="1022"/>
      <point x="218" y="739" type="qcurve" smooth="yes"/>
      <point x="218" y="718" type="line" smooth="yes"/>
      <point x="218" y="433"/>
      <point x="488" y="83"/>
      <point x="719" y="83" type="qcurve" smooth="yes"/>
      <point x="956" y="83"/>
      <point x="1229" y="432"/>
      <point x="1229" y="718" type="qcurve" smooth="yes"/>
    </contour>
  </outline>
</glyph>
<glyph name="ohorn" format="2">
  <advance width="1263"/>
  <unicode hex="01A1"/>
  <outline>
    <contour>
      <point x="103" y="557" type="line" smooth="yes"/>
      <point x="103" y="796"/>
      <point x="365" y="1102"/>
      <point x="581" y="1102" type="qcurve" smooth="yes"/>
      <point x="684" y="1102"/>
      <point x="857" y="1027"/>
      <point x="921" y="959" type="qcurve"/>
      <point x="1013" y="968"/>
      <point x="1076" y="1083"/>
      <point x="1076" y="1198" type="qcurve"/>
      <point x="1179" y="1198" type="line"/>
      <point x="1179" y="1062"/>
      <point x="1084" y="904"/>
      <point x="977" y="882" type="qcurve"/>
      <point x="1017" y="814"/>
      <point x="1060" y="648"/>
      <point x="1060" y="557" type="qcurve" smooth="yes"/>
      <point x="1060" y="524" type="line" smooth="yes"/>
      <point x="1060" y="284"/>
      <point x="799" y="-21"/>
      <point x="583" y="-21" type="qcurve" smooth="yes"/>
      <point x="365" y="-21"/>
      <point x="103" y="284"/>
      <point x="103" y="524" type="qcurve" smooth="yes"/>
    </contour>
    <contour>
      <point x="223" y="524" type="line" smooth="yes"/>
      <point x="223" y="336"/>
      <point x="413" y="80"/>
      <point x="583" y="80" type="qcurve" smooth="yes"/>
      <point x="750" y="80"/>
      <point x="940" y="336"/>
      <point x="940" y="524" type="qcurve" smooth="yes"/>
      <point x="940" y="557" type="line" smooth="yes"/>
      <point x="940" y="742"/>
      <point x="749" y="1000"/>
      <point x="581" y="1000" type="qcurve" smooth="yes"/>
      <point x="413" y="1000"/>
      <point x="223" y="742"/>
      <point x="223" y="557" type="qcurve" smooth="yes"/>
    </contour>
  </outline>
</glyph>
<glyph name="Uhorn" format="1">
  <advance width="1603"/>
  <unicode hex="01AF"/>
  <outline>
    <contour>
      <point x="1244" y="1456" type="line"/>
      <point x="1244" y="1254" type="line"/>
      <point x="1250" y="1253" type="line"/>
      <point x="1418.0" y="1254.3333333333335"/>
      <point x="1475.0" y="1351.3333333333335"/>
      <point x="1475" y="1550" type="curve"/>
      <point x="1578" y="1550" type="line"/>
      <point x="1580" y="1545" type="line"/>
      <point x="1584.0" y="1294.3333333333335"/>
      <point x="1482.6666666666665" y="1160.3333333333335"/>
      <point x="1244" y="1151" type="curve"/>
      <point x="1244" y="469" type="line" smooth="yes"/>
      <point x="1244.0" y="152.9999999999999"/>
      <point x="1029.6666666666665" y="-21.0"/>
      <point x="719" y="-21" type="curve" smooth="yes"/>
      <point x="411.0" y="-21.0"/>
      <point x="202.0" y="153.0"/>
      <point x="202" y="469" type="curve" smooth="yes"/>
      <point x="202" y="1354" type="line"/>
      <point x="39" y="1367" type="line"/>
      <point x="39" y="1456" type="line"/>
      <point x="202" y="1456" type="line"/>
      <point x="321" y="1456" type="line"/>
      <point x="484" y="1456" type="line"/>
      <point x="484" y="1367" type="line"/>
      <point x="321" y="1354" type="line"/>
      <point x="321" y="469" type="line" smooth="yes"/>
      <point x="321.0" y="221.0"/>
      <point x="483.0" y="80.0"/>
      <point x="719" y="80" type="curve" smooth="yes"/>
      <point x="957.6666666666666" y="80.0"/>
      <point x="1124.0" y="219.66666666666663"/>
      <point x="1124" y="469" type="curve" smooth="yes"/>
      <point x="1124" y="1354" type="line"/>
      <point x="961" y="1367" type="line"/>
      <point x="961" y="1456" type="line"/>
      <point x="1124" y="1456" type="line"/>
    </contour>
  </outline>
</glyph>
<glyph name="uhorn" format="1">
  <advance width="1374"/>
  <unicode hex="01B0"/>
  <outline>
    <contour>
      <point x="1030" y="1082" type="line"/>
      <point x="1030" y="947" type="line"/>
      <point x="1036" y="945" type="line"/>
      <point x="1182.6666666666663" y="943.6666666666667"/>
      <point x="1216.0" y="1008.6666666666663"/>
      <point x="1216" y="1174" type="curve"/>
      <point x="1303" y="1174" type="line"/>
      <point x="1305" y="1169" type="line"/>
      <point x="1309.0" y="963.6666666666665"/>
      <point x="1236.6666666666665" y="864.3333333333333"/>
      <point x="1030" y="859" type="curve"/>
      <point x="1030" y="101" type="line"/>
      <point x="1175" y="88" type="line"/>
      <point x="1175" y="0" type="line"/>
      <point x="925" y="0" type="line"/>
      <point x="914" y="178" type="line"/>
      <point x="846.0" y="51.33333333333334"/>
      <point x="726.0" y="-21.0"/>
      <point x="566" y="-21" type="curve" smooth="yes"/>
      <point x="338.00000000000006" y="-21.0"/>
      <point x="202.0" y="129.66666666666669"/>
      <point x="202" y="455" type="curve" smooth="yes"/>
      <point x="202" y="980" type="line"/>
      <point x="68" y="993" type="line"/>
      <point x="68" y="1082" type="line"/>
      <point x="202" y="1082" type="line"/>
      <point x="321" y="1082" type="line"/>
      <point x="321" y="453" type="line" smooth="yes"/>
      <point x="321.0" y="189.0"/>
      <point x="414.66666666666674" y="83.0"/>
      <point x="580" y="83" type="curve" smooth="yes"/>
      <point x="761.3333333333333" y="83.0"/>
      <point x="866.0" y="167.66666666666669"/>
      <point x="910" y="309" type="curve"/>
      <point x="910" y="980" type="line"/>
      <point x="756" y="993" type="line"/>
      <point x="756" y="1082" type="line"/>
      <point x="910" y="1082" type="line"/>
    </contour>
  </outline>
</glyph>
<glyph name="uni0237" format="2">
  <advance width="570"/>
  <unicode hex="0237"/>
  <outline>
    <contour>
      <point x="411" y="-89" type="line" smooth="yes"/>
      <point x="411" y="-256"/>
      <point x="251" y="-437"/>
      <point x="108" y="-437" type="qcurve" smooth="yes"/>
      <point x="77" y="-437"/>
      <point x="24" y="-427"/>
      <point x="-4" y="-418" type="qcurve"/>
      <point x="9" y="-319" type="line"/>
      <point x="24" y="-325"/>
      <point x="86" y="-335"/>
      <point x="108" y="-335" type="qcurve" smooth="yes"/>
      <point x="195" y="-335"/>
      <point x="291" y="-205"/>
      <point x="291" y="-89" type="qcurve" smooth="yes"/>
      <point x="291" y="980" type="line"/>
      <point x="128" y="993" type="line"/>
      <point x="128" y="1082" type="line"/>
      <point x="411" y="1082" type="line"/>
    </contour>
  </outline>
</glyph>
<glyph name="schwa" format="2">
  <advance width="1070"/>
  <unicode hex="0259"/>
  <outline>
    <contour>
      <point x="506" y="1102" type="qcurve" smooth="yes"/>
      <point x="709" y="1102"/>
      <point x="978" y="802"/>
      <point x="978" y="572" type="qcurve" smooth="yes"/>
      <point x="978" y="517" type="line" smooth="yes"/>
      <point x="978" y="284"/>
      <point x="710" y="-20"/>
      <point x="522" y="-20" type="qcurve" smooth="yes"/>
      <point x="322" y="-20"/>
      <point x="94" y="230"/>
      <point x="94" y="441" type="qcurve" smooth="yes"/>
      <point x="94" y="543" type="line"/>
      <point x="858" y="543" type="line"/>
      <point x="858" y="572" type="line" smooth="yes"/>
      <point x="858" y="754"/>
      <point x="663" y="1001"/>
      <point x="506" y="1001" type="qcurve" smooth="yes"/>
      <point x="393" y="1001"/>
      <point x="236" y="938"/>
      <point x="181" y="880" type="qcurve"/>
      <point x="130" y="963" type="line"/>
      <point x="190" y="1026"/>
      <point x="376" y="1102"/>
    </contour>
    <contour>
      <point x="522" y="81" type="qcurve" smooth="yes"/>
      <point x="653" y="81"/>
      <point x="832" y="282"/>
      <point x="848" y="436" type="qcurve"/>
      <point x="846" y="441" type="line"/>
      <point x="214" y="441" type="line"/>
      <point x="214" y="412" type="line" smooth="yes"/>
      <point x="214" y="270"/>
      <point x="379" y="81"/>
    </contour>
  </outline>
</glyph>
<glyph name="firsttonechinese" format="1">
  <advance width="1005"/>
  <unicode hex="02C9"/>
  <outline>
    <contour>
      <point x="824" y="1359" type="line"/>
      <point x="154" y="1359" type="line"/>
      <point x="154" y="1456" type="line"/>
      <point x="824" y="1456" type="line"/>
    </contour>
  </outline>
</glyph>
<glyph name="breve" format="2">
  <advance width="827"/>
  <unicode hex="02D8"/>
  <outline>
    <contour>
      <point x="688" y="1456" type="line"/>
      <point x="690" y="1450" type="line"/>
      <point x="694" y="1339"/>
      <point x="540" y="1198"/>
      <point x="408" y="1198" type="qcurve" smooth="yes"/>
      <point x="274" y="1198"/>
      <point x="120" y="1338"/>
      <point x="125" y="1450" type="qcurve"/>
      <point x="127" y="1456" type="line"/>
      <point x="221" y="1456" type="line"/>
      <point x="221" y="1379"/>
      <point x="311" y="1285"/>
      <point x="408" y="1285" type="qcurve" smooth="yes"/>
      <point x="502" y="1285"/>
      <point x="594" y="1381"/>
      <point x="594" y="1456" type="qcurve"/>
    </contour>
  </outline>
</glyph>
<glyph name="ring" format="2">
  <advance width="652"/>
  <unicode hex="02DA"/>
  <outline>
    <contour>
      <point x="138" y="1324" type="qcurve" smooth="yes"/>
      <point x="138" y="1393"/>
      <point x="237" y="1490"/>
      <point x="307" y="1490" type="qcurve" smooth="yes"/>
      <point x="375" y="1490"/>
      <point x="473" y="1393"/>
      <point x="473" y="1324" type="qcurve" smooth="yes"/>
      <point x="473" y="1253"/>
      <point x="376" y="1161"/>
      <point x="307" y="1161" type="qcurve" smooth="yes"/>
      <point x="236" y="1161"/>
      <point x="138" y="1253"/>
    </contour>
    <contour>
      <point x="216" y="1324" type="qcurve" smooth="yes"/>
      <point x="216" y="1285"/>
      <point x="269" y="1233"/>
      <point x="307" y="1233" type="qcurve" smooth="yes"/>
      <point x="344" y="1233"/>
      <point x="394" y="1284"/>
      <point x="394" y="1324" type="qcurve" smooth="yes"/>
      <point x="394" y="1364"/>
      <point x="344" y="1417"/>
      <point x="307" y="1417" type="qcurve" smooth="yes"/>
      <point x="269" y="1417"/>
      <point x="216" y="1364"/>
    </contour>
  </outline>
</glyph>
<glyph name="ogonek" format="2">
  <advance width="440"/>
  <unicode hex="02DB"/>
  <outline>
    <contour>
      <point x="309" y="0" type="line"/>
      <point x="237" y="-60"/>
      <point x="161" y="-156"/>
      <point x="161" y="-212" type="qcurve" smooth="yes"/>
      <point x="161" y="-243"/>
      <point x="199" y="-297"/>
      <point x="250" y="-297" type="qcurve" smooth="yes"/>
      <point x="282" y="-297"/>
      <point x="331" y="-279"/>
      <point x="355" y="-265" type="qcurve"/>
      <point x="379" y="-348" type="line"/>
      <point x="350" y="-367"/>
      <point x="277" y="-392"/>
      <point x="227" y="-392" type="qcurve" smooth="yes"/>
      <point x="151" y="-392"/>
      <point x="54" y="-303"/>
      <point x="54" y="-223" type="qcurve" smooth="yes"/>
      <point x="54" y="-153"/>
      <point x="156" y="-16"/>
      <point x="248" y="37" type="qcurve"/>
    </contour>
  </outline>
</glyph>
<glyph name="tilde" format="2">
  <advance width="934"/>
  <unicode hex="02DC"/>
  <outline>
    <contour>
      <point x="791" y="1481" type="line"/>
      <point x="791" y="1393"/>
      <point x="681" y="1277"/>
      <point x="599" y="1277" type="qcurve" smooth="yes"/>
      <point x="525" y="1277"/>
      <point x="371" y="1387"/>
      <point x="317" y="1387" type="qcurve" smooth="yes"/>
      <point x="270" y="1387"/>
      <point x="206" y="1317"/>
      <point x="206" y="1263" type="qcurve"/>
      <point x="127" y="1281" type="line"/>
      <point x="127" y="1367"/>
      <point x="234" y="1484"/>
      <point x="317" y="1484" type="qcurve" smooth="yes"/>
      <point x="382" y="1484"/>
      <point x="547" y="1374"/>
      <point x="599" y="1374" type="qcurve" smooth="yes"/>
      <point x="645" y="1374"/>
      <point x="711" y="1446"/>
      <point x="711" y="1501" type="qcurve"/>
    </contour>
  </outline>
</glyph>
<glyph name="hungarumlaut" format="1">
  <advance width="892"/>
  <unicode hex="02DD"/>
  <outline>
    <contour>
      <point x="617" y="1518" type="line"/>
      <point x="761" y="1518" type="line"/>
      <point x="763" y="1512" type="line"/>
      <point x="468" y="1252" type="line"/>
      <point x="354" y="1252" type="line"/>
      <point x="352" y="1258" type="line"/>
    </contour>
    <contour>
      <point x="321" y="1518" type="line"/>
      <point x="454" y="1518" type="line"/>
      <point x="457" y="1512" type="line"/>
      <point x="213" y="1252" type="line"/>
      <point x="111" y="1252" type="line"/>
      <point x="108" y="1257" type="line"/>
    </contour>
  </outline>
</glyph>
<glyph name="uni02F3" format="2">
  <advance width="437"/>
  <unicode hex="02F3"/>
  <outline>
    <contour>
      <point x="72" y="-237" type="qcurve" smooth="yes"/>
      <point x="72" y="-180"/>
      <point x="158" y="-97"/>
      <point x="218" y="-97" type="qcurve" smooth="yes"/>
      <point x="276" y="-97"/>
      <point x="360" y="-179"/>
      <point x="360" y="-237" type="qcurve" smooth="yes"/>
      <point x="360" y="-293"/>
      <point x="276" y="-372"/>
      <point x="218" y="-372" type="qcurve" smooth="yes"/>
      <point x="158" y="-372"/>
      <point x="72" y="-292"/>
    </contour>
    <contour>
      <point x="144" y="-237" type="qcurve" smooth="yes"/>
      <point x="144" y="-263"/>
      <point x="188" y="-304"/>
      <point x="218" y="-304" type="qcurve" smooth="yes"/>
      <point x="247" y="-304"/>
      <point x="289" y="-264"/>
      <point x="289" y="-237" type="qcurve" smooth="yes"/>
      <point x="289" y="-208"/>
      <point x="247" y="-166"/>
      <point x="218" y="-166" type="qcurve" smooth="yes"/>
      <point x="188" y="-166"/>
      <point x="144" y="-208"/>
    </contour>
  </outline>
</glyph>
<glyph name="gravecomb" format="1">
  <advance width="492"/>
  <unicode hex="0300"/>
  <outline>
    <contour>
      <point x="351" y="1214" type="line"/>
      <point x="255" y="1214" type="line"/>
      <point x="87" y="1532" type="line"/>
      <point x="212" y="1532" type="line"/>
    </contour>
  </outline>
</glyph>
<glyph name="acutecomb" format="1">
  <advance width="483"/>
  <unicode hex="0301"/>
  <outline>
    <contour>
      <point x="258" y="1533" type="line"/>
      <point x="378" y="1533" type="line"/>
      <point x="206" y="1215" type="line"/>
      <point x="118" y="1215" type="line"/>
    </contour>
  </outline>
</glyph>
<glyph name="hook" format="2">
  <advance width="569"/>
  <unicode hex="0309"/>
  <outline>
    <contour>
      <point x="169" y="1234" type="line"/>
      <point x="168" y="1359" type="line"/>
      <point x="257" y="1365"/>
      <point x="335" y="1407"/>
      <point x="335" y="1453" type="qcurve" smooth="yes"/>
      <point x="335" y="1502"/>
      <point x="218" y="1548"/>
      <point x="135" y="1548" type="qcurve"/>
      <point x="142" y="1625" type="line"/>
      <point x="277" y="1625"/>
      <point x="435" y="1531"/>
      <point x="435" y="1452" type="qcurve" smooth="yes"/>
      <point x="435" y="1378"/>
      <point x="337" y="1303"/>
      <point x="260" y="1296" type="qcurve"/>
      <point x="259" y="1234" type="line"/>
    </contour>
  </outline>
</glyph>
<glyph name="hookabovecomb" format="1">
  <advance width="569"/>
  <unicode hex="0309"/>
  <outline>
    <contour>
      <point x="169" y="1234" type="line"/>
      <point x="168" y="1359" type="line"/>
      <point x="286.66666666666663" y="1367.0"/>
      <point x="335.0" y="1391.6666666666665"/>
      <point x="335" y="1453" type="curve" smooth="yes"/>
      <point x="335.0" y="1518.3333333333335"/>
      <point x="245.66666666666663" y="1548.0"/>
      <point x="135" y="1548" type="curve"/>
      <point x="142" y="1625" type="line"/>
      <point x="322.0" y="1625.0"/>
      <point x="435.0" y="1557.3333333333335"/>
      <point x="435" y="1452" type="curve" smooth="yes"/>
      <point x="435.0" y="1353.3333333333335"/>
      <point x="362.66666666666663" y="1305.3333333333335"/>
      <point x="260" y="1296" type="curve"/>
      <point x="259" y="1234" type="line"/>
    </contour>
  </outline>
</glyph>
<glyph name="dblgravecomb" format="1">
  <advance width="892"/>
  <unicode hex="030F"/>
  <outline>
    <contour>
      <point x="496" y="1258" type="line"/>
      <point x="494" y="1252" type="line"/>
      <point x="381" y="1252" type="line"/>
      <point x="86" y="1512" type="line"/>
      <point x="88" y="1518" type="line"/>
      <point x="232" y="1518" type="line"/>
    </contour>
    <contour>
      <point x="636" y="1252" type="line"/>
      <point x="391" y="1512" type="line"/>
      <point x="394" y="1518" type="line"/>
      <point x="528" y="1518" type="line"/>
      <point x="741" y="1257" type="line"/>
      <point x="738" y="1252" type="line"/>
    </contour>
  </outline>
</glyph>
<glyph name="tonos" format="1">
  <advance width="476"/>
  <unicode hex="0384"/>
  <outline>
    <contour>
      <point x="214" y="1617" type="line"/>
      <point x="366" y="1617" type="line"/>
      <point x="207" y="1288" type="line"/>
      <point x="136" y="1288" type="line"/>
    </contour>
  </outline>
</glyph>
<glyph name="Delta" format="1">
  <advance width="1417"/>
  <unicode hex="0394"/>
  <outline>
    <contour>
      <point x="760" y="1456" type="line"/>
      <point x="1358" y="0" type="line"/>
      <point x="31" y="0" type="line"/>
      <point x="647" y="1456" type="line"/>
    </contour>
    <contour>
      <point x="197" y="101" type="line"/>
      <point x="1192" y="101" type="line"/>
      <point x="705" y="1306" type="line"/>
      <point x="699" y="1306" type="line"/>
    </contour>
  </outline>
</glyph>
<glyph name="Theta" format="2">
  <advance width="1386"/>
  <unicode hex="0398"/>
  <outline>
    <contour>
      <point x="966" y="676" type="line"/>
      <point x="412" y="676" type="line"/>
      <point x="412" y="777" type="line"/>
      <point x="966" y="777" type="line"/>
    </contour>
    <contour>
      <point x="1351" y="718" type="line" smooth="yes"/>
      <point x="1351" y="390"/>
      <point x="1001" y="-21"/>
      <point x="721" y="-21" type="qcurve" smooth="yes"/>
      <point x="445" y="-21"/>
      <point x="100" y="391"/>
      <point x="100" y="718" type="qcurve" smooth="yes"/>
      <point x="100" y="737" type="line" smooth="yes"/>
      <point x="100" y="1064"/>
      <point x="444" y="1477"/>
      <point x="720" y="1477" type="qcurve" smooth="yes"/>
      <point x="1000" y="1477"/>
      <point x="1351" y="1064"/>
      <point x="1351" y="737" type="qcurve" smooth="yes"/>
    </contour>
    <contour>
      <point x="1231" y="739" type="line" smooth="yes"/>
      <point x="1231" y="1022"/>
      <point x="955" y="1372"/>
      <point x="720" y="1372" type="qcurve" smooth="yes"/>
      <point x="489" y="1372"/>
      <point x="220" y="1022"/>
      <point x="220" y="739" type="qcurve" smooth="yes"/>
      <point x="220" y="718" type="line" smooth="yes"/>
      <point x="220" y="433"/>
      <point x="490" y="83"/>
      <point x="721" y="83" type="qcurve" smooth="yes"/>
      <point x="958" y="83"/>
      <point x="1231" y="432"/>
      <point x="1231" y="718" type="qcurve" smooth="yes"/>
    </contour>
  </outline>
</glyph>
<glyph name="Lambda" format="2">
  <advance width="1442"/>
  <unicode hex="039B"/>
  <outline>
    <contour>
      <point x="52" y="88" type="line"/>
      <point x="158" y="96" type="line"/>
      <point x="657" y="1456" type="line"/>
      <point x="770" y="1456" type="line"/>
      <point x="1269" y="96" type="line"/>
      <point x="1377" y="88" type="line"/>
      <point x="1377" y="0" type="line"/>
      <point x="1018" y="0" type="line"/>
      <point x="1018" y="88" type="line"/>
      <point x="1145" y="98" type="line"/>
      <point x="716" y="1285" type="line"/>
      <point x="710" y="1285" type="line"/>
      <point x="282" y="98" type="line"/>
      <point x="410" y="88" type="line"/>
      <point x="410" y="0" type="line"/>
      <point x="52" y="0" type="line"/>
    </contour>
  </outline>
</glyph>
<glyph name="Sigma" format="2">
  <advance width="1173"/>
  <unicode hex="03A3"/>
  <outline>
    <contour>
      <point x="718" y="743" type="line"/>
      <point x="229" y="102" type="line"/>
      <point x="970" y="102" type="line"/>
      <point x="980" y="306" type="line"/>
      <point x="1086" y="306" type="line"/>
      <point x="1086" y="0" type="line"/>
      <point x="79" y="0" type="line"/>
      <point x="79" y="93" type="line"/>
      <point x="594" y="759" type="line"/>
      <point x="79" y="1363" type="line"/>
      <point x="79" y="1456" type="line"/>
      <point x="1031" y="1456" type="line"/>
      <point x="1031" y="1149" type="line"/>
      <point x="924" y="1149" type="line"/>
      <point x="915" y="1354" type="line"/>
      <point x="243" y="1354" type="line"/>
      <point x="241" y="1349" type="line"/>
      <point x="718" y="779" type="line"/>
    </contour>
  </outline>
</glyph>
<glyph name="Phi" format="1">
  <advance width="1458"/>
  <unicode hex="03A6"/>
  <outline>
    <contour>
      <point x="659" y="211" type="line" smooth="yes"/>
      <point x="315.0" y="211.0"/>
      <point x="79.0" y="428.66666666666674"/>
      <point x="79" y="730" type="curve" smooth="yes"/>
      <point x="79.0" y="1028.6666666666665"/>
      <point x="315.00000000000006" y="1250.0"/>
      <point x="659" y="1250" type="curve" smooth="yes"/>
      <point x="661" y="1250" type="line"/>
      <point x="661" y="1354" type="line"/>
      <point x="498" y="1367" type="line"/>
      <point x="498" y="1456" type="line"/>
      <point x="661" y="1456" type="line"/>
      <point x="944" y="1456" type="line"/>
      <point x="944" y="1367" type="line"/>
      <point x="781" y="1354" type="line"/>
      <point x="781" y="1250" type="line"/>
      <point x="783" y="1250" type="line" smooth="yes"/>
      <point x="1124.3333333333333" y="1250.0"/>
      <point x="1364.0" y="1029.3333333333333"/>
      <point x="1364" y="732" type="curve" smooth="yes"/>
      <point x="1364.0" y="430.66666666666674"/>
      <point x="1124.3333333333333" y="211.0"/>
      <point x="783" y="211" type="curve" smooth="yes"/>
      <point x="781" y="211" type="line"/>
      <point x="781" y="101" type="line"/>
      <point x="944" y="88" type="line"/>
      <point x="944" y="0" type="line"/>
      <point x="498" y="0" type="line"/>
      <point x="498" y="88" type="line"/>
      <point x="661" y="101" type="line"/>
      <point x="661" y="211" type="line"/>
    </contour>
    <contour>
      <point x="781" y="1148" type="line"/>
      <point x="781" y="312" type="line"/>
      <point x="785" y="312" type="line" smooth="yes"/>
      <point x="1069.0" y="312.0"/>
      <point x="1245.0" y="481.33333333333326"/>
      <point x="1245" y="732" type="curve" smooth="yes"/>
      <point x="1245.0" y="978.6666666666667"/>
      <point x="1067.6666666666665" y="1148.0"/>
      <point x="785" y="1148" type="curve" smooth="yes"/>
    </contour>
    <contour>
      <point x="659" y="1148" type="line" smooth="yes"/>
      <point x="373.66666666666674" y="1148.0"/>
      <point x="198.0" y="975.3333333333333"/>
      <point x="198" y="730" type="curve" smooth="yes"/>
      <point x="198.0" y="479.33333333333326"/>
      <point x="372.3333333333335" y="312.0"/>
      <point x="659" y="312" type="curve" smooth="yes"/>
      <point x="661" y="312" type="line"/>
      <point x="661" y="1148" type="line"/>
    </contour>
  </outline>
</glyph>
<glyph name="Psi" format="2">
  <advance width="1640"/>
  <unicode hex="03A8"/>
  <outline>
    <contour>
      <point x="1018" y="1456" type="line"/>
      <point x="1018" y="1367" type="line"/>
      <point x="855" y="1354" type="line"/>
      <point x="855" y="499" type="line"/>
      <point x="861" y="497" type="line"/>
      <point x="1040" y="506"/>
      <point x="1263" y="742"/>
      <point x="1263" y="936" type="qcurve" smooth="yes"/>
      <point x="1263" y="1456" type="line"/>
      <point x="1545" y="1456" type="line"/>
      <point x="1545" y="1367" type="line"/>
      <point x="1382" y="1354" type="line"/>
      <point x="1382" y="936" type="line" smooth="yes"/>
      <point x="1382" y="690"/>
      <point x="1092" y="402"/>
      <point x="855" y="388" type="qcurve"/>
      <point x="855" y="101" type="line"/>
      <point x="1018" y="88" type="line"/>
      <point x="1018" y="0" type="line"/>
      <point x="572" y="0" type="line"/>
      <point x="572" y="88" type="line"/>
      <point x="735" y="101" type="line"/>
      <point x="735" y="388" type="line"/>
      <point x="502" y="403"/>
      <point x="218" y="691"/>
      <point x="218" y="936" type="qcurve" smooth="yes"/>
      <point x="218" y="1354" type="line"/>
      <point x="55" y="1367" type="line"/>
      <point x="55" y="1456" type="line"/>
      <point x="218" y="1456" type="line"/>
      <point x="337" y="1456" type="line"/>
      <point x="337" y="936" type="line" smooth="yes"/>
      <point x="337" y="743"/>
      <point x="554" y="508"/>
      <point x="729" y="497" type="qcurve"/>
      <point x="735" y="499" type="line"/>
      <point x="735" y="1354" type="line"/>
      <point x="572" y="1367" type="line"/>
      <point x="572" y="1456" type="line"/>
      <point x="735" y="1456" type="line"/>
      <point x="855" y="1456" type="line"/>
    </contour>
  </outline>
</glyph>
<glyph name="Omega" format="2">
  <advance width="1344"/>
  <unicode hex="03A9"/>
  <outline>
    <contour>
      <point x="745" y="134" type="line"/>
      <point x="898" y="181"/>
      <point x="1118" y="504"/>
      <point x="1118" y="767" type="qcurve" smooth="yes"/>
      <point x="1118" y="815" type="line" smooth="yes"/>
      <point x="1118" y="1068"/>
      <point x="868" y="1375"/>
      <point x="658" y="1375" type="qcurve" smooth="yes"/>
      <point x="448" y="1375"/>
      <point x="200" y="1068"/>
      <point x="200" y="815" type="qcurve" smooth="yes"/>
      <point x="200" y="767" type="line" smooth="yes"/>
      <point x="200" y="504"/>
      <point x="424" y="181"/>
      <point x="579" y="134" type="qcurve"/>
      <point x="579" y="0" type="line"/>
      <point x="116" y="0" type="line"/>
      <point x="116" y="101" type="line"/>
      <point x="438" y="101" type="line"/>
      <point x="283" y="190"/>
      <point x="80" y="544"/>
      <point x="80" y="767" type="qcurve" smooth="yes"/>
      <point x="80" y="813" type="line" smooth="yes"/>
      <point x="80" y="1101"/>
      <point x="402" y="1477"/>
      <point x="658" y="1477" type="qcurve" smooth="yes"/>
      <point x="914" y="1477"/>
      <point x="1238" y="1101"/>
      <point x="1238" y="813" type="qcurve" smooth="yes"/>
      <point x="1238" y="767" type="line" smooth="yes"/>
      <point x="1238" y="544"/>
      <point x="1035" y="190"/>
      <point x="883" y="101" type="qcurve"/>
      <point x="1208" y="101" type="line"/>
      <point x="1208" y="0" type="line"/>
      <point x="745" y="0" type="line"/>
    </contour>
  </outline>
</glyph>
<glyph name="alpha" format="1">
  <advance width="1204"/>
  <unicode hex="03B1"/>
  <outline>
    <contour>
      <point x="971" y="1082" type="line"/>
      <point x="971" y="274" type="line" smooth="yes"/>
      <point x="971.0" y="135.33333333333337"/>
      <point x="1008.0" y="87.0"/>
      <point x="1072" y="87" type="curve" smooth="yes"/>
      <point x="1088.0" y="87.0"/>
      <point x="1099.3333333333335" y="88.33333333333334"/>
      <point x="1122" y="95" type="curve"/>
      <point x="1139" y="2" type="line"/>
      <point x="1108.3333333333335" y="-15.333333333333332"/>
      <point x="1077.0" y="-21.0"/>
      <point x="1041" y="-21" type="curve" smooth="yes"/>
      <point x="934.3333333333333" y="-21.0"/>
      <point x="873.3333333333333" y="37.33333333333334"/>
      <point x="856" y="176" type="curve"/>
      <point x="785.3333333333333" y="49.33333333333334"/>
      <point x="671.6666666666667" y="-21.0"/>
      <point x="517" y="-21" type="curve" smooth="yes"/>
      <point x="258.3333333333334" y="-21.0"/>
      <point x="104.0" y="186.99999999999994"/>
      <point x="104" y="511" type="curve" smooth="yes"/>
      <point x="104" y="532" type="line" smooth="yes"/>
      <point x="104.0" y="877.3333333333335"/>
      <point x="257.66666666666686" y="1102.0"/>
      <point x="519" y="1102" type="curve" smooth="yes"/>
      <point x="672.3333333333333" y="1102.0"/>
      <point x="783.3333333333333" y="1028.0"/>
      <point x="854" y="896" type="curve"/>
      <point x="868" y="1082" type="line"/>
    </contour>
    <contour>
      <point x="224" y="511" type="line" smooth="yes"/>
      <point x="224.0" y="249.66666666666674"/>
      <point x="328.33333333333337" y="80.0"/>
      <point x="539" y="80" type="curve" smooth="yes"/>
      <point x="695.0" y="80.0"/>
      <point x="793.6666666666667" y="171.33333333333337"/>
      <point x="851" y="322" type="curve"/>
      <point x="851" y="735" type="line"/>
      <point x="795.0" y="891.0"/>
      <point x="695.6666666666667" y="1000.0"/>
      <point x="541" y="1000" type="curve" smooth="yes"/>
      <point x="330.33333333333337" y="1000.0"/>
      <point x="224.0" y="808.0"/>
      <point x="224" y="532" type="curve" smooth="yes"/>
    </contour>
  </outline>
</glyph>
<glyph name="beta" format="2">
  <advance width="1158"/>
  <unicode hex="03B2"/>
  <outline>
    <contour>
      <point x="560" y="1477" type="qcurve" smooth="yes"/>
      <point x="744" y="1477"/>
      <point x="969" y="1262"/>
      <point x="969" y="1093" type="qcurve" smooth="yes"/>
      <point x="969" y="992"/>
      <point x="864" y="827"/>
      <point x="770" y="782" type="qcurve"/>
      <point x="908" y="743"/>
      <point x="1056" y="542"/>
      <point x="1056" y="404" type="qcurve" smooth="yes"/>
      <point x="1056" y="204"/>
      <point x="808" y="-21"/>
      <point x="606" y="-21" type="qcurve" smooth="yes"/>
      <point x="510" y="-21"/>
      <point x="325" y="44"/>
      <point x="263" y="108" type="qcurve"/>
      <point x="263" y="-399" type="line"/>
      <point x="144" y="-399" type="line"/>
      <point x="144" y="1063" type="line" smooth="yes"/>
      <point x="144" y="1237"/>
      <point x="388" y="1477"/>
    </contour>
    <contour>
      <point x="556" y="823" type="line" smooth="yes"/>
      <point x="707" y="823"/>
      <point x="850" y="967"/>
      <point x="850" y="1098" type="qcurve" smooth="yes"/>
      <point x="850" y="1211"/>
      <point x="699" y="1375"/>
      <point x="560" y="1375" type="qcurve" smooth="yes"/>
      <point x="434" y="1375"/>
      <point x="263" y="1197"/>
      <point x="263" y="1063" type="qcurve" smooth="yes"/>
      <point x="263" y="238" type="line"/>
      <point x="308" y="165"/>
      <point x="487" y="80"/>
      <point x="597" y="80" type="qcurve" smooth="yes"/>
      <point x="759" y="80"/>
      <point x="936" y="252"/>
      <point x="936" y="400" type="qcurve" smooth="yes"/>
      <point x="936" y="540"/>
      <point x="761" y="721"/>
      <point x="605" y="721" type="qcurve" smooth="yes"/>
      <point x="462" y="721" type="line"/>
      <point x="462" y="823" type="line"/>
    </contour>
  </outline>
</glyph>
